<svg width="21" height="24" viewBox="0 0 21 24" fill="none" xmlns="http://www.w3.org/2000/svg">
<path d="M20.9924 7.55115C20.9924 8.8675 20.9855 10.1839 20.9939 11.5002C21.0086 13.7729 20.2777 15.8097 18.9691 17.6602C17.3718 19.9188 15.2236 21.564 12.8222 22.9211C12.1476 23.3023 11.4494 23.6382 10.7369 23.9465C10.5726 24.0176 10.4284 24.018 10.2639 23.9467C7.77448 22.8681 5.52254 21.4388 3.60961 19.5326C1.94135 17.87 0.722379 15.9439 0.220917 13.6306C0.0750117 12.9576 0.00383457 12.2771 0.00514558 11.5871C0.0104989 8.70641 0.0121924 5.82566 1.0894e-05 2.94508C-0.00124549 2.65011 0.106094 2.49883 0.362178 2.37358C2.42265 1.36574 4.59134 0.690898 6.85748 0.304434C8.43583 0.035238 10.0274 -0.0537978 11.6223 0.0308451C14.4157 0.179131 17.0973 0.816256 19.6591 1.92443C19.9881 2.06677 20.3059 2.23429 20.6359 2.37411C20.8993 2.4857 21.0031 2.64829 20.9999 2.94411C20.9837 4.47963 20.9924 6.01547 20.9924 7.55115ZM0.799948 7.54702C0.799948 8.85347 0.79301 10.16 0.802842 11.4664C0.807868 12.1337 0.856812 12.8011 1.00386 13.4542C1.46053 15.4825 2.49514 17.2048 3.93305 18.7079C5.74225 20.5992 7.90602 21.9958 10.2891 23.0874C10.4481 23.1603 10.5764 23.1515 10.7281 23.0788C11.4707 22.7228 12.2083 22.3587 12.9192 21.9433C14.7214 20.8904 16.3354 19.6155 17.6746 18.027C19.4146 15.9631 20.2719 13.6039 20.2114 10.9034C20.1565 8.45377 20.1919 6.00202 20.2085 3.55129C20.2109 3.1877 20.1065 2.99436 19.7609 2.83751C16.0279 1.14368 12.1256 0.499809 8.03374 0.94697C5.61273 1.21156 3.31791 1.8872 1.11792 2.89938C0.883634 3.00717 0.791207 3.13825 0.79372 3.39883C0.807048 4.78145 0.799948 6.16424 0.799948 7.54702Z" fill="#99A1A6"/>
<path d="M10.5219 7.48326C10.5218 6.52074 10.5274 5.55812 10.5181 4.59565C10.5156 4.3451 10.5865 4.23807 10.8643 4.24374C11.6608 4.25998 12.458 4.24192 13.2547 4.25387C14.9908 4.27985 16.3438 5.62021 16.3802 7.32126C16.399 8.20005 16.206 9.0078 15.6134 9.68783C15.0338 10.3529 14.2797 10.7062 13.3965 10.7402C12.5427 10.7731 11.6864 10.7418 10.8314 10.7536C10.5791 10.7571 10.5176 10.6507 10.5191 10.428C10.5259 9.44644 10.522 8.46485 10.5219 7.48326ZM11.8263 7.4704C11.8263 8.1379 11.8306 8.80546 11.8237 9.4729C11.8217 9.66378 11.8807 9.75281 12.0897 9.74606C12.4394 9.73476 12.79 9.75217 13.1397 9.74039C14.0284 9.71049 14.673 9.23531 14.9388 8.40549C15.1239 7.82762 15.1307 7.23731 14.9551 6.65799C14.7131 5.85989 14.1824 5.38481 13.3131 5.29042C12.9143 5.24708 12.5167 5.2751 12.1196 5.25228C11.8831 5.23873 11.819 5.33628 11.8225 5.55373C11.8328 6.19251 11.8262 6.83151 11.8263 7.4704Z" fill="#99A1A6"/>
<path d="M8.61894 7.33863C8.64057 7.35197 8.66286 7.37013 8.68842 7.38084C9.33656 7.65132 9.64475 8.15447 9.63831 8.82213C9.63104 9.56875 9.31383 10.172 8.622 10.5361C7.92514 10.9029 7.18879 10.9307 6.44561 10.7017C5.71794 10.4776 5.35397 9.91434 5.1134 9.25118C5.08549 9.17425 5.09669 9.10825 5.16601 9.04654C5.56139 8.69495 6.06137 8.75715 6.33095 9.20473C6.59905 9.64981 6.97187 9.86795 7.51332 9.81765C8.24481 9.74966 8.65434 9.07879 8.34379 8.33018C8.20368 7.99236 7.83643 7.94554 7.50775 7.89106C7.40309 7.8737 7.29449 7.88002 7.18775 7.87429C7.03961 7.86631 6.94942 7.80191 6.95751 7.64323C6.95893 7.61473 6.95696 7.58607 6.95625 7.55747C6.94418 7.06241 6.94418 7.06241 7.431 6.97852C8.01249 6.87834 8.26273 6.67424 8.33904 6.23795C8.40705 5.84891 8.2476 5.45977 7.94983 5.28845C7.63595 5.10786 7.07205 5.15763 6.79467 5.39082C6.65952 5.50445 6.55961 5.64229 6.48865 5.80306C6.30282 6.22429 5.754 6.36979 5.35463 6.11061C5.24729 6.04097 5.27269 5.94995 5.28973 5.85706C5.44749 4.99884 6.15773 4.3255 7.0448 4.20636C7.55194 4.13827 8.05176 4.15874 8.52564 4.38277C9.10888 4.6585 9.44253 5.10684 9.49087 5.74215C9.54222 6.4172 9.32831 6.96357 8.66827 7.27627C8.65314 7.2835 8.645 7.30482 8.61894 7.33863Z" fill="#99A1A6"/>
<path d="M12.8566 13.898C12.8567 13.6032 12.8625 13.3083 12.8547 13.0136C12.8494 12.8126 12.9221 12.7098 13.1408 12.7226C13.4588 12.7413 13.7812 12.6844 14.0949 12.7787C14.6534 12.9467 14.8205 13.5472 14.4046 13.948C14.2726 14.0752 14.2576 14.1535 14.3642 14.2973C14.5005 14.4812 14.6069 14.6863 14.7306 14.8796C14.8335 15.0407 14.7804 15.0853 14.6001 15.0995C14.3046 15.1227 14.0931 15.0399 13.9714 14.7576C13.9077 14.61 13.8114 14.4755 13.7251 14.338C13.6882 14.2791 13.6327 14.2369 13.5549 14.256C13.4693 14.2771 13.4679 14.3489 13.4664 14.4156C13.4636 14.5392 13.4566 14.6635 13.4655 14.7864C13.4808 14.9958 13.4141 15.0993 13.1751 15.1008C12.9333 15.1023 12.8442 15.0147 12.8537 14.7823C12.8656 14.488 12.8565 14.1928 12.8566 13.898ZM13.4654 13.5161C13.4599 13.6659 13.4468 13.8256 13.691 13.8097C13.8958 13.7964 14.0238 13.7142 14.0248 13.4977C14.0258 13.2755 13.8911 13.2029 13.6868 13.1964C13.4439 13.1885 13.4628 13.3521 13.4654 13.5161Z" fill="#99A1A6"/>
<path d="M11.9714 13.5499C11.9714 13.3785 11.9792 13.2067 11.9693 13.0359C11.9574 12.8295 12.015 12.7209 12.2572 12.718C12.5074 12.7149 12.5796 12.8188 12.5732 13.043C12.5629 13.4045 12.5845 13.7672 12.5642 14.1279C12.522 14.8731 11.9089 15.2877 11.1778 15.0745C10.823 14.9711 10.5919 14.7399 10.5211 14.3797C10.4266 13.8988 10.4788 13.4115 10.4774 12.9269C10.4768 12.7177 10.6357 12.7253 10.7869 12.7232C10.9506 12.7209 11.075 12.749 11.0712 12.952C11.0657 13.2566 11.0672 13.5614 11.073 13.8659C11.0756 13.9983 11.0917 14.131 11.11 14.2625C11.1428 14.4981 11.2891 14.6084 11.5275 14.6147C11.7778 14.6214 11.9181 14.4803 11.9448 14.2617C11.9733 14.0276 11.9512 13.7875 11.9512 13.55C11.958 13.55 11.9646 13.55 11.9714 13.5499Z" fill="#99A1A6"/>
<path d="M6.56179 13.9017C6.56179 13.6063 6.56638 13.3108 6.56021 13.0155C6.55606 12.8179 6.62319 12.7142 6.84568 12.7212C7.19512 12.7321 7.54516 12.7267 7.89493 12.7237C8.05908 12.7223 8.14834 12.779 8.14905 12.9555C8.1497 13.1247 8.0776 13.2017 7.90684 13.2001C7.7417 13.1986 7.57651 13.2041 7.41138 13.2037C7.23986 13.2032 7.20288 13.3064 7.20288 13.4482C7.20288 13.5886 7.23407 13.696 7.40931 13.6911C7.47726 13.6892 7.54532 13.6927 7.61333 13.6928C7.76399 13.693 7.91066 13.6862 7.91399 13.9027C7.91716 14.1115 7.78742 14.1309 7.62715 14.1264C7.5592 14.1246 7.49103 14.13 7.42318 14.1271C7.25657 14.12 7.20386 14.2086 7.20255 14.3578C7.20118 14.5131 7.24166 14.6199 7.42733 14.6167C7.58274 14.614 7.73826 14.6203 7.89367 14.6186C8.05547 14.6169 8.1491 14.6727 8.14899 14.8505C8.14888 15.0176 8.08207 15.0966 7.9082 15.095C7.53904 15.0916 7.16972 15.0908 6.80056 15.0953C6.61997 15.0975 6.56228 15.0025 6.56277 14.845C6.56365 14.5305 6.56305 14.2161 6.56305 13.9017C6.56256 13.9017 6.56217 13.9017 6.56179 13.9017Z" fill="#99A1A6"/>
<path d="M15.8094 12.7239C15.9747 12.7239 16.1401 12.7271 16.3052 12.723C16.4691 12.7189 16.5941 12.7466 16.5948 12.9492C16.5956 13.1581 16.4741 13.2064 16.2933 13.2015C16.1476 13.1975 16.0015 13.2067 15.8558 13.2013C15.6786 13.1947 15.6167 13.2769 15.6176 13.4442C15.6184 13.6037 15.659 13.704 15.846 13.6928C15.9428 13.6871 16.0404 13.6964 16.1375 13.6934C16.3024 13.6883 16.3622 13.7737 16.3583 13.924C16.3546 14.0676 16.2799 14.1295 16.137 14.1255C16.0496 14.123 15.9615 14.1323 15.8746 14.1256C15.6867 14.1112 15.6162 14.1897 15.6162 14.3753C15.6162 14.5691 15.708 14.6258 15.8855 14.6185C16.031 14.6125 16.1772 14.6217 16.3228 14.6182C16.5015 14.6139 16.5949 14.6859 16.5944 14.8703C16.5938 15.048 16.4962 15.0979 16.3339 15.096C15.9743 15.0917 15.6145 15.0916 15.2548 15.0952C15.0824 15.0969 15.0093 15.0207 15.0101 14.8532C15.013 14.224 15.013 13.5946 15.0101 12.9653C15.0093 12.7975 15.0832 12.7201 15.2552 12.724C15.4399 12.7282 15.6247 12.725 15.8094 12.725C15.8094 12.7246 15.8094 12.7243 15.8094 12.7239Z" fill="#99A1A6"/>
<path d="M6.3434 14.3494C6.33969 14.8184 5.99271 15.14 5.49135 15.1259C5.27667 15.1198 5.0697 15.0663 4.88075 14.9583C4.75669 14.8874 4.64061 14.8192 4.74599 14.6487C4.83623 14.5027 4.93707 14.404 5.12055 14.5103C5.24838 14.5844 5.38325 14.6311 5.53483 14.6209C5.64977 14.6132 5.74727 14.581 5.77437 14.4556C5.80092 14.3326 5.73695 14.2526 5.62835 14.2078C5.5303 14.1674 5.427 14.1396 5.32655 14.1047C4.90833 13.9593 4.71015 13.7001 4.75183 13.3542C4.7951 12.9952 5.10542 12.7214 5.51719 12.6964C5.73242 12.6834 5.94048 12.7289 6.13369 12.8314C6.26081 12.8988 6.33499 12.9768 6.25059 13.126C6.17882 13.2529 6.10026 13.3541 5.93125 13.2835C5.8055 13.231 5.67948 13.1832 5.53822 13.2016C5.44399 13.2139 5.36905 13.2497 5.35146 13.3506C5.33441 13.4485 5.38063 13.5205 5.46918 13.5572C5.62977 13.6237 5.79758 13.6741 5.95572 13.7455C6.25343 13.8799 6.34592 14.0321 6.3434 14.3494Z" fill="#99A1A6"/>
<path d="M8.8965 13.9106C8.89644 14.5158 9.31438 14.7853 9.86206 14.5133C10.0665 14.4119 10.1524 14.5221 10.2417 14.6464C10.3525 14.8007 10.2081 14.8763 10.1097 14.9372C9.71747 15.18 9.30013 15.1971 8.89005 14.9961C8.4413 14.7761 8.27142 14.3722 8.26525 13.9098C8.25317 13.0056 9.2443 12.4079 10.0623 12.8184C10.1857 12.8803 10.3894 12.926 10.2747 13.1449C10.1817 13.3225 10.0649 13.3787 9.85097 13.2811C9.32738 13.0424 8.89655 13.3368 8.8965 13.9106Z" fill="#99A1A6"/>
</svg>
