<svg width="632" height="216" viewBox="0 0 632 216" fill="none" xmlns="http://www.w3.org/2000/svg">
<path fill-rule="evenodd" clip-rule="evenodd" d="M381 82.6283V84.8832H356.422V85.3342C356.572 85.4845 356.647 85.71 356.647 86.0106H372.431V87.1381H366.569C366.719 87.7394 366.794 88.491 366.794 89.3929V91.6478H366.118V95.0302H355.971V98.4125H365.216V101.795H366.743L368.547 99.5399H379.596L382.076 96.1576H366.743L370.125 91.6478H381.4L385.008 87.1381H414.547L415.449 86.0106H386.812L387.713 84.8832H400.566L403.949 80.3734H381.4L382.302 79.246H397.184L398.988 76.9911H411.39L412.292 75.8636H413.87L415.449 73.6087H419.958L422.439 70.2264H411.841L415.223 65.7167H445.664L447.242 63.4618H403.949L406.429 60.0795H455.585L459.193 55.5697H436.419L439.125 52.1873H428.076L428.978 51.0599H452.88L453.782 49.9325H422.664L425.37 46.5501H432.586L435.292 43.1678H450.399L452.203 40.9129H449.046L451.527 37.5306H452.654L453.556 36.4032H448.37L450.85 33.0208H444.988L445.889 31.8934H444.762L445.664 30.9914C446.416 29.9392 447.393 29.1124 448.595 28.5111H445.889C447.543 27.6091 449.347 27.1581 451.301 27.1581H498.203C499.706 27.1581 500.984 27.6091 502.036 28.5111H504.742C505.193 28.9621 505.569 29.4882 505.869 30.0895C506.32 30.5405 506.621 31.1418 506.771 31.8934H507.673V32.3444C507.824 32.4947 507.899 32.7202 507.899 33.0208H513.761V36.4032H519.173V37.5306H517.82V40.9129H521.203V43.1678H505.869V46.5501H498.428V49.9325H529.546V51.0599H505.644V52.1873H516.467V55.5697H539.242V60.0795H490.085V63.4618H533.379V65.7167H503.164V70.2264H513.761V73.6087H509.477V75.8636H507.899V76.9911H495.497V79.246H480.389V80.3734H503.164V84.8832H479.938V86.0106H499.781V87.1381H499.556V91.6478H479.713V96.1576H493.468V99.5399H518.497V104.05H493.468V108.559H508.35V113.069H507.899V113.971H527.516C529.771 113.971 531.5 114.798 532.703 116.452H531.575C532.176 117.353 532.477 118.105 532.477 118.706H538.565V122.089H537.663V126.599H533.379V131.108H546.908V134.491H541.497V135.618H539.693V140.128H561.791V141.255H527.291V142.383H571.261V143.51H561.791V146.892H533.83V151.402H589.977V153.657C589.977 154.258 589.826 155.01 589.526 155.912H552.546C552.546 156.062 552.395 156.438 552.095 157.039H529.32C529.17 157.34 528.869 157.716 528.418 158.167H515.114C513.761 159.219 512.409 159.745 511.056 159.745H491.213V161.549H532.703V162.677H513.987V163.804H510.83V166.059H507.899V170.569H503.615V171.696H499.33V175.079H475.428V176.206H467.085V178.912C467.085 179.212 467.01 179.438 466.86 179.588H479.713L479.036 181.843H493.693C493.543 182.144 493.242 182.52 492.791 182.971H472.723C472.121 183.572 471.67 183.948 471.37 184.098H485.35C484.598 184.699 483.471 185 481.968 185H440.027C438.674 185 437.622 184.699 436.87 184.098H423.115C422.514 183.948 422.063 183.572 421.762 182.971H441.831L441.154 181.843H426.272L425.596 179.588H412.968V176.206H421.311V175.079H445.213V171.696H449.497V170.569H453.782V166.059H456.713V163.804H459.87V162.677H478.585V161.549H437.095V159.745H369.674C368.021 159.745 366.668 159.219 365.616 158.167H378.694C378.243 157.716 377.942 157.34 377.792 157.039H400.566L399.89 155.912H436.87C436.569 155.01 436.419 154.258 436.419 153.657V151.402H380.272V146.892H408.233V143.51H417.703V142.383H373.733V141.255H408.233V140.128H386.135V135.618H387.939V134.491H393.351V131.108H379.821V126.599H384.106V122.089H385.008V121.412C385.008 120.51 385.158 119.608 385.459 118.706H379.37C379.521 118.255 379.671 117.88 379.821 117.579C379.972 117.128 380.122 116.752 380.272 116.452C380.723 115.55 381.174 114.873 381.625 114.422L382.753 113.069H380.047L383.655 108.559H397.409L400.792 104.05H367.696V105.177H367.02V108.559H359.128V113.069H371.078V117.579H359.579L359.353 119.834H364.088V121.638C364.088 122.089 364.013 122.615 363.863 123.216H366.794C366.644 123.517 366.569 123.893 366.569 124.344V125.471H371.078V128.853H376.941V129.53C376.791 130.131 376.716 130.732 376.716 131.334C376.716 131.935 376.641 132.612 376.49 133.363H375.814L375.588 135.618H362.735L362.284 137.873C362.284 138.625 362.134 139.376 361.833 140.128H369.951L369.275 143.51H363.863L362.51 148.02H358.902L357.549 151.402H353.039C352.739 152.154 352.363 152.906 351.912 153.657C351.611 154.409 351.235 155.16 350.785 155.912H344.696L341.99 160.422H353.49L351.686 162.677C351.235 163.428 350.709 164.18 350.108 164.932H352.363L351.235 166.059H355.745L353.716 168.314H345.824L343.569 170.569H339.961C338.007 172.222 336.053 173.726 334.098 175.079H318.991L313.353 178.461H332.971C330.415 179.814 327.86 180.941 325.304 181.843H332.069L326.206 183.647C324.252 184.248 322.223 184.775 320.118 185.226H320.569C319.517 185.376 318.389 185.526 317.187 185.676C316.134 185.977 315.007 186.203 313.804 186.353H336.804C334.7 186.654 332.445 186.879 330.04 187.029C327.785 187.18 325.379 187.255 322.824 187.255C320.419 187.255 318.014 187.18 315.608 187.029C313.353 186.879 311.174 186.654 309.069 186.353H285.844C284.792 186.203 283.664 185.977 282.462 185.676C281.409 185.526 280.282 185.376 279.079 185.226H278.854C274.344 184.324 270.36 183.196 266.903 181.843H260.138C257.432 180.941 254.952 179.814 252.697 178.461H233.08C232.027 177.86 230.975 177.333 229.923 176.882L227.217 175.079H242.325C240.37 173.726 238.416 172.222 236.462 170.569H240.07L237.815 168.314H245.481L243.452 166.059H238.942C238.491 165.608 238.191 165.232 238.04 164.932H235.785C234.583 163.729 233.455 162.226 232.403 160.422H220.678L218.648 157.039H206.167C206.017 157.34 205.716 157.716 205.265 158.167H191.961C190.608 159.219 189.256 159.745 187.903 159.745H168.06V161.549H209.549V162.677H190.834V163.804H187.677V166.059H184.746V170.569H180.461V171.696H176.177V175.079H152.275V176.206H143.932V178.912C143.932 179.212 143.857 179.438 143.707 179.588H156.56L155.883 181.843H170.54C170.39 182.144 170.089 182.52 169.638 182.971H149.57C148.968 183.572 148.517 183.948 148.217 184.098H162.197C161.445 184.699 160.318 185 158.815 185H116.874C115.521 185 114.469 184.699 113.717 184.098H99.9621C99.3608 183.948 98.9099 183.572 98.6092 182.971H118.678L118.001 181.843H103.119L102.443 179.588H89.8152V176.206H98.1582V175.079H122.06V171.696H126.344V170.569H130.629V166.059H133.56V163.804H136.717V162.677H155.432V161.549H113.942V159.745H46.5214C44.8678 159.745 43.5149 159.219 42.4626 158.167H55.5409C55.0899 157.716 54.7893 157.34 54.639 157.039H77.4133L76.7368 155.912H113.717C113.416 155.01 113.266 154.258 113.266 153.657V151.402H57.1193V146.892H85.0799V143.51H94.5504V142.383H50.5802V141.255H85.0799V140.128H62.982V135.618H64.7859V134.491H70.1977V131.108H56.6684V126.599H60.9526V122.089H61.8546V121.412C61.8546 120.51 62.0049 119.608 62.3056 118.706H56.2174C56.3677 118.255 56.518 117.88 56.6684 117.579C56.8187 117.128 56.969 116.752 57.1193 116.452C57.5703 115.55 58.0213 114.873 58.4723 114.422L59.5997 113.069H56.8939L60.5017 108.559H74.2565L77.6388 104.05H41.7861L45.3939 99.5399H56.4429L58.9233 96.1576H43.59L46.9724 91.6478H58.2468L61.8546 87.1381H91.3936L92.2955 86.0106H63.6585L64.5605 84.8832H77.4133L80.7956 80.3734H58.2468L59.1487 79.246H74.031L75.8349 76.9911H88.2367L89.1387 75.8636H90.7171L92.2955 73.6087H96.8053L99.2857 70.2264H88.6877L92.07 65.7167H122.511L124.089 63.4618H80.7956L83.276 60.0795H132.432L136.04 55.5697H113.266L115.972 52.1873H104.923L105.825 51.0599H129.727L130.629 49.9325H99.5112L102.217 46.5501H109.433L112.139 43.1678H127.246L129.05 40.9129H125.893L128.374 37.5306H129.501L130.403 36.4032H125.217L127.697 33.0208H121.835L122.736 31.8934H121.609L122.511 30.9914C123.263 29.9392 124.24 29.1124 125.442 28.5111H122.736C124.39 27.6091 126.194 27.1581 128.148 27.1581H175.05C176.553 27.1581 177.831 27.6091 178.883 28.5111H181.589C182.04 28.9621 182.416 29.4882 182.716 30.0895C183.167 30.5405 183.468 31.1418 183.618 31.8934H184.52V32.3444C184.671 32.4947 184.746 32.7202 184.746 33.0208H190.608V36.4032H196.02V37.5306H194.667V40.9129H198.05V43.1678H182.716V46.5501H175.275V49.9325H206.393V51.0599H182.491V52.1873H193.314V55.5697H216.089V57.8246H222.707C223.308 56.3213 224.135 54.8181 225.187 53.3148H219.099L219.776 52.1873H228.119C228.72 51.4357 229.246 50.6841 229.697 49.9325C230.299 49.0305 230.9 48.2789 231.501 47.6776H238.266C238.566 47.3769 238.867 47.0011 239.168 46.5501L240.295 45.4227H240.972C241.423 45.1221 241.798 44.7462 242.099 44.2953L243.227 43.1678H242.325L246.383 39.7855H246.834L251.57 36.4032H251.795L255.854 34.1483C256.155 33.8476 256.455 33.6221 256.756 33.4718L258.109 33.0208H253.599C253.9 32.7202 254.275 32.4947 254.726 32.3444C255.177 32.1941 255.553 32.0437 255.854 31.8934H258.109C259.011 31.4424 259.913 31.0666 260.815 30.766C261.867 30.315 262.844 29.9392 263.746 29.6385H265.55C266.151 29.3379 266.677 29.1124 267.128 28.9621L268.932 28.5111H268.481C269.233 28.2104 269.909 27.9849 270.511 27.8346L272.766 27.3836H273.216C276.674 26.632 280.207 26.0307 283.814 25.5797C287.573 25.1288 291.481 24.9033 295.54 24.9033C303.206 24.9033 310.572 25.7301 317.638 27.3836H317.187L319.442 27.8346C320.193 27.9849 320.87 28.2104 321.471 28.5111H322.147C322.749 28.6614 323.275 28.8117 323.726 28.9621C324.327 29.1124 324.928 29.3379 325.53 29.6385H323.951C325.004 29.9392 325.981 30.315 326.883 30.766C327.935 31.0666 328.912 31.4424 329.814 31.8934H327.559L330.04 33.0208H334.549L335.451 33.4718C335.902 33.6221 336.353 33.8476 336.804 34.1483H336.579L340.638 36.4032H340.187C341.089 37.0045 341.915 37.6058 342.667 38.2071C343.569 38.6581 344.396 39.1842 345.147 39.7855H344.696C345.448 40.3868 346.124 40.9881 346.726 41.5894C347.327 42.0404 347.928 42.5665 348.53 43.1678H349.432C349.883 43.4685 350.258 43.8443 350.559 44.2953L351.686 45.4227H351.01L353.039 47.6776H346.5C347.102 48.2789 347.628 49.0305 348.079 49.9325L349.883 52.1873H341.539L342.216 53.3148H348.53C348.981 53.9161 349.432 54.6677 349.883 55.5697L351.235 57.8246H340.638L341.314 58.952H329.138L331.167 63.4618H355.52L356.873 66.8441H353.265L353.716 68.648C353.866 69.099 354.016 69.6251 354.167 70.2264H352.363L353.039 73.6087H363.637C363.938 74.5107 364.088 75.2623 364.088 75.8636H365.667C365.817 76.4649 365.892 77.0662 365.892 77.6675C366.043 78.1185 366.118 78.6447 366.118 79.246H367.696C367.846 79.8473 367.922 80.6741 367.922 81.7263C367.922 82.1773 367.997 82.478 368.147 82.6283H381ZM198.974 60.0795H166.932V63.4618H197.452L198.974 60.0795ZM210.226 63.4618V65.7167H180.011V70.2264H190.608V73.6087H186.324V75.8636H184.746V76.9911H172.344V79.246H157.236V80.3734H180.011V84.8832H156.785V86.0106H176.628V87.1381H176.403V91.6478H156.56V96.1576H170.315V99.5399H195.344V104.05H170.315V108.559H185.197V113.069H184.746V113.971H204.363C206.618 113.971 208.347 114.798 209.549 116.452H208.422C209.023 117.353 209.324 118.105 209.324 118.706H215.412V122.089H214.51V126.599H210.226V131.108H220.412L220.227 129.53V128.853H233.756C233.606 128.252 233.531 127.726 233.531 127.275V125.471H224.06L223.835 123.216H224.736C224.586 122.615 224.511 122.089 224.511 121.638V119.834H222.031L221.805 117.579H221.58C221.58 116.827 221.505 116.076 221.354 115.324V113.069H220.452C220.452 112.318 220.377 111.566 220.227 110.814V108.559H221.58V105.177H225.413V101.795H222.933V98.4125H222.256V95.0302H213.011C213.161 94.4288 213.237 93.9027 213.237 93.4517V91.6478H226.54V87.1381H228.344C228.495 86.8374 228.57 86.4616 228.57 86.0106H245.481V84.8832H231.727L231.952 82.6283H226.766L226.991 81.7263C226.991 80.6741 227.067 79.8473 227.217 79.246H224.511C224.661 78.6447 224.736 78.1185 224.736 77.6675C224.736 77.0662 224.812 76.4649 224.962 75.8636H225.638C225.789 75.563 225.864 75.1872 225.864 74.7362C225.864 74.2852 225.939 73.9094 226.089 73.6087H229.021C229.171 73.0074 229.321 72.4813 229.472 72.0303L229.923 70.2264H216.168C216.469 69.6251 216.694 69.099 216.844 68.648L217.295 66.8441H220.678L222.031 63.4618H210.226ZM223.755 133.363V134.491H218.344V135.618H216.54V140.128H233.756L233.305 137.873C233.305 137.121 233.155 136.37 232.854 135.618H224.06L223.835 133.363H223.755ZM231.783 141.255H204.138V142.383H232.095C232.047 142.225 232 142.075 231.952 141.932L231.783 141.255ZM228.232 146.892H210.677V151.402H226.54C225.939 150.2 225.488 149.072 225.187 148.02H228.57L228.232 146.892ZM285.167 68.4225C282.762 68.4225 280.582 69.0238 278.628 70.2264H291.707C290.053 69.0238 287.873 68.4225 285.167 68.4225ZM322.373 84.8832C322.373 84.1315 322.298 83.5302 322.147 83.0793V82.6283H309.295C309.295 82.027 309.219 81.5008 309.069 81.0499C309.069 80.4486 308.994 79.8473 308.844 79.246H307.265C307.115 78.6447 306.965 78.1185 306.814 77.6675C306.814 77.0662 306.664 76.4649 306.363 75.8636H304.785C304.635 75.2623 304.259 74.5107 303.657 73.6087H293.059L292.158 72.2558C291.857 71.8048 291.481 71.429 291.03 71.1284C290.278 71.88 289.677 72.7068 289.226 73.6087H286.069C285.919 73.9094 285.769 74.2852 285.618 74.7362C285.468 75.0368 285.243 75.4127 284.942 75.8636H284.265L283.814 77.6675C283.664 78.1185 283.514 78.6447 283.363 79.246H286.069L285.618 81.0499V82.6283H290.579V84.8832H322.373ZM313.804 87.1381C313.804 86.6871 313.729 86.3113 313.579 86.0106H287.197V87.1381H285.393C285.393 87.7394 285.318 88.491 285.167 89.3929V91.6478H271.864V95.0302H281.109C281.109 95.6315 281.033 96.2328 280.883 96.8341V98.4125H281.785V101.795H284.265V105.177H280.432V108.559H279.079V113.069H280.207V117.579H280.658V119.834H283.363V123.216H282.687V125.471H292.158C292.308 125.922 292.383 126.448 292.383 127.049V128.853H278.854L279.53 133.363H282.687L283.363 135.618H292.158C292.909 137.572 293.886 139.076 295.089 140.128H292.834C294.788 142.082 297.419 143.059 300.726 143.059C304.184 143.059 306.889 142.082 308.844 140.128H300.726C301.778 139.076 302.68 137.572 303.432 135.618H316.285L316.961 133.363H317.638L318.314 128.853H312.226V128.402C312.376 127.951 312.451 127.5 312.451 127.049V125.471H307.942V123.216H305.236V119.834H300.726V117.579H312.226V113.069H300.275V108.559H308.167V105.177H308.844V101.795H306.589V98.4125H297.118V95.0302H307.265V91.6478H307.942V87.1381H313.804ZM447.017 87.1381H434.39L431.007 91.6478H447.017V87.1381ZM419.733 91.6478L416.576 96.1576H427.174V91.6478H419.733ZM414.998 104.05H465.958V99.5399H440.929V96.1576H431.909L429.429 99.5399H418.38L414.998 104.05ZM433.713 108.559L430.556 113.069H433.037L430.556 116.452H455.36V113.069H455.811V108.559H433.713ZM111.237 87.1381H123.864V91.6478H107.854L111.237 87.1381ZM93.423 96.1576L96.5798 91.6478H104.021V96.1576H93.423ZM91.8446 104.05L95.2269 99.5399H106.276L108.756 96.1576H117.776V99.5399H142.805V104.05H91.8446ZM107.403 113.069L110.56 108.559H132.658V113.069H132.207V116.452H107.403L109.884 113.069H107.403Z" fill="#D9FE43"/>
</svg>
