<svg width="21" height="20" viewBox="0 0 21 20" fill="none" xmlns="http://www.w3.org/2000/svg">
<path d="M14.7081 16.9C13.8915 17.6917 12.9998 17.5667 12.1415 17.1917C11.2331 16.8083 10.3998 16.7917 9.44148 17.1917C8.24148 17.7083 7.60814 17.5583 6.89148 16.9C2.82481 12.7083 3.42481 6.325 8.04148 6.09167C9.16648 6.15 9.94981 6.70833 10.6081 6.75833C11.5915 6.55833 12.5331 5.98333 13.5831 6.05833C14.8415 6.15833 15.7915 6.65833 16.4165 7.55833C13.8165 9.11667 14.4331 12.5417 16.8165 13.5C16.3415 14.75 15.7248 15.9917 14.6998 16.9083L14.7081 16.9ZM10.5248 6.04167C10.3998 4.18333 11.9081 2.65 13.6415 2.5C13.8831 4.65 11.6915 6.25 10.5248 6.04167Z" fill="white"/>
</svg>
