<svg width="632" height="216" viewBox="0 0 632 216" fill="none" xmlns="http://www.w3.org/2000/svg">
<path d="M574.186 115.739H566.908C566.809 116.135 566.71 116.531 566.611 116.928C566.512 117.225 566.363 117.571 566.165 117.967H570.324L569.878 119.452H566.314C566.017 120.344 565.621 121.334 565.126 122.423H562.898C562.502 123.413 561.957 124.403 561.264 125.393H561.561C561.165 125.888 560.819 126.383 560.521 126.879C560.224 127.374 559.878 127.869 559.482 128.364H575.522L573.591 130.592H560.373C559.977 131.087 559.482 131.582 558.888 132.077C558.294 132.572 557.749 133.067 557.254 133.562H559.185C558.789 133.958 558.294 134.354 557.7 134.75C557.205 135.047 556.709 135.394 556.214 135.79H561.116L560.521 136.236L561.858 138.76H558.294L559.927 141.731H560.373L560.819 142.473H560.67L562.155 145.444H563.641L564.532 146.929H553.095L554.284 149.157H564.68L565.571 150.642H562.304L563.492 152.87H578.196L579.829 155.841H570.027L571.215 158.068H566.611L568.987 162.524H570.027L570.918 164.009H570.473L570.918 164.752H563.938L565.571 167.722L565.868 168.465H561.264L562.007 170.099C562.304 170.495 562.452 170.94 562.452 171.435H565.571V171.733C565.571 172.822 565.126 173.713 564.235 174.406H568.245C567.75 174.802 567.106 175 566.314 175H535.867C535.273 175 534.728 174.951 534.233 174.851C533.837 174.653 533.391 174.505 532.896 174.406H528.886C528.094 174.01 527.401 173.515 526.807 172.921C526.312 172.327 525.916 171.832 525.619 171.435H522.648L522.351 170.99L521.311 168.465H526.064L525.619 167.722H511.509V168.465H503.934V171.435H515.965C515.767 172.822 515.123 173.812 514.034 174.406H512.994C512.301 174.802 511.558 175 510.766 175H481.656C480.765 175 480.072 174.802 479.576 174.406H480.765C479.675 173.812 479.032 172.822 478.834 171.435H466.952C466.952 171.336 466.952 171.287 466.952 171.287C466.853 171.188 466.803 171.089 466.803 170.99V168.465H474.378V167.722H489.23V164.752H473.339V164.009H482.695V162.524H479.576V160.296H484.775V158.068H476.309V155.841H487.745V152.87H481.21V150.642H481.062V149.9H480.171V149.157H476.16V146.929H481.21V145.444H479.874V142.473H480.022V141.731H479.576V138.76H483.141V135.79H478.091V133.562H476.16V130.592H489.23V128.364H473.19V125.393H472.893V122.423H475.121V119.452H478.537V117.967H474.378V115.739H481.656V114.254H492.349V112.769H477.646V112.026H478.388V111.284H479.725V110.541H479.874V109.056H479.576V106.828H480.171V103.858H479.428V102.372H480.171V100.144H479.576V99.4018H480.022V97.9166H479.874V97.174H479.279V96.4314H480.616V94.2035H481.804V91.9757H474.824V89.0052H476.457V86.0348H475.566V83.8069H479.576V81.5791H481.062V79.3512H478.388V77.866H479.428V77.1234H479.725V74.8955H480.022C480.022 73.8064 480.468 72.8162 481.359 71.9251H489.379C489.973 71.331 490.815 71.0339 491.904 71.0339H535.867C540.124 71.0339 544.085 71.331 547.749 71.9251H539.877C543.837 72.5192 547.6 73.5093 551.165 74.8955H550.867C552.551 75.4896 554.185 76.2322 555.769 77.1234H555.472L556.808 77.866H555.62C556.115 78.064 556.511 78.3116 556.808 78.6086C557.205 78.9057 557.601 79.1532 557.997 79.3512H560.67C561.165 79.7473 561.66 80.1433 562.155 80.5394C562.65 80.8365 563.096 81.183 563.492 81.5791H562.007C562.502 81.9751 562.898 82.3712 563.195 82.7673C563.591 83.0643 563.987 83.4109 564.383 83.8069H560.373C560.769 84.203 561.116 84.599 561.413 84.9951C561.71 85.2921 562.007 85.6387 562.304 86.0348H563.046C563.839 87.0249 564.532 88.0151 565.126 89.0052H563.641C563.938 89.4013 564.185 89.8964 564.383 90.4904C564.68 90.9855 564.977 91.4806 565.274 91.9757H572.255L573.146 94.2035H571.958C572.057 94.5996 572.156 94.9956 572.255 95.3917C572.453 95.6887 572.601 96.0353 572.7 96.4314H571.215L571.512 97.174H572.106C572.205 97.372 572.255 97.6195 572.255 97.9166L572.7 99.4018H573.146C573.146 99.6989 573.195 99.9464 573.294 100.144H573.443C573.542 100.541 573.591 100.937 573.591 101.333C573.69 101.63 573.74 101.976 573.74 102.372H571.809C571.809 102.57 571.809 102.818 571.809 103.115C571.809 103.412 571.859 103.659 571.958 103.858H572.849C572.849 104.353 572.849 104.848 572.849 105.343C572.948 105.838 572.997 106.333 572.997 106.828V108.313H573.889V109.056H572.997V110.541H571.512C571.512 110.64 571.463 110.739 571.364 110.838C571.364 110.937 571.364 111.086 571.364 111.284H572.849C572.849 111.383 572.799 111.482 572.7 111.581C572.7 111.68 572.7 111.828 572.7 112.026H579.681C579.582 112.224 579.532 112.472 579.532 112.769H581.463L581.315 114.254H574.483C574.285 114.848 574.186 115.343 574.186 115.739ZM514.776 112.769H529.48V114.254H518.787V114.403H529.629C530.322 114.403 530.866 114.353 531.262 114.254H538.095C539.184 113.957 540.174 113.462 541.065 112.769H538.986L539.728 112.026H532.748C533.045 111.729 533.243 111.482 533.342 111.284H531.857L532.302 110.541H533.787L534.233 109.056H534.976C535.075 108.858 535.124 108.61 535.124 108.313H534.233L534.381 106.828C534.381 105.838 534.233 104.848 533.936 103.858H533.045C532.946 103.659 532.847 103.412 532.748 103.115C532.748 102.818 532.649 102.57 532.451 102.372H534.53C534.134 101.58 533.589 100.838 532.896 100.144H532.599C532.302 99.8474 531.956 99.5999 531.56 99.4018H531.114C530.124 98.9067 529.084 98.6592 527.995 98.6592H517.153V99.4018H516.707V100.144H517.301V102.372H516.559V103.858H517.301V106.828H516.707V109.056H517.004V110.541H516.856V111.284H515.519V112.026H514.776V112.769ZM526.51 146.929L525.916 145.444H524.282L523.094 142.622H517.004V145.444H518.341V146.929H526.51ZM513.291 146.929V149.157H516.113L515.222 146.929H513.291ZM526.807 149.9L526.51 149.157H517.301V149.9H518.192V150.642H518.341V152.87H524.876V155.841H513.44V158.068H521.906V160.296H516.707V162.524H519.826V164.009H510.469V164.752H531.411L530.965 164.009H531.411L530.668 162.524H529.48L528.589 160.296L527.549 158.068H532.302L531.262 155.841H540.916L539.58 152.87H524.876L523.985 150.642H527.252L526.807 149.9Z" fill="#D9FE43"/>
<path d="M465.439 117.967H472.865V120.938H471.528V123.908H470.192V126.136H467.073V126.879H468.261V127.621H464.102V129.106H471.231V131.334H466.924V132.077H467.073C467.073 132.572 467.023 133.067 466.924 133.562C466.924 134.057 466.924 134.552 466.924 135.047H466.776C466.677 135.344 466.627 135.79 466.627 136.384V138.018H465.885C465.785 138.216 465.736 138.463 465.736 138.76C465.736 139.057 465.736 139.305 465.736 139.503H467.221L466.776 142.473H465.439C465.34 142.969 465.241 143.464 465.142 143.959C465.142 144.454 465.043 144.949 464.845 145.444H466.479C466.479 145.543 466.429 145.642 466.33 145.741C466.33 145.84 466.33 145.989 466.33 146.187H468.558C468.558 146.286 468.508 146.385 468.409 146.484C468.409 146.583 468.409 146.731 468.409 146.929H465.736C465.637 147.325 465.538 147.721 465.439 148.117C465.34 148.414 465.241 148.761 465.142 149.157H464.696L463.805 151.385H462.171C462.072 151.781 461.924 152.177 461.726 152.573C461.528 152.87 461.33 153.217 461.132 153.613H462.468C462.27 154.108 462.023 154.603 461.726 155.098H460.835C460.736 155.494 460.538 155.89 460.241 156.286C460.043 156.583 459.845 156.93 459.647 157.326H464.251L463.211 158.811H457.716L456.082 161.039H457.716L455.636 163.267H457.27C457.171 163.366 457.023 163.465 456.825 163.564C456.726 163.663 456.627 163.811 456.528 164.009H458.31C458.013 164.207 457.716 164.455 457.419 164.752C457.221 165.049 456.973 165.297 456.676 165.495H453.854C453.557 165.693 453.26 165.94 452.963 166.237C452.666 166.534 452.319 166.782 451.923 166.98H452.963C452.666 167.178 452.319 167.425 451.923 167.722C451.626 168.019 451.28 168.267 450.884 168.465H450.587C449.695 168.96 448.804 169.455 447.913 169.95C447.022 170.445 446.081 170.94 445.091 171.435H444.646C444.349 171.534 444.052 171.633 443.755 171.733C443.458 171.832 443.16 171.98 442.863 172.178C442.17 172.475 441.477 172.772 440.784 173.069C440.19 173.267 439.497 173.465 438.705 173.663H438.556C435.289 174.653 431.724 175.396 427.863 175.891H428.011C426.427 176.089 424.744 176.238 422.961 176.337C421.278 176.436 419.595 176.485 417.912 176.485C416.129 176.485 414.397 176.436 412.713 176.337C411.03 176.238 409.347 176.089 407.664 175.891C403.901 175.495 400.287 174.752 396.821 173.663H396.97C396.277 173.465 395.584 173.267 394.891 173.069C394.197 172.772 393.504 172.475 392.811 172.178H392.663C392.366 171.98 392.069 171.832 391.772 171.733C391.474 171.633 391.177 171.534 390.88 171.435H391.326C390.336 170.94 389.395 170.445 388.504 169.95C387.613 169.455 386.722 168.96 385.831 168.465H386.128L383.9 166.98H383.009C382.613 166.782 382.266 166.534 381.969 166.237C381.672 165.94 381.375 165.693 381.078 165.495H383.9L382.118 164.009H380.335C380.236 163.811 380.137 163.663 380.038 163.564C379.939 163.465 379.791 163.366 379.593 163.267H378.107C377.711 162.871 377.315 162.524 376.919 162.227C376.622 161.831 376.325 161.435 376.028 161.039H374.394L372.612 158.811H378.107L377.216 157.326H372.464C372.266 156.93 372.068 156.583 371.869 156.286C371.671 155.89 371.473 155.494 371.275 155.098H372.167C371.869 154.603 371.622 154.108 371.424 153.613H370.087C369.889 153.217 369.691 152.87 369.493 152.573C369.394 152.177 369.246 151.781 369.048 151.385H370.83L369.939 149.157H370.384C370.285 148.761 370.186 148.414 370.087 148.117C369.988 147.721 369.889 147.325 369.79 146.929H371.424C371.325 146.731 371.275 146.484 371.275 146.187H369.79C369.79 145.989 369.741 145.84 369.642 145.741C369.642 145.642 369.642 145.543 369.642 145.444H369.345C369.246 144.949 369.147 144.454 369.048 143.959C368.948 143.464 368.85 142.969 368.75 142.473H369.493C369.394 141.978 369.295 141.483 369.196 140.988C369.196 140.493 369.196 139.998 369.196 139.503H368.305L368.156 138.018H369.196V136.384C369.196 136.186 369.147 135.988 369.048 135.79C369.048 135.493 369.048 135.245 369.048 135.047H367.117C367.018 134.552 366.968 134.057 366.968 133.562C366.968 133.067 366.968 132.572 366.968 132.077H368.008V131.334H367.562V129.106H370.533V127.621H365.334V126.879H368.156V126.136H368.008V123.908H367.265V120.938H368.156V117.967H367.117V115.739H361.621V112.769H368.008C368.107 112.571 368.156 112.323 368.156 112.026H370.533V111.284H368.75V109.798H368.899L369.196 106.828H368.899C368.899 106.432 368.899 106.085 368.899 105.788C368.998 105.392 369.097 104.996 369.196 104.6H368.75C368.75 104.204 368.75 103.858 368.75 103.56C368.85 103.164 368.948 102.768 369.048 102.372H368.75C368.85 101.976 368.948 101.63 369.048 101.333C369.147 100.937 369.246 100.541 369.345 100.144H365.186C365.186 99.9464 365.186 99.7979 365.186 99.6989C365.285 99.5999 365.334 99.5008 365.334 99.4018H369.79L370.236 97.9166H369.939L370.236 97.174H372.464C372.563 96.9759 372.662 96.7284 372.761 96.4314C372.86 96.1343 372.959 95.8868 373.058 95.6887H371.572C371.869 94.7976 372.266 93.8075 372.761 92.7183H372.315C372.612 92.2232 372.86 91.7281 373.058 91.2331C373.355 90.639 373.652 90.1439 373.949 89.7478H374.394L374.84 89.0052H372.464L372.909 88.2626H375.285L375.731 87.52H375.434L377.216 85.2921H376.177L378.107 83.0643C378.603 82.5692 379.098 82.0741 379.593 81.5791C380.187 80.985 380.781 80.4899 381.375 80.0938H379.89L380.781 79.3512H379.147C379.345 79.1532 379.494 79.0047 379.593 78.9057C379.791 78.8066 379.989 78.7076 380.187 78.6086H383.9C384.296 78.4106 384.692 78.163 385.088 77.866C385.484 77.5689 385.88 77.3214 386.276 77.1234H386.722C387.712 76.6283 388.702 76.1332 389.692 75.6381C390.682 75.0441 391.673 74.549 392.663 74.1529H393.108C395.089 73.2618 397.267 72.5192 399.643 71.9251H400.386C403.257 71.133 406.277 70.5389 409.446 70.1428C412.614 69.7467 415.882 69.5487 419.248 69.5487C426.278 69.5487 432.516 70.3408 437.962 71.9251H437.071C438.16 72.2221 439.249 72.5687 440.339 72.9647C441.428 73.2618 442.467 73.6578 443.458 74.1529H442.863C443.953 74.549 444.943 75.0441 445.834 75.6381C446.824 76.1332 447.814 76.6283 448.804 77.1234H448.21L450.438 78.6086H446.725C446.923 78.7076 447.072 78.8066 447.171 78.9057C447.369 79.0047 447.567 79.1532 447.765 79.3512H449.398C449.596 79.4502 449.795 79.5493 449.993 79.6483C450.191 79.7473 450.339 79.8958 450.438 80.0938H451.923C452.517 80.4899 453.062 80.985 453.557 81.5791C454.151 82.0741 454.696 82.5692 455.191 83.0643H455.339C455.735 83.4604 456.082 83.8564 456.379 84.2525C456.676 84.5495 456.973 84.8961 457.27 85.2921H458.31L460.092 87.52H460.389C460.686 87.817 460.884 88.0646 460.983 88.2626H458.607L459.052 89.0052H461.577L462.023 89.7478H461.577C461.874 90.1439 462.122 90.639 462.32 91.2331C462.617 91.7281 462.914 92.2232 463.211 92.7183H463.657L464.993 95.6887H466.479L466.924 97.174H464.696L464.993 97.9166H465.29L465.736 99.4018H465.29C465.29 99.5008 465.29 99.5999 465.29 99.6989C465.389 99.7979 465.439 99.9464 465.439 100.144H459.201C459.399 100.541 459.498 100.937 459.498 101.333C459.597 101.63 459.696 101.976 459.795 102.372H467.518C467.617 102.768 467.667 103.164 467.667 103.56C467.766 103.858 467.815 104.204 467.815 104.6H465.736C465.835 104.996 465.885 105.392 465.885 105.788C465.984 106.085 466.033 106.432 466.033 106.828H467.964L468.261 109.798H466.33V110.244C466.33 110.343 466.33 110.492 466.33 110.69C466.429 110.888 466.479 111.086 466.479 111.284H470.489V112.026H466.924C467.023 112.224 467.073 112.472 467.073 112.769H469.746C469.845 113.264 469.895 113.759 469.895 114.254C469.895 114.749 469.895 115.244 469.895 115.739H465.439V117.967ZM432.912 120.938H434.249V117.967H426.823V115.739H431.279C431.279 115.244 431.279 114.749 431.279 114.254C431.279 113.759 431.229 113.264 431.13 112.769H428.457C428.457 112.571 428.407 112.422 428.308 112.323C428.308 112.224 428.308 112.125 428.308 112.026H431.873V111.284H427.863C427.863 111.086 427.813 110.937 427.714 110.838C427.714 110.739 427.714 110.64 427.714 110.541V109.798H429.496C429.496 109.303 429.447 108.808 429.348 108.313C429.348 107.719 429.298 107.224 429.199 106.828H427.269C427.169 106.432 427.07 106.085 426.971 105.788C426.872 105.392 426.724 104.996 426.526 104.6H428.605C428.308 103.808 427.912 103.065 427.417 102.372H419.694C419.199 101.58 418.407 100.838 417.318 100.144H423.555C422.961 99.7484 422.516 99.5008 422.219 99.4018H422.664C421.179 98.8077 419.545 98.5107 417.763 98.5107C415.981 98.5107 414.347 98.8077 412.862 99.4018H408.555C408.159 99.5008 407.663 99.7484 407.069 100.144H411.228C410.436 100.64 409.644 101.382 408.852 102.372H409.149C408.654 103.065 408.258 103.808 407.961 104.6H408.406C408.307 104.996 408.208 105.392 408.109 105.788C408.01 106.085 407.862 106.432 407.664 106.828H407.961C407.862 107.224 407.763 107.719 407.664 108.313C407.664 108.808 407.664 109.303 407.664 109.798H407.366V111.284H409.149V112.026H406.772V112.769H400.237V115.739H405.733V117.967H406.772V120.938H405.881V123.908H406.624V126.136H406.772C406.772 126.433 406.822 126.681 406.921 126.879H403.95V127.621H409.149V129.106H406.178V131.334H406.624V132.077H405.584C405.584 132.572 405.584 133.067 405.584 133.562C405.683 134.057 405.733 134.552 405.733 135.047H407.812V135.493C407.812 135.889 407.812 136.335 407.812 136.83C407.812 137.226 407.862 137.622 407.961 138.018H406.921C407.02 138.216 407.069 138.463 407.069 138.76C407.069 139.057 407.119 139.305 407.218 139.503H408.109C408.208 139.998 408.357 140.493 408.555 140.988C408.753 141.483 408.951 141.978 409.149 142.473H408.406C409 143.563 409.792 144.553 410.782 145.444H411.08C411.278 145.543 411.476 145.691 411.674 145.89C411.872 145.989 412.07 146.088 412.268 146.187H413.604C413.901 146.286 414.198 146.434 414.496 146.632C414.793 146.731 415.09 146.83 415.387 146.929H413.604C414.793 147.325 416.179 147.523 417.763 147.523C419.347 147.523 420.734 147.325 421.922 146.929H424.447C424.744 146.83 425.041 146.731 425.338 146.632C425.635 146.434 425.932 146.286 426.229 146.187H423.853C424.051 146.088 424.249 145.989 424.447 145.89C424.645 145.691 424.843 145.543 425.041 145.444H423.407C424.298 144.751 425.09 143.761 425.783 142.473H427.12C427.615 141.384 428.011 140.394 428.308 139.503H426.823C426.922 139.305 426.971 139.057 426.971 138.76C426.971 138.463 427.021 138.216 427.12 138.018H427.863C427.962 137.622 428.011 137.226 428.011 136.83C428.011 136.335 428.011 135.889 428.011 135.493V135.047H428.308C428.308 134.552 428.308 134.057 428.308 133.562C428.308 133.067 428.358 132.572 428.457 132.077H428.308V131.334H432.615V129.106H425.486V127.621H429.645V126.879H428.457V126.136H431.576V123.908H432.912V120.938Z" fill="#D9FE43"/>
<path d="M360.463 115.739H353.186C353.087 116.135 352.988 116.531 352.889 116.928C352.79 117.225 352.641 117.571 352.443 117.967H356.602L356.156 119.452H352.592C352.295 120.344 351.899 121.334 351.403 122.423H349.176C348.78 123.413 348.235 124.403 347.542 125.393H347.839C347.443 125.888 347.096 126.383 346.799 126.879C346.502 127.374 346.156 127.869 345.76 128.364H361.8L359.869 130.592H346.651C346.255 131.087 345.76 131.582 345.166 132.077C344.571 132.572 344.027 133.067 343.532 133.562H345.463C345.066 133.958 344.571 134.354 343.977 134.75C343.482 135.047 342.987 135.394 342.492 135.79H347.393L346.799 136.236L348.136 138.76H344.571L346.205 141.731H346.651L347.096 142.473H346.948L348.433 145.444H349.918L350.809 146.929H339.373L340.561 149.157H350.958L351.849 150.642H348.582L349.77 152.87H364.474L366.107 155.841H356.305L357.493 158.068H352.889L355.265 162.524H356.305L357.196 164.009H356.75L357.196 164.752H350.215L351.849 167.722L352.146 168.465H347.542L348.284 170.099C348.582 170.495 348.73 170.94 348.73 171.435H351.849V171.733C351.849 172.822 351.403 173.713 350.512 174.406H354.522C354.027 174.802 353.384 175 352.592 175H322.144C321.55 175 321.006 174.951 320.511 174.851C320.115 174.653 319.669 174.505 319.174 174.406H315.164C314.372 174.01 313.679 173.515 313.085 172.921C312.589 172.327 312.193 171.832 311.896 171.435H308.926L308.629 170.99L307.589 168.465H312.342L311.896 167.722H297.787V168.465H290.212V171.435H302.242C302.044 172.822 301.401 173.812 300.312 174.406H299.272C298.579 174.802 297.836 175 297.044 175H267.934C267.042 175 266.349 174.802 265.854 174.406H267.042C265.953 173.812 265.31 172.822 265.112 171.435H253.23C253.23 171.336 253.23 171.287 253.23 171.287C253.131 171.188 253.081 171.089 253.081 170.99V168.465H260.656V167.722H275.508V164.752H259.616V164.009H268.973V162.524H265.854V160.296H271.053V158.068H262.587V155.841H274.023V152.87H267.488V150.642H267.339V149.9H266.448V149.157H262.438V146.929H267.488V145.444H266.151V142.473H266.3V141.731H265.854V138.76H269.419V135.79H264.369V133.562H262.438V130.592H275.508V128.364H259.468V125.393H259.171V122.423H261.399V119.452H264.815V117.967H260.656V115.739H267.934V114.254H278.627V112.769H263.923V112.026H264.666V111.284H266.003V110.541H266.151V109.056H265.854V106.828H266.448V103.858H265.706V102.372H266.448V100.144H265.854V99.4018H266.3V97.9166H266.151V97.174H265.557V96.4314H266.894V94.2035H268.082V91.9757H261.102V89.0052H262.735V86.0348H261.844V83.8069H265.854V81.5791H267.339V79.3512H264.666V77.866H265.706V77.1234H266.003V74.8955H266.3C266.3 73.8064 266.745 72.8162 267.637 71.9251H275.657C276.251 71.331 277.092 71.0339 278.182 71.0339H322.144C326.402 71.0339 330.363 71.331 334.026 71.9251H326.155C330.115 72.5192 333.878 73.5093 337.442 74.8955H337.145C338.829 75.4896 340.462 76.2322 342.047 77.1234H341.749L343.086 77.866H341.898C342.393 78.064 342.789 78.3116 343.086 78.6086C343.482 78.9057 343.878 79.1532 344.274 79.3512H346.948C347.443 79.7473 347.938 80.1433 348.433 80.5394C348.928 80.8365 349.374 81.183 349.77 81.5791H348.284C348.78 81.9751 349.176 82.3712 349.473 82.7673C349.869 83.0643 350.265 83.4109 350.661 83.8069H346.651C347.047 84.203 347.393 84.599 347.69 84.9951C347.987 85.2921 348.284 85.6387 348.582 86.0348H349.324C350.116 87.0249 350.809 88.0151 351.403 89.0052H349.918C350.215 89.4013 350.463 89.8964 350.661 90.4904C350.958 90.9855 351.255 91.4806 351.552 91.9757H358.533L359.424 94.2035H358.236C358.335 94.5996 358.434 94.9956 358.533 95.3917C358.731 95.6887 358.879 96.0353 358.978 96.4314H357.493L357.79 97.174H358.384C358.483 97.372 358.533 97.6195 358.533 97.9166L358.978 99.4018H359.424C359.424 99.6989 359.473 99.9464 359.572 100.144H359.721C359.82 100.541 359.869 100.937 359.869 101.333C359.968 101.63 360.018 101.976 360.018 102.372H358.087C358.087 102.57 358.087 102.818 358.087 103.115C358.087 103.412 358.137 103.659 358.236 103.858H359.127C359.127 104.353 359.127 104.848 359.127 105.343C359.226 105.838 359.275 106.333 359.275 106.828V108.313H360.166V109.056H359.275V110.541H357.79C357.79 110.64 357.74 110.739 357.641 110.838C357.641 110.937 357.641 111.086 357.641 111.284H359.127C359.127 111.383 359.077 111.482 358.978 111.581C358.978 111.68 358.978 111.828 358.978 112.026H365.959C365.86 112.224 365.81 112.472 365.81 112.769H367.741L367.592 114.254H360.76C360.562 114.848 360.463 115.343 360.463 115.739ZM301.054 112.769H315.758V114.254H305.064V114.403H315.906C316.6 114.403 317.144 114.353 317.54 114.254H324.372C325.461 113.957 326.452 113.462 327.343 112.769H325.263L326.006 112.026H319.025C319.323 111.729 319.521 111.482 319.62 111.284H318.134L318.58 110.541H320.065L320.511 109.056H321.253C321.352 108.858 321.402 108.61 321.402 108.313H320.511L320.659 106.828C320.659 105.838 320.511 104.848 320.214 103.858H319.323C319.224 103.659 319.125 103.412 319.025 103.115C319.025 102.818 318.926 102.57 318.728 102.372H320.808C320.412 101.58 319.867 100.838 319.174 100.144H318.877C318.58 99.8474 318.233 99.5999 317.837 99.4018H317.392C316.402 98.9067 315.362 98.6592 314.273 98.6592H303.431V99.4018H302.985V100.144H303.579V102.372H302.836V103.858H303.579V106.828H302.985V109.056H303.282V110.541H303.134V111.284H301.797V112.026H301.054V112.769ZM312.788 146.929L312.193 145.444H310.56L309.371 142.622H303.282V145.444H304.619V146.929H312.788ZM299.569 146.929V149.157H302.391L301.5 146.929H299.569ZM313.085 149.9L312.788 149.157H303.579V149.9H304.47V150.642H304.619V152.87H311.154V155.841H299.717V158.068H308.183V160.296H302.985V162.524H306.104V164.009H296.747V164.752H317.689L317.243 164.009H317.689L316.946 162.524H315.758L314.867 160.296L313.827 158.068H318.58L317.54 155.841H327.194L325.858 152.87H311.154L310.263 150.642H313.53L313.085 149.9Z" fill="#D9FE43"/>
<path d="M254.763 115.739H247.485C247.386 116.135 247.287 116.531 247.188 116.928C247.089 117.225 246.94 117.571 246.742 117.967H250.901L250.455 119.452H246.891C246.594 120.344 246.198 121.334 245.703 122.423H243.475C243.079 123.413 242.534 124.403 241.841 125.393H242.138C241.742 125.888 241.396 126.383 241.098 126.879C240.801 127.374 240.455 127.869 240.059 128.364H256.099L254.169 130.592H240.95C240.554 131.087 240.059 131.582 239.465 132.077C238.871 132.572 238.326 133.067 237.831 133.562H239.762C239.366 133.958 238.871 134.354 238.277 134.75C237.781 135.047 237.286 135.394 236.791 135.79H241.693L241.098 136.236L242.435 138.76H238.871L240.504 141.731H240.95L241.396 142.473H241.247L242.732 145.444H244.217L245.109 146.929H233.672L234.861 149.157H245.257L246.148 150.642H242.881L244.069 152.87H258.773L260.406 155.841H250.604L251.792 158.068H247.188L249.564 162.524H250.604L251.495 164.009H251.05L251.495 164.752H244.515L246.148 167.722L246.445 168.465H241.841L242.584 170.099C242.881 170.495 243.029 170.94 243.029 171.435H246.148V171.733C246.148 172.822 245.703 173.713 244.812 174.406H248.822C248.327 174.802 247.683 175 246.891 175H216.444C215.85 175 215.305 174.951 214.81 174.851C214.414 174.653 213.968 174.505 213.473 174.406H209.463C208.671 174.01 207.978 173.515 207.384 172.921C206.889 172.327 206.493 171.832 206.196 171.435H203.225L202.928 170.99L201.888 168.465H206.641L206.196 167.722H192.086V168.465H184.511V171.435H196.542C196.344 172.822 195.7 173.812 194.611 174.406H193.571C192.878 174.802 192.135 175 191.343 175H162.233C161.342 175 160.649 174.802 160.153 174.406H161.342C160.252 173.812 159.609 172.822 159.411 171.435H147.529C147.529 171.336 147.529 171.287 147.529 171.287C147.43 171.188 147.38 171.089 147.38 170.99V168.465H154.955V167.722H169.807V164.752H153.916V164.009H163.272V162.524H160.153V160.296H165.352V158.068H156.886V155.841H168.322V152.87H161.787V150.642H161.639V149.9H160.748V149.157H156.737V146.929H161.787V145.444H160.451V142.473H160.599V141.731H160.153V138.76H163.718V135.79H158.668V133.562H156.737V130.592H169.807V128.364H153.767V125.393H153.47V122.423H155.698V119.452H159.114V117.967H154.955V115.739H162.233V114.254H172.926V112.769H158.223V112.026H158.965V111.284H160.302V110.541H160.451V109.056H160.153V106.828H160.748V103.858H160.005V102.372H160.748V100.144H160.153V99.4018H160.599V97.9166H160.451V97.174H159.856V96.4314H161.193V94.2035H162.381V91.9757H155.401V89.0052H157.034V86.0348H156.143V83.8069H160.153V81.5791H161.639V79.3512H158.965V77.866H160.005V77.1234H160.302V74.8955H160.599C160.599 73.8064 161.045 72.8162 161.936 71.9251H169.956C170.55 71.331 171.392 71.0339 172.481 71.0339H216.444C220.701 71.0339 224.662 71.331 228.326 71.9251H220.454C224.414 72.5192 228.177 73.5093 231.742 74.8955H231.444C233.128 75.4896 234.762 76.2322 236.346 77.1234H236.049L237.385 77.866H236.197C236.692 78.064 237.088 78.3116 237.385 78.6086C237.781 78.9057 238.178 79.1532 238.574 79.3512H241.247C241.742 79.7473 242.237 80.1433 242.732 80.5394C243.227 80.8365 243.673 81.183 244.069 81.5791H242.584C243.079 81.9751 243.475 82.3712 243.772 82.7673C244.168 83.0643 244.564 83.4109 244.96 83.8069H240.95C241.346 84.203 241.693 84.599 241.99 84.9951C242.287 85.2921 242.584 85.6387 242.881 86.0348H243.623C244.415 87.0249 245.109 88.0151 245.703 89.0052H244.217C244.515 89.4013 244.762 89.8964 244.96 90.4904C245.257 90.9855 245.554 91.4806 245.851 91.9757H252.832L253.723 94.2035H252.535C252.634 94.5996 252.733 94.9956 252.832 95.3917C253.03 95.6887 253.178 96.0353 253.277 96.4314H251.792L252.089 97.174H252.683C252.782 97.372 252.832 97.6195 252.832 97.9166L253.277 99.4018H253.723C253.723 99.6989 253.772 99.9464 253.871 100.144H254.02C254.119 100.541 254.169 100.937 254.169 101.333C254.268 101.63 254.317 101.976 254.317 102.372H252.386C252.386 102.57 252.386 102.818 252.386 103.115C252.386 103.412 252.436 103.659 252.535 103.858H253.426C253.426 104.353 253.426 104.848 253.426 105.343C253.525 105.838 253.574 106.333 253.574 106.828V108.313H254.466V109.056H253.574V110.541H252.089C252.089 110.64 252.04 110.739 251.941 110.838C251.941 110.937 251.941 111.086 251.941 111.284H253.426C253.426 111.383 253.376 111.482 253.277 111.581C253.277 111.68 253.277 111.828 253.277 112.026H260.258C260.159 112.224 260.109 112.472 260.109 112.769H262.04L261.892 114.254H255.06C254.862 114.848 254.763 115.343 254.763 115.739ZM195.353 112.769H210.057V114.254H199.364V114.403H210.206C210.899 114.403 211.443 114.353 211.839 114.254H218.672C219.761 113.957 220.751 113.462 221.642 112.769H219.563L220.305 112.026H213.325C213.622 111.729 213.82 111.482 213.919 111.284H212.434L212.879 110.541H214.364L214.81 109.056H215.553C215.652 108.858 215.701 108.61 215.701 108.313H214.81L214.958 106.828C214.958 105.838 214.81 104.848 214.513 103.858H213.622C213.523 103.659 213.424 103.412 213.325 103.115C213.325 102.818 213.226 102.57 213.028 102.372H215.107C214.711 101.58 214.166 100.838 213.473 100.144H213.176C212.879 99.8474 212.533 99.5999 212.137 99.4018H211.691C210.701 98.9067 209.661 98.6592 208.572 98.6592H197.73V99.4018H197.284V100.144H197.878V102.372H197.136V103.858H197.878V106.828H197.284V109.056H197.581V110.541H197.433V111.284H196.096V112.026H195.353V112.769ZM207.087 146.929L206.493 145.444H204.859L203.671 142.622H197.581V145.444H198.918V146.929H207.087ZM193.868 146.929V149.157H196.69L195.799 146.929H193.868ZM207.384 149.9L207.087 149.157H197.878V149.9H198.769V150.642H198.918V152.87H205.453V155.841H194.017V158.068H202.483V160.296H197.284V162.524H200.403V164.009H191.046V164.752H211.988L211.542 164.009H211.988L211.245 162.524H210.057L209.166 160.296L208.126 158.068H212.879L211.839 155.841H221.493L220.157 152.87H205.453L204.562 150.642H207.829L207.384 149.9Z" fill="#D9FE43"/>
<path d="M156.442 149.157H168.175V151.385H145.599V154.355H160.155V157.326H147.382V160.296H149.015V162.524H147.976V164.009H144.857V165.495H144.708V166.98H147.827V169.95H152.134V170.99C152.134 171.188 152.085 171.336 151.986 171.435H125.549C125.45 171.633 125.4 171.881 125.4 172.178H135.648C135.351 173.168 134.807 173.911 134.015 174.406H131.193C130.698 174.802 130.004 175 129.113 175H51.7329C50.9407 175 50.1981 174.802 49.505 174.406H52.327C51.6338 173.911 51.0893 173.168 50.6932 172.178H40.2966C40.1976 171.98 40.1481 171.733 40.1481 171.435H66.7337V169.95H62.4265V166.98H59.3075V165.495H59.4561V164.009H62.575V162.524H63.6147V160.296H61.9809V157.326H74.7539V154.355H60.1987V151.385H82.7742V149.157H71.0408V147.672H74.4569V146.187H75.9421V144.701H59.4561V143.216H55.5945V140.988H69.4071V140.246H58.4164V138.76H61.6839V137.275H64.0603V135.047H63.7632V132.077H62.278V129.106H60.0501V127.621H61.8324V124.651H60.1987V123.165H62.575V120.938H63.1691V118.71H65.8425V117.967H63.3177V114.997H61.0898V112.769H61.6839V110.541H61.9809V107.571H64.2088V104.6H60.9413V101.63H61.3869V98.6592H65.5455V96.4314H63.3177V94.2035H62.1295V93.4609H68.3674V91.2331H79.3581V89.7478H74.9024V88.2626H60.4957V87.52H62.1295V85.2921H62.278V83.0643H62.7236V80.0938H62.575V76.3808H62.278V75.0441C62.278 74.648 62.3275 74.3509 62.4265 74.1529H60.9413C61.3373 72.0736 62.6245 71.0339 64.8029 71.0339H140.995C143.273 71.0339 144.56 72.0736 144.857 74.1529H146.342C146.441 74.3509 146.491 74.648 146.491 75.0441V76.3808H146.788V80.0938H146.936V83.0643H146.491V85.2921H146.342V87.52H144.708V88.2626H159.115V89.7478H163.571V91.2331H152.58V93.4609H146.342V94.2035H147.53V96.4314H149.758C149.56 97.4215 149.213 98.1641 148.718 98.6592H144.56C143.867 99.5503 142.876 99.9959 141.589 99.9959H97.0324V101.63H96.5868V104.6H99.8543V107.571H97.6265V109.353H138.916C140.005 109.353 140.946 109.749 141.738 110.541H141.441C141.936 111.036 142.282 111.779 142.48 112.769H142.035V114.997H144.263V117.967H146.788V118.71H144.114V120.938H143.52V123.165H141.144V124.651H142.777V127.621H140.995V129.106H143.223V132.077H144.708V132.671C144.708 133.76 144.461 134.552 143.966 135.047H144.263C143.471 136.137 142.381 136.681 140.995 136.681H99.7058V137.275H97.3294V138.76H94.0619V140.246H105.053V140.988H91.24V143.216H95.1016V144.701H111.588V146.038H157.333C157.828 146.038 158.224 146.088 158.521 146.187H156.887C157.877 146.484 158.62 146.979 159.115 147.672H155.699C156.095 148.266 156.343 148.761 156.442 149.157Z" fill="#D9FE43"/>
</svg>
