<svg width="182" height="44" viewBox="0 0 182 44" fill="none" xmlns="http://www.w3.org/2000/svg">
<path d="M30.785 10.6991C32.3927 10.6991 33.7902 10.9905 34.9758 11.5732C36.1611 12.1358 37.0653 12.9294 37.6882 13.954C38.3312 14.9787 38.6631 16.1648 38.6832 17.511H35.0658C34.9853 16.3859 34.5631 15.5114 33.7996 14.8885C33.036 14.2457 32.051 13.9244 30.8455 13.9244H30.5447C29.761 13.9244 29.0675 14.0553 28.4647 14.3165C27.8619 14.5577 27.3992 14.899 27.0776 15.3411C26.7561 15.7832 26.5956 16.2661 26.5956 16.7886C26.5957 17.5319 26.8169 18.1149 27.2589 18.5369C27.701 18.9586 28.3841 19.2597 29.308 19.4406L32.5642 20.0743C34.4327 20.4561 35.859 21.139 36.8436 22.1234C37.8484 23.1081 38.3516 24.4449 38.3516 26.1329C38.3515 27.3584 38.0302 28.4435 37.3875 29.3878C36.7646 30.3322 35.8497 31.0756 34.6442 31.6182C33.4384 32.1407 32.0207 32.4023 30.3929 32.4023C28.5846 32.4023 27.0572 32.1109 25.8114 31.5282C24.5858 30.9455 23.6412 30.1116 22.9781 29.0266C22.3351 27.9415 21.983 26.6451 21.9227 25.1379H25.5402C25.5804 26.3838 26.0431 27.3686 26.9272 28.092C27.8315 28.8154 29.0578 29.177 30.6051 29.177H30.9059C32.1116 29.177 33.0464 28.9059 33.7096 28.3633C34.3927 27.8208 34.7341 27.1475 34.7341 26.3438C34.7341 25.6203 34.5237 25.047 34.1017 24.625C33.6797 24.1829 32.9659 23.8618 31.9613 23.6609L28.3734 22.9371C26.5651 22.5553 25.209 21.8619 24.3048 20.8572C23.4206 19.8524 22.9781 18.5358 22.9781 16.9081C22.9783 15.8032 23.29 14.7787 23.9127 13.8345C24.5356 12.8901 25.4397 12.1359 26.6251 11.5732C27.8107 10.9905 29.1977 10.6991 30.785 10.6991Z" fill="white"/>
<path d="M113.943 24.1738C113.943 25.8616 114.306 27.1178 115.029 27.9417C115.773 28.7652 116.878 29.177 118.345 29.177H118.645C120.112 29.177 121.208 28.7653 121.931 27.9417C122.675 27.1178 123.047 25.8616 123.047 24.1738V11.0012H126.664V24.6559C126.664 27.0873 125.971 28.9868 124.584 30.3533C123.218 31.7197 121.188 32.4023 118.495 32.4023C116.666 32.4023 115.139 32.0907 113.913 31.4678C112.708 30.8449 111.804 29.961 111.201 28.8158C110.618 27.6503 110.327 26.2634 110.327 24.6559V11.0012H113.943V24.1738Z" fill="white"/>
<path fill-rule="evenodd" clip-rule="evenodd" d="M21.0392 32.1016H17.2418L15.2505 26.9467H5.86987L3.88794 32.1016H0.120117L8.46948 11.0012H12.8402L21.0392 32.1016ZM7.12268 23.6904H13.9923L10.5494 14.7784L7.12268 23.6904Z" fill="white"/>
<path d="M58.2877 14.2266H50.8729V32.1016H47.2555V14.2266H39.8702V11.0012H58.2877V14.2266Z" fill="white"/>
<path d="M77.1121 14.2266H64.9935V19.6514H75.3033V22.8767H64.9935V28.8762H77.4128V32.1016H61.3774V11.0012H77.1121V14.2266Z" fill="white"/>
<path fill-rule="evenodd" clip-rule="evenodd" d="M90.6835 11.0012C91.9092 11.0013 93.0142 11.2522 93.9988 11.7545C95.0034 12.2368 95.7873 12.9195 96.35 13.8036C96.9327 14.6677 97.2241 15.643 97.2241 16.7281C97.2241 17.6323 97.0339 18.4567 96.6521 19.2002C96.2703 19.9436 95.7873 20.5562 95.2046 21.0385C94.6218 21.5006 94.0188 21.8217 93.3959 22.0026C93.8983 22.0227 94.2908 22.1238 94.5721 22.3047C94.8731 22.4854 95.1138 22.7464 95.2946 23.0875C95.4754 23.4291 95.6765 23.942 95.8975 24.625V24.6559L98.2795 32.1016H94.5117L92.4922 25.8617C92.3314 25.3392 92.1696 24.9467 92.0088 24.6854C91.8481 24.4245 91.6374 24.2339 91.3763 24.1134C91.1352 23.9929 90.7938 23.9322 90.3518 23.9321H84.8048V32.1016H81.1874V11.0012H90.6835ZM84.8048 20.7363H89.7784C90.6023 20.7363 91.2958 20.596 91.8584 20.3147C92.4411 20.0334 92.8742 19.6421 93.1555 19.1398C93.457 18.6374 93.6067 18.0438 93.6067 17.3606C93.6066 16.3157 93.2748 15.5318 92.6117 15.0094C91.9686 14.4872 91.0241 14.2266 89.7784 14.2266H84.8048V20.7363Z" fill="white"/>
<path d="M105.352 32.1016H101.734V11.0012H105.352V32.1016Z" fill="white"/>
<path d="M143.125 28.2908L148.705 11.0012H154.432V32.1016H150.875V14.6334L145.208 32.1016H140.988L135.2 14.7073V32.1016H131.614V11.0012H137.401L143.125 28.2908Z" fill="white"/>
<rect x="161.758" y="0.6875" width="19.0971" height="19.0971" rx="4.70303" fill="white"/>
<rect x="161.758" y="0.6875" width="19.0971" height="19.0971" rx="4.70303" fill="url(#paint0_linear_8001_6211)"/>
<path d="M172.866 6.34692L172.854 6.32499L172.854 6.32498C172.735 6.0919 172.602 5.83372 172.464 5.64103C172.32 5.43933 171.989 5.04986 171.414 5.05042C170.84 5.05097 170.509 5.44108 170.365 5.64305C170.228 5.83601 170.096 6.09444 169.976 6.32774L169.976 6.32776L169.954 6.37089L165.344 15.3785H167.423L171.417 7.57693L174.182 12.9549H170.256L169.33 14.806H174.525L174.569 14.806H174.569C174.792 14.8062 175.051 14.8063 175.265 14.7745C175.506 14.7387 175.941 14.6286 176.208 14.1909C176.475 13.7532 176.374 13.3165 176.296 13.0856C176.226 12.8804 176.107 12.6499 176.005 12.4521L176.005 12.4521L175.985 12.4129L172.876 6.36807L172.866 6.34692Z" fill="#2D4801"/>
<defs>
<linearGradient id="paint0_linear_8001_6211" x1="171.306" y1="0.6875" x2="171.306" y2="26.5276" gradientUnits="userSpaceOnUse">
<stop offset="0.403846" stop-color="#D9FE43"/>
<stop offset="1" stop-color="#ABD20D"/>
</linearGradient>
</defs>
</svg>
