<svg width="203" height="32" viewBox="0 0 203 32" fill="none" xmlns="http://www.w3.org/2000/svg">
<path d="M196.31 11.9649C196.957 10.9733 197.765 10.1973 198.734 9.63689C199.704 9.05488 200.781 8.76388 201.966 8.76388V14.6163H200.447C199.068 14.6163 198.034 14.918 197.344 15.5216C196.655 16.1036 196.31 17.1383 196.31 18.6256V27H190.784V8.95788H196.31V11.9649Z" fill="white"/>
<path d="M178.738 27.2587C176.971 27.2587 175.377 26.8814 173.955 26.127C172.554 25.3725 171.445 24.2948 170.626 22.8936C169.829 21.4925 169.43 19.8543 169.43 17.9789C169.43 16.1251 169.84 14.4977 170.658 13.0966C171.477 11.6739 172.598 10.5853 174.02 9.83089C175.442 9.07644 177.036 8.69921 178.803 8.69921C180.569 8.69921 182.164 9.07644 183.586 9.83089C185.008 10.5853 186.128 11.6739 186.947 13.0966C187.766 14.4977 188.175 16.1251 188.175 17.9789C188.175 19.8327 187.755 21.471 186.915 22.8936C186.096 24.2948 184.965 25.3725 183.521 26.127C182.099 26.8814 180.505 27.2587 178.738 27.2587ZM178.738 22.4733C179.794 22.4733 180.688 22.0853 181.421 21.3093C182.175 20.5333 182.552 19.4232 182.552 17.9789C182.552 16.5347 182.185 15.4246 181.453 14.6486C180.742 13.8726 179.858 13.4846 178.803 13.4846C177.725 13.4846 176.831 13.8726 176.12 14.6486C175.409 15.403 175.054 16.5132 175.054 17.9789C175.054 19.4232 175.399 20.5333 176.088 21.3093C176.799 22.0853 177.682 22.4733 178.738 22.4733Z" fill="white"/>
<path d="M154.444 11.5122C154.961 10.6716 155.704 9.99255 156.674 9.47522C157.643 8.95788 158.753 8.69921 160.003 8.69921C161.489 8.69921 162.836 9.07644 164.043 9.83089C165.249 10.5853 166.197 11.6631 166.887 13.0642C167.598 14.4654 167.953 16.0928 167.953 17.9466C167.953 19.8004 167.598 21.4386 166.887 22.8613C166.197 24.2624 165.249 25.351 164.043 26.127C162.836 26.8814 161.489 27.2587 160.003 27.2587C158.732 27.2587 157.622 27.0108 156.674 26.515C155.726 25.9977 154.983 25.3187 154.444 24.478V27H148.917V3.07318H154.444V11.5122ZM162.33 17.9466C162.33 16.567 161.942 15.4893 161.166 14.7133C160.412 13.9157 159.475 13.5169 158.354 13.5169C157.256 13.5169 156.318 13.9157 155.543 14.7133C154.789 15.5108 154.412 16.5994 154.412 17.9789C154.412 19.3585 154.789 20.4471 155.543 21.2446C156.318 22.0422 157.256 22.441 158.354 22.441C159.453 22.441 160.391 22.0422 161.166 21.2446C161.942 20.4255 162.33 19.3262 162.33 17.9466Z" fill="white"/>
<path d="M140.943 11.9649C141.59 10.9733 142.398 10.1973 143.367 9.63689C144.337 9.05488 145.414 8.76388 146.599 8.76388V14.6163H145.08C143.701 14.6163 142.667 14.918 141.978 15.5216C141.288 16.1036 140.943 17.1383 140.943 18.6256V27H135.417V8.95788H140.943V11.9649Z" fill="white"/>
<path d="M112.706 17.9466C112.706 16.0928 113.051 14.4654 113.741 13.0642C114.452 11.6631 115.41 10.5853 116.617 9.83089C117.823 9.07644 119.17 8.69921 120.657 8.69921C121.928 8.69921 123.038 8.95788 123.986 9.47522C124.955 9.99255 125.698 10.6716 126.215 11.5122V8.95788H131.742V27H126.215V24.4456C125.677 25.2863 124.923 25.9653 123.953 26.4827C123.005 27 121.896 27.2587 120.624 27.2587C119.159 27.2587 117.823 26.8814 116.617 26.127C115.41 25.351 114.452 24.2624 113.741 22.8613C113.051 21.4386 112.706 19.8004 112.706 17.9466ZM126.215 17.9789C126.215 16.5994 125.828 15.5108 125.052 14.7133C124.298 13.9157 123.371 13.5169 122.273 13.5169C121.174 13.5169 120.237 13.9157 119.461 14.7133C118.707 15.4893 118.33 16.567 118.33 17.9466C118.33 19.3262 118.707 20.4255 119.461 21.2446C120.237 22.0422 121.174 22.441 122.273 22.441C123.371 22.441 124.298 22.0422 125.052 21.2446C125.828 20.4471 126.215 19.3585 126.215 17.9789Z" fill="white"/>
<path d="M110.139 4.30185V27H104.612V17.6556H96.0157V27H90.4892V4.30185H96.0157V13.1936H104.612V4.30185H110.139Z" fill="white"/>
<path d="M80.0236 8.76388C82.135 8.76388 83.8156 9.45366 85.0653 10.8332C86.3364 12.1912 86.972 14.0666 86.972 16.4593V27H81.4779V17.2029C81.4779 15.9958 81.1655 15.0581 80.5407 14.3899C79.9158 13.7217 79.0756 13.3876 78.0198 13.3876C76.9641 13.3876 76.1238 13.7217 75.499 14.3899C74.8742 15.0581 74.5618 15.9958 74.5618 17.2029V27H69.0353V8.95788H74.5618V11.3506C75.1219 10.553 75.876 9.92789 76.824 9.47522C77.7721 9.00099 78.8386 8.76388 80.0236 8.76388Z" fill="white"/>
<path d="M62.6064 7.08253C61.6369 7.08253 60.8397 6.80231 60.2149 6.24186C59.6116 5.65986 59.31 4.94852 59.31 4.10785C59.31 3.24562 59.6116 2.53428 60.2149 1.97384C60.8397 1.39183 61.6369 1.10083 62.6064 1.10083C63.5545 1.10083 64.3301 1.39183 64.9334 1.97384C65.5582 2.53428 65.8706 3.24562 65.8706 4.10785C65.8706 4.94852 65.5582 5.65986 64.9334 6.24186C64.3301 6.80231 63.5545 7.08253 62.6064 7.08253ZM65.3535 8.95788V27H59.8271V8.95788H65.3535Z" fill="white"/>
<path d="M57.2456 4.30185V8.73155H48.0025V13.5169H54.9187V17.8173H48.0025V27H42.4761V4.30185H57.2456Z" fill="white"/>
<path d="M6.40392 9.43033L10.9435 9.43033V21.9227C10.3375 21.6583 9.76208 21.3198 9.23099 20.9121C7.799 19.8128 6.7696 18.2714 6.30243 16.5271L0 18.2167C0.838911 21.349 2.68747 24.1168 5.25897 26.0909C7.83047 28.065 10.9812 29.1351 14.2225 29.1351C17.4638 29.1351 20.6145 28.065 23.186 26.0909C25.7575 24.1168 27.6061 21.349 28.445 18.2167L22.1426 16.5271C21.6754 18.2714 20.646 19.8128 19.214 20.9121C18.683 21.3197 18.1077 21.6581 17.5018 21.9226V9.43033L22.0415 9.43033V2.86548H6.40392L6.40392 9.43033Z" fill="url(#paint0_linear_995_2507)"/>
<defs>
<linearGradient id="paint0_linear_995_2507" x1="-2.24227e-09" y1="25.1548" x2="20.2905" y2="24.6965" gradientUnits="userSpaceOnUse">
<stop stop-color="#0094FF"/>
<stop offset="1" stop-color="#23B7FF"/>
</linearGradient>
</defs>
</svg>
