<svg width="52" height="20" viewBox="0 0 52 20" fill="none" xmlns="http://www.w3.org/2000/svg">
<path d="M7.66836 9.9869V7.90502H8.39624C8.39624 7.90502 9.44473 7.94858 9.53138 8.67157C9.54871 8.72384 9.54871 9.08098 9.53138 9.0984C9.39274 9.94335 8.48289 9.9869 8.48289 9.9869H7.66836Z" fill="#99A1A6"/>
<path fill-rule="evenodd" clip-rule="evenodd" d="M27.8327 7.49129L24.4879 0L0 1.39373L6.78487 20L19.8434 15.8624C19.4741 15.3288 19.209 14.7506 19.1125 14.2116L19.0978 14.2116L19.0907 14.2117L19.0812 14.2118L19.0667 14.2122C19.0532 14.2125 19.0364 14.2129 19.0167 14.2134L18.9777 14.2145C18.7039 14.2221 18.0532 14.2401 17.6854 14.2116C13.1015 13.9242 13.1015 10.6402 13.1015 10.5444V9.76042C13.1015 9.62105 13.2661 6.40676 17.6854 6.04962C17.9713 6.00607 19.0371 6.01478 19.0978 6.04962C20.3109 6.11931 20.7095 6.38063 20.7095 6.38063C20.7355 6.39805 20.7528 6.42418 20.7528 6.45032V8.47122C20.7528 8.49736 20.7355 8.50607 20.7095 8.49735C20.7095 8.49735 19.999 8.06182 19.1238 7.94858H18.3699C16.3682 8.12279 16.2296 9.73429 16.2296 9.73429C16.2209 9.75171 16.2209 9.79527 16.2209 9.8214V10.3963C16.2209 10.4137 16.2296 10.4573 16.2296 10.4834C16.2296 10.4834 16.3249 11.9817 18.3699 12.3301C18.5172 12.3562 18.7165 12.3737 19.1238 12.3301C20.5622 12.182 20.8915 11.9207 20.8915 11.9207C20.9088 11.9033 20.9261 11.912 20.9261 11.9381V12.2721C21.3501 12.3439 21.7903 12.5442 22.2086 12.829V6.17157H25.2414V11.1444C26.3134 9.59466 27.4524 8.01302 27.8327 7.49129ZM23.725 5.41373C24.7475 5.41373 25.5794 4.62976 25.5794 3.65415C25.5794 2.67854 24.7475 1.89457 23.725 1.89457C22.7025 1.89457 21.8707 2.67854 21.8707 3.65415C21.8707 4.62105 22.7025 5.41373 23.725 5.41373ZM4.72219 14.1594C4.69619 14.1594 4.67886 14.142 4.67886 14.1158V6.21512C4.67886 6.18899 4.69619 6.17157 4.72219 6.17157H8.55221C9.52272 6.12802 12.4862 6.39805 12.4862 8.91547C12.4862 12.0949 7.76368 11.7552 7.76368 11.7552C7.73769 11.7552 7.72035 11.7726 7.72035 11.7987V14.1158C7.72035 14.142 7.70302 14.1594 7.67702 14.1594H4.72219Z" fill="#99A1A6"/>
<path d="M30.1203 12.6045L28.4133 13.1446C28.7512 12.5436 29.1585 11.8815 29.5657 11.3676L30.1203 12.6045Z" fill="#99A1A6"/>
<path fill-rule="evenodd" clip-rule="evenodd" d="M36.4892 10.453C36.3159 10.6272 36.2293 10.8711 36.2293 11.1847C36.2293 11.4112 36.264 11.5767 36.3593 11.7335C36.4546 11.8902 36.5672 11.9948 36.7059 12.0645C36.8532 12.1341 37.0265 12.169 37.2431 12.169C37.4511 12.169 37.6331 12.1254 37.7717 12.047C37.919 11.9686 38.023 11.8554 38.101 11.716C38.179 11.5767 38.2136 11.3937 38.2136 11.1672C38.2136 10.8537 38.127 10.6185 37.9537 10.4443C37.7804 10.2787 37.5377 10.1916 37.2171 10.1916C36.9052 10.1916 36.6625 10.2787 36.4892 10.453ZM36.9225 11.6028C36.8532 11.5157 36.8185 11.3763 36.8185 11.1847C36.8185 10.993 36.8532 10.8537 36.9225 10.784C36.9918 10.6969 37.0871 10.6533 37.2085 10.6533C37.3298 10.6533 37.4338 10.6882 37.5031 10.7753C37.5811 10.8537 37.6157 10.9843 37.6157 11.1672C37.6157 11.3763 37.5811 11.5244 37.5117 11.6115C37.4424 11.6899 37.3471 11.7335 37.2171 11.7335C37.0871 11.7335 36.9918 11.6899 36.9225 11.6028Z" fill="#99A1A6"/>
<path d="M36.0213 11.5157L35.5014 11.3589C35.4754 11.4808 35.4321 11.5679 35.3628 11.6463C35.3108 11.7073 35.2241 11.7422 35.1115 11.7422C34.9988 11.7422 34.9035 11.6986 34.8429 11.6202C34.7822 11.5418 34.7475 11.3937 34.7475 11.1847C34.7475 11.0192 34.7735 10.8885 34.8255 10.8101C34.8948 10.6969 34.9988 10.6446 35.1288 10.6446C35.1808 10.6446 35.2328 10.6533 35.2848 10.6794C35.3368 10.7056 35.3714 10.7404 35.4061 10.784C35.4321 10.8101 35.4494 10.8537 35.4667 10.9146L35.9867 10.8014C35.926 10.5923 35.822 10.4443 35.6834 10.3484C35.5447 10.2526 35.3628 10.2003 35.1201 10.2003C34.8169 10.2003 34.5742 10.2787 34.4096 10.453C34.2449 10.6272 34.1583 10.8711 34.1583 11.1847C34.1583 11.4199 34.2103 11.6202 34.3056 11.7683C34.4009 11.9251 34.5136 12.0296 34.6435 12.0906C34.7822 12.1516 34.9468 12.1777 35.1548 12.1777C35.3281 12.1777 35.4667 12.1516 35.5794 12.0993C35.692 12.0558 35.7787 11.9774 35.8567 11.8815C35.9347 11.7857 35.9867 11.6638 36.0213 11.5157Z" fill="#99A1A6"/>
<path d="M39.2881 10.2265L39.5827 11.3937L39.8773 10.2265H40.6485V12.1429H40.1633V10.6794L39.7907 12.1429H39.3574L38.9848 10.6794V12.1429H38.4996V10.2265H39.2881Z" fill="#99A1A6"/>
<path fill-rule="evenodd" clip-rule="evenodd" d="M42.009 10.2265H41.0298V12.1516H41.6191V11.4373H41.9397C42.1736 11.4373 42.3556 11.385 42.4682 11.2718C42.5809 11.1672 42.6416 11.0105 42.6416 10.8188C42.6416 10.6272 42.5896 10.4878 42.4856 10.3833C42.3816 10.2787 42.2256 10.2265 42.009 10.2265ZM41.7664 11.0453H41.6277V10.6185H41.7924C41.905 10.6185 41.9743 10.6359 42.0177 10.6794C42.061 10.723 42.0783 10.7753 42.0783 10.8362C42.0783 10.8972 42.0523 10.9408 42.009 10.9843C41.957 11.0279 41.879 11.0453 41.7664 11.0453Z" fill="#99A1A6"/>
<path d="M42.9535 10.2265H43.5427V11.6725H44.4612V12.1429H42.9535V10.2265Z" fill="#99A1A6"/>
<path d="M45.3451 10.2265H44.7559V12.1429H45.3451V10.2265Z" fill="#99A1A6"/>
<path fill-rule="evenodd" clip-rule="evenodd" d="M46.9395 11.8206H46.2723L46.177 12.1341H45.5791L46.2983 10.2178H46.9395L47.6587 12.1341H47.0435L46.9395 11.8206ZM46.8182 11.4112L46.6102 10.723L46.4023 11.4112H46.8182Z" fill="#99A1A6"/>
<path d="M48.3866 10.2265H47.8407V12.1429H48.3953V11.0889L49.1058 12.1429H49.6604V10.2265H49.1058V11.2892L48.3866 10.2265Z" fill="#99A1A6"/>
<path d="M49.929 10.2265H51.714V10.6969H51.1161V12.1429H50.5269V10.6969H49.929V10.2265Z" fill="#99A1A6"/>
<path d="M23.812 17.9878C24.0547 17.9878 24.2453 17.9878 24.5572 17.8484C24.9491 17.6419 25.6811 16.3252 26.6388 14.6026C28.3068 11.6022 30.6594 7.37027 33.0925 5.62718C33.1185 5.60975 33.1445 5.58362 33.1618 5.55749C33.1878 5.52265 33.1878 5.4878 33.1878 5.4878C33.1878 5.4878 33.1878 5.30488 32.6246 5.30488C29.8284 5.2262 26.9388 10.057 24.963 13.3601C24.5325 14.0799 24.1454 14.7271 23.812 15.2352C23.786 15.27 23.6647 15.2352 23.6647 15.2352C23.6647 15.2352 22.4169 13.7544 21.3338 13.1882L21.3299 13.1868C21.2973 13.1758 21.1808 13.1363 21.0565 13.1446C20.9698 13.1446 20.4672 13.2491 20.2333 13.493C19.9643 13.7804 19.9644 13.9447 19.9647 14.2804L19.9647 14.3118C19.9647 14.338 19.982 14.4599 20.0167 14.5209C20.2853 14.9913 21.4897 16.6638 22.4862 17.5871C22.4942 17.5932 22.5024 17.5998 22.511 17.6069C22.5186 17.6132 22.5266 17.6199 22.5348 17.6268L22.5352 17.6271C22.6893 17.7565 22.9648 17.9878 23.812 17.9878Z" fill="#99A1A6"/>
<path fill-rule="evenodd" clip-rule="evenodd" d="M36.9312 2.93554H34.0976V9.13763H36.9312C37.2691 9.13763 37.6504 9.08536 38.0663 8.97212C38.3696 8.88501 38.6555 8.71951 38.9242 8.47561C39.1928 8.22299 39.4008 7.91812 39.5481 7.55226C39.6954 7.18641 39.7734 6.67247 39.7734 6.01045C39.7734 5.58362 39.7214 5.18292 39.6174 4.80836C39.5221 4.43379 39.3574 4.10279 39.1321 3.81533C38.9155 3.53658 38.6296 3.31881 38.283 3.16202C37.945 3.01394 37.4944 2.93554 36.9312 2.93554ZM36.004 7.72648V4.33798H36.4806C36.9832 4.33798 37.3298 4.45993 37.5464 4.70383C37.763 4.94773 37.867 5.39198 37.867 6.054C37.867 6.55052 37.815 6.91637 37.7197 7.13414C37.6244 7.35191 37.4857 7.50871 37.3211 7.59582C37.1565 7.68292 36.8705 7.72648 36.4719 7.72648H36.004Z" fill="#99A1A6"/>
<path d="M40.3019 7.09059L42.1216 6.97735C42.165 7.27352 42.243 7.5 42.3643 7.65679C42.5636 7.90941 42.8409 8.03136 43.2048 8.03136C43.4734 8.03136 43.69 7.97038 43.8374 7.83972C43.9847 7.70905 44.0626 7.56098 44.0626 7.39547C44.0626 7.23867 43.9933 7.09059 43.8547 6.95993C43.716 6.82927 43.3868 6.71603 42.8755 6.60279C42.035 6.41115 41.4457 6.15853 41.0818 5.84495C40.7179 5.53135 40.5446 5.13066 40.5446 4.64286C40.5446 4.32056 40.6399 4.02439 40.8219 3.73693C41.0038 3.44948 41.2811 3.23171 41.6537 3.0662C42.0263 2.9007 42.5289 2.8223 43.1701 2.8223C43.9587 2.8223 44.5652 2.97038 44.9725 3.26655C45.3884 3.56272 45.6311 4.0331 45.709 4.6777L43.9067 4.78223C43.8547 4.50348 43.7594 4.30313 43.6034 4.17247C43.4474 4.04181 43.2395 3.98083 42.9708 3.98083C42.7455 3.98083 42.5809 4.02439 42.4682 4.12021C42.3556 4.21603 42.3036 4.32926 42.3036 4.46864C42.3036 4.56446 42.3469 4.66028 42.4423 4.73867C42.5289 4.81707 42.7455 4.89547 43.0835 4.96515C43.9153 5.14808 44.5132 5.33101 44.8772 5.51394C45.2411 5.69686 45.5011 5.93205 45.6657 6.20209C45.8304 6.47213 45.9083 6.78571 45.9083 7.12544C45.9083 7.52613 45.7957 7.89198 45.5791 8.22299C45.3624 8.56272 45.0505 8.81533 44.6606 8.98954C44.2706 9.16376 43.768 9.25087 43.1701 9.25087C42.1216 9.25087 41.3938 9.05052 40.9865 8.64111C40.5879 8.23171 40.3626 7.71777 40.3019 7.09059Z" fill="#99A1A6"/>
<path d="M48.2133 6.97735L46.3936 7.09059C46.4456 7.71777 46.6709 8.23171 47.0782 8.64111C47.4854 9.05052 48.2133 9.25087 49.2618 9.25087C49.8597 9.25087 50.3623 9.16376 50.7522 8.98954C51.1421 8.81533 51.4541 8.56272 51.6707 8.22299C51.8873 7.89198 52 7.52613 52 7.12544C52 6.78571 51.922 6.47213 51.7574 6.20209C51.5927 5.93205 51.3328 5.69686 50.9688 5.51394C50.6049 5.33101 50.007 5.14808 49.1751 4.96515C48.8372 4.89547 48.6206 4.81707 48.5339 4.73867C48.4386 4.66028 48.3953 4.56446 48.3953 4.46864C48.3953 4.32926 48.4473 4.21603 48.5599 4.12021C48.6726 4.02439 48.8372 3.98083 49.0625 3.98083C49.3311 3.98083 49.5391 4.04181 49.695 4.17247C49.851 4.30313 49.9463 4.50348 49.9983 4.78223L51.8007 4.6777C51.7227 4.0331 51.4801 3.56272 51.0642 3.26655C50.6569 2.97038 50.0503 2.8223 49.2618 2.8223C48.6206 2.8223 48.118 2.9007 47.7454 3.0662C47.3728 3.23171 47.0955 3.44948 46.9135 3.73693C46.7315 4.02439 46.6362 4.32056 46.6362 4.64286C46.6362 5.13066 46.8182 5.53135 47.1735 5.84495C47.5374 6.15853 48.1266 6.41115 48.9672 6.60279C49.4784 6.71603 49.8077 6.82927 49.9463 6.95993C50.085 7.09059 50.1543 7.23867 50.1543 7.39547C50.1543 7.56098 50.0763 7.70905 49.929 7.83972C49.7817 7.97038 49.5651 8.03136 49.2964 8.03136C48.9325 8.03136 48.6552 7.90941 48.4559 7.65679C48.3346 7.5 48.2566 7.27352 48.2133 6.97735Z" fill="#99A1A6"/>
</svg>
