<svg width="38" height="20" viewBox="0 0 38 20" fill="none" xmlns="http://www.w3.org/2000/svg">
<path d="M20.1601 10.1068L21.0277 9.0907C21.5736 9.58453 22.2853 9.85993 23.0262 9.88842C23.6306 9.88842 23.9913 9.651 23.9913 9.27113V9.25214C23.9913 8.89127 23.7671 8.70133 22.646 8.42593C21.2909 8.09355 20.4233 7.72318 20.4233 6.43163V6.41263C20.4233 5.22555 21.3982 4.44682 22.7727 4.44682C23.6793 4.42783 24.5567 4.72223 25.2586 5.27303L24.4885 6.35565C23.9913 5.97579 23.3771 5.74787 22.7435 5.70988C22.178 5.70988 21.8856 5.96629 21.8856 6.27968V6.29867C21.8856 6.72602 22.1683 6.86847 23.3284 7.15337C24.6834 7.49525 25.4536 7.97009 25.4536 9.10969V9.12868C25.4536 10.4297 24.4397 11.1515 22.9969 11.1515C21.9636 11.1515 20.9497 10.7811 20.1601 10.1068Z" fill="#99A1A6"/>
<path d="M26.1945 10.1068L27.0621 9.0907C27.608 9.58453 28.3196 9.85993 29.0605 9.88842C29.665 9.88842 30.0257 9.651 30.0257 9.27113V9.25214C30.0257 8.89127 29.8014 8.70133 28.6803 8.42593C27.3253 8.09355 26.4577 7.72318 26.4577 6.43163V6.41263C26.4577 5.22555 27.4325 4.44682 28.8071 4.44682C29.7137 4.42783 30.5911 4.72223 31.293 5.27303L30.5228 6.35565C30.0257 5.97579 29.4115 5.74787 28.7778 5.70988C28.2124 5.70988 27.92 5.96629 27.92 6.27968V6.29867C27.92 6.72602 28.2027 6.86847 29.3627 7.15337C30.7178 7.49525 31.4879 7.97009 31.4879 9.10969V9.12868C31.4879 10.4297 30.4741 11.1515 29.0313 11.1515C27.9882 11.1515 26.9841 10.7811 26.1945 10.1068Z" fill="#99A1A6"/>
<path d="M32.7845 4.52279H34.2565V9.74597H37.6003V11.0565H32.7845V4.52279Z" fill="#99A1A6"/>
<path d="M19.9846 14.3614L20.3161 13.972C20.5305 14.1619 20.8035 14.2664 21.0862 14.2759C21.3202 14.2759 21.4566 14.1904 21.4566 14.0385V14.029C21.4566 13.8865 21.3689 13.82 20.94 13.7061C20.4233 13.5731 20.0821 13.4402 20.0821 12.9369V12.9274C20.0918 12.4905 20.4623 12.1486 20.9107 12.1676C20.9302 12.1676 20.9595 12.1676 20.979 12.1771C21.3299 12.1676 21.6614 12.2816 21.9343 12.5L21.6419 12.9179C21.4469 12.7754 21.2129 12.6804 20.9692 12.6709C20.7547 12.6709 20.6378 12.7659 20.6378 12.8894V12.8989C20.6378 13.0603 20.745 13.1173 21.1934 13.2312C21.7198 13.3642 22.0123 13.5446 22.0123 13.9815V13.991C22.0123 14.4943 21.6224 14.7697 21.0667 14.7697C20.6768 14.7602 20.2868 14.6178 19.9846 14.3614Z" fill="#99A1A6"/>
<path d="M22.5192 12.2151H24.4592V12.7089H23.0749V13.2218H24.2935V13.7156H23.0749V14.2474H24.4787V14.7412H22.5192V12.2151Z" fill="#99A1A6"/>
<path d="M24.8784 13.4782C24.8686 12.7659 25.4438 12.1866 26.1652 12.1676C26.1847 12.1676 26.2042 12.1676 26.2237 12.1676C26.6039 12.1486 26.9743 12.2911 27.2376 12.557L26.8769 12.9653C26.7014 12.7944 26.4674 12.6899 26.214 12.6804C25.7948 12.6899 25.4536 13.0318 25.4633 13.4402C25.4633 13.4497 25.4633 13.4592 25.4633 13.4592V13.4687C25.4341 13.877 25.7655 14.2284 26.1847 14.2569C26.1945 14.2569 26.2042 14.2569 26.214 14.2569C26.4674 14.2569 26.7209 14.1524 26.8964 13.9625L27.2571 14.3139C26.9938 14.6178 26.6039 14.7792 26.2042 14.7602C25.4828 14.7697 24.8979 14.2094 24.8784 13.5162C24.8784 13.5067 24.8784 13.4972 24.8784 13.4782Z" fill="#99A1A6"/>
<path d="M27.6665 13.6491V12.2151H28.2319V13.6301C28.2319 14.0385 28.4464 14.2474 28.7876 14.2474C29.1288 14.2474 29.3433 14.0385 29.3433 13.6491V12.2151H29.9087V13.6301C29.9769 14.1809 29.5772 14.6937 29.0118 14.7602C28.9338 14.7697 28.8558 14.7697 28.7778 14.7602C28.2124 14.8172 27.7152 14.4183 27.6567 13.8675C27.6567 13.801 27.6567 13.7251 27.6665 13.6491Z" fill="#99A1A6"/>
<path d="M30.4936 12.2151H31.6732C31.9461 12.1961 32.2191 12.2911 32.4238 12.4715C32.57 12.6235 32.6578 12.8324 32.648 13.0413V13.0508C32.6675 13.4022 32.4433 13.7251 32.0924 13.8295L32.726 14.7222H32.0631L31.5074 13.915H31.059V14.7222H30.4936V12.2151ZM31.6342 13.4402C31.9071 13.4402 32.0729 13.2977 32.0729 13.0888V13.0793C32.0729 12.8419 31.9071 12.7184 31.6244 12.7184H31.059V13.4402H31.6342Z" fill="#99A1A6"/>
<path d="M33.1647 12.2151H35.1047V12.7089H33.7204V13.2218H34.9389V13.7156H33.7204V14.2474H35.1242V14.7412H33.1647V12.2151Z" fill="#99A1A6"/>
<path d="M35.6311 12.2151H36.6352C37.3468 12.1676 37.9513 12.6899 38 13.3832C38 13.4117 38 13.4402 38 13.4687V13.4782C38 14.1714 37.4248 14.7317 36.7132 14.7412C36.6839 14.7412 36.6547 14.7412 36.6352 14.7412H35.6311V12.2151ZM36.6352 14.2284C37.0446 14.2474 37.3858 13.953 37.4151 13.5541C37.4151 13.5256 37.4151 13.5066 37.4151 13.4782V13.4687C37.4346 13.0698 37.1226 12.7279 36.7132 12.7089C36.6839 12.7089 36.6644 12.7089 36.6352 12.7089H36.1965V14.2189L36.6352 14.2284Z" fill="#99A1A6"/>
<path d="M0.00974918 10.2493C0.00974918 15.9948 5.76142 18.9103 8.22781 19.8979L8.31555 19.9359C8.50077 20.0214 8.71524 20.0214 8.89071 19.9359L8.97845 19.8979C11.4546 18.9103 17.1965 15.9948 17.1965 10.2493V2.55698C17.1965 2.26258 16.9918 2.00617 16.6993 1.9397L8.75423 0.0213675C8.647 -0.00712251 8.53976 -0.00712251 8.44228 0.0213675L0.497179 1.9397C0.204721 2.00617 0 2.26258 0 2.55698M15.8999 10.2493C15.8999 15.1401 10.8989 17.7422 8.61775 18.6728C6.32683 17.7422 1.33556 15.1401 1.33556 10.2493V3.05081L8.61775 1.29392L15.8999 3.05081V10.2493Z" fill="#99A1A6"/>
<path d="M8.58851 3.85803C7.12622 3.85803 5.93689 5.01662 5.93689 6.44112V7.0774C5.42022 7.16287 5.04977 7.59022 5.04977 8.09354V12.614C5.04977 13.1838 5.52745 13.6491 6.11237 13.6491H11.1329C11.7178 13.6491 12.1955 13.1838 12.1955 12.614V8.09354C12.1955 7.57123 11.786 7.13438 11.2596 7.0679V6.43163C11.2304 5.00712 10.0508 3.85803 8.58851 3.85803ZM8.58851 4.97863C9.41714 4.97863 10.0898 5.6339 10.0898 6.44112V7.05841H7.09698V6.44112C7.08723 5.6339 7.75988 4.97863 8.58851 4.97863ZM11.0257 12.519H6.20011V8.18851H11.0257V12.519ZM9.52437 8.94825L10.3238 9.72697L8.31555 11.6833L6.90201 10.3063L7.70139 9.52754L8.31555 10.1258L9.52437 8.94825Z" fill="#99A1A6"/>
</svg>
