<svg width="16" height="16" viewBox="0 0 16 16" fill="none" xmlns="http://www.w3.org/2000/svg">
<path d="M9.66634 2.66669H6.33301L4.66634 4.66669H2.66634C2.31272 4.66669 1.97358 4.80716 1.72353 5.05721C1.47348 5.30726 1.33301 5.6464 1.33301 6.00002V12C1.33301 12.3536 1.47348 12.6928 1.72353 12.9428C1.97358 13.1929 2.31272 13.3334 2.66634 13.3334H13.333C13.6866 13.3334 14.0258 13.1929 14.2758 12.9428C14.5259 12.6928 14.6663 12.3536 14.6663 12V6.00002C14.6663 5.6464 14.5259 5.30726 14.2758 5.05721C14.0258 4.80716 13.6866 4.66669 13.333 4.66669H11.333L9.66634 2.66669Z" stroke="white" stroke-linecap="round" stroke-linejoin="round"/>
<path d="M7.99967 10.6667C9.10424 10.6667 9.99967 9.77126 9.99967 8.66669C9.99967 7.56212 9.10424 6.66669 7.99967 6.66669C6.8951 6.66669 5.99967 7.56212 5.99967 8.66669C5.99967 9.77126 6.8951 10.6667 7.99967 10.6667Z" stroke="white" stroke-linecap="round" stroke-linejoin="round"/>
</svg>
