<svg width="16" height="16" viewBox="0 0 16 16" fill="none" xmlns="http://www.w3.org/2000/svg">
<path d="M12.6663 11.3334H13.9997C14.3997 11.3334 14.6663 11.0667 14.6663 10.6667V8.66669C14.6663 8.06669 14.1997 7.53335 13.6663 7.40002C12.4663 7.06669 10.6663 6.66669 10.6663 6.66669C10.6663 6.66669 9.79967 5.73335 9.19967 5.13335C8.86634 4.86669 8.46634 4.66669 7.99967 4.66669H3.33301C2.93301 4.66669 2.59967 4.93335 2.39967 5.26669L1.46634 7.20002C1.37806 7.4575 1.33301 7.72782 1.33301 8.00002V10.6667C1.33301 11.0667 1.59967 11.3334 1.99967 11.3334H3.33301M12.6663 11.3334C12.6663 12.0697 12.0694 12.6667 11.333 12.6667C10.5966 12.6667 9.99967 12.0697 9.99967 11.3334M12.6663 11.3334C12.6663 10.597 12.0694 10 11.333 10C10.5966 10 9.99967 10.597 9.99967 11.3334M3.33301 11.3334C3.33301 12.0697 3.92996 12.6667 4.66634 12.6667C5.40272 12.6667 5.99967 12.0697 5.99967 11.3334M3.33301 11.3334C3.33301 10.597 3.92996 10 4.66634 10C5.40272 10 5.99967 10.597 5.99967 11.3334M5.99967 11.3334H9.99967" stroke="white" stroke-linecap="round" stroke-linejoin="round"/>
</svg>
