<svg width="16" height="16" viewBox="0 0 16 16" fill="none" xmlns="http://www.w3.org/2000/svg">
<path d="M1.99981 7.33332L13.4665 3.99999L12.9331 2.26666C12.7331 1.59999 11.9998 1.19999 11.2665 1.39999L2.26647 4.06666C1.59981 4.26666 1.19981 4.99999 1.39981 5.73332L1.99981 7.33332ZM1.99981 7.33332L13.9998 7.33335V12.6667C13.9998 13.0203 13.8594 13.3594 13.6093 13.6095C13.3593 13.8595 13.0201 14 12.6665 14H3.33317C2.97955 14 2.64041 13.8595 2.39036 13.6095C2.14031 13.3594 1.99984 13.0203 1.99984 12.6667L1.99981 7.33332ZM4.1333 3.53339L6.19997 6.13339M8.26644 2.26662L10.3331 4.93329" stroke="white" stroke-linecap="round" stroke-linejoin="round"/>
</svg>
