<svg width="16" height="16" viewBox="0 0 16 16" fill="none" xmlns="http://www.w3.org/2000/svg">
<g clip-path="url(#clip0_4297_59933)">
<path d="M9.60039 9.60004L6.40039 6.40004M14.3337 14.3334L13.4004 13.4M2.60033 2.59998L1.66699 1.66665M12.4383 14.3232C12.1882 14.5733 11.8491 14.7139 11.4955 14.7139C11.1419 14.714 10.8027 14.5736 10.5526 14.3236C10.3025 14.0736 10.162 13.7344 10.1619 13.3808C10.1618 13.0272 10.3022 12.688 10.5523 12.4379L9.37426 13.6166C9.12416 13.8667 8.78495 14.0072 8.43126 14.0072C8.07757 14.0072 7.73836 13.8667 7.48826 13.6166C7.23816 13.3665 7.09766 13.0273 7.09766 12.6736C7.09766 12.3199 7.23816 11.9807 7.48826 11.7306L11.7309 7.48791C11.981 7.23781 12.3202 7.09731 12.6739 7.09731C13.0276 7.09731 13.3668 7.23781 13.6169 7.48791C13.867 7.73801 14.0075 8.07722 14.0075 8.43091C14.0075 8.78461 13.867 9.12381 13.6169 9.37391L12.4383 10.5519C12.6884 10.3019 13.0275 10.1615 13.3812 10.1615C13.7348 10.1616 14.0739 10.3021 14.3239 10.5522C14.5739 10.8023 14.7144 11.1415 14.7143 11.4951C14.7142 11.8488 14.5737 12.1879 14.3236 12.4379L12.4383 14.3232ZM4.2695 8.51198C4.0194 8.76208 3.68019 8.90259 3.3265 8.90259C2.97281 8.90259 2.6336 8.76208 2.3835 8.51198C2.1334 8.26188 1.9929 7.92268 1.9929 7.56898C1.9929 7.21529 2.1334 6.87608 2.3835 6.62598L3.56217 5.44798C3.43833 5.57178 3.29132 5.66997 3.12954 5.73695C2.96776 5.80392 2.79437 5.83838 2.61926 5.83835C2.26563 5.83829 1.92651 5.69775 1.6765 5.44765C1.55271 5.32381 1.45452 5.17681 1.38754 5.01502C1.32056 4.85324 1.2861 4.67985 1.28613 4.50475C1.2862 4.15112 1.42673 3.81199 1.67683 3.56198L3.56217 1.67665C3.81218 1.42655 4.1513 1.28601 4.50493 1.28595C4.68003 1.28592 4.85342 1.32038 5.01521 1.38736C5.17699 1.45434 5.324 1.55252 5.44783 1.67632C5.57167 1.80011 5.66991 1.94708 5.73695 2.10884C5.80398 2.2706 5.8385 2.44398 5.83853 2.61908C5.83857 2.79418 5.80411 2.96757 5.73713 3.12936C5.67015 3.29114 5.57196 3.43815 5.44817 3.56198L6.62617 2.38332C6.87627 2.13322 7.21547 1.99271 7.56917 1.99271C7.92286 1.99271 8.26207 2.13322 8.51217 2.38332C8.76227 2.63342 8.90277 2.97262 8.90277 3.32632C8.90277 3.68001 8.76227 4.01922 8.51217 4.26932L4.2695 8.51198Z" stroke="white" stroke-linecap="round" stroke-linejoin="round"/>
</g>
<defs>
<clipPath id="clip0_4297_59933">
<rect width="16" height="16" fill="white"/>
</clipPath>
</defs>
</svg>
