<svg width="16" height="16" viewBox="0 0 16 16" fill="none" xmlns="http://www.w3.org/2000/svg">
<path d="M8.00016 3.33331C8.00016 2.93775 8.11746 2.55107 8.33722 2.22217C8.55699 1.89328 8.86934 1.63693 9.2348 1.48555C9.60025 1.33418 10.0024 1.29457 10.3903 1.37174C10.7783 1.44891 11.1347 1.6394 11.4144 1.9191C11.6941 2.19881 11.8846 2.55517 11.9617 2.94313C12.0389 3.3311 11.9993 3.73323 11.8479 4.09868C11.6965 4.46413 11.4402 4.77649 11.1113 4.99625C10.7824 5.21602 10.3957 5.33331 10.0002 5.33331M8.00016 3.33331C8.00016 2.93775 7.88287 2.55107 7.6631 2.22217C7.44334 1.89328 7.13098 1.63693 6.76553 1.48555C6.40008 1.33418 5.99795 1.29457 5.60998 1.37174C5.22202 1.44891 4.86566 1.6394 4.58595 1.9191C4.30625 2.19881 4.11576 2.55517 4.03859 2.94313C3.96142 3.3311 4.00103 3.73323 4.1524 4.09868C4.30378 4.46413 4.56012 4.77649 4.88902 4.99625C5.21792 5.21602 5.6046 5.33331 6.00016 5.33331M8.00016 3.33331V3.99998M10.0002 5.33331C10.3957 5.33331 10.7824 5.45061 11.1113 5.67037C11.4402 5.89014 11.6965 6.20249 11.8479 6.56795C11.9993 6.9334 12.0389 7.33553 11.9617 7.72349C11.8846 8.11146 11.6941 8.46782 11.4144 8.74753C11.1347 9.02723 10.7783 9.21771 10.3903 9.29488C10.0024 9.37205 9.60025 9.33245 9.2348 9.18107C8.86934 9.0297 8.55699 8.77335 8.33722 8.44445C8.11746 8.11556 8.00016 7.72888 8.00016 7.33331M10.0002 5.33331H9.3335M6.00016 5.33331C5.6046 5.33331 5.21792 5.45061 4.88902 5.67037C4.56012 5.89014 4.30378 6.20249 4.1524 6.56795C4.00103 6.9334 3.96142 7.33553 4.03859 7.72349C4.11576 8.11146 4.30625 8.46782 4.58595 8.74753C4.86566 9.02723 5.22202 9.21771 5.60998 9.29488C5.99795 9.37205 6.40008 9.33245 6.76553 9.18107C7.13098 9.0297 7.44334 8.77335 7.6631 8.44445C7.88287 8.11556 8.00016 7.72888 8.00016 7.33331M6.00016 5.33331H6.66683M8.00016 3.99998C7.26378 3.99998 6.66683 4.59693 6.66683 5.33331M8.00016 3.99998C8.73654 3.99998 9.3335 4.59693 9.3335 5.33331M8.00016 7.33331V6.66665M6.66683 5.33331C6.66683 6.06969 7.26378 6.66665 8.00016 6.66665M9.3335 5.33331C9.3335 6.06969 8.73654 6.66665 8.00016 6.66665M8.00016 6.66665L8.00016 14.6666M8.00016 14.6666C10.8002 14.6666 12.6668 13.5553 12.6668 11.3333C9.86683 11.3333 8.00016 12.4446 8.00016 14.6666ZM8.00016 14.6666C5.20016 14.6666 3.3335 13.5553 3.3335 11.3333C6.1335 11.3333 8.00016 12.4446 8.00016 14.6666Z" stroke="white" stroke-linecap="round" stroke-linejoin="round"/>
</svg>
