<svg width="16" height="16" viewBox="0 0 16 16" fill="none" xmlns="http://www.w3.org/2000/svg">
<path d="M14.6667 6.66669V10.6667M4 8.33335V10.6667C4 11.1971 4.42143 11.7058 5.17157 12.0809C5.92172 12.456 6.93913 12.6667 8 12.6667C9.06087 12.6667 10.0783 12.456 10.8284 12.0809C11.5786 11.7058 12 11.1971 12 10.6667V8.33335M14.2799 7.28143C14.3992 7.22878 14.5005 7.14228 14.5712 7.03263C14.6418 6.92299 14.6788 6.79502 14.6774 6.66459C14.6761 6.53415 14.6365 6.40698 14.5636 6.29882C14.4907 6.19066 14.3876 6.10627 14.2672 6.0561L8.5532 3.45343C8.37949 3.37419 8.19079 3.33319 7.99986 3.33319C7.80894 3.33319 7.62024 3.37419 7.44653 3.45343L1.7332 6.05343C1.61451 6.10541 1.51354 6.19085 1.44264 6.29931C1.37174 6.40776 1.33398 6.53452 1.33398 6.6641C1.33398 6.79367 1.37174 6.92043 1.44264 7.02889C1.51354 7.13734 1.61451 7.22278 1.7332 7.27476L7.44653 9.8801C7.62024 9.95933 7.80894 10.0003 7.99986 10.0003C8.19079 10.0003 8.37949 9.95933 8.5532 9.8801L14.2799 7.28143Z" stroke="white" stroke-linecap="round" stroke-linejoin="round"/>
</svg>
