<svg width="16" height="16" viewBox="0 0 16 16" fill="none" xmlns="http://www.w3.org/2000/svg">
<path d="M10.0001 8.00002L4.41812 13.582C4.1529 13.8472 3.79319 13.9962 3.41812 13.9962C3.04305 13.9962 2.68334 13.8472 2.41812 13.582C2.1529 13.3168 2.00391 12.9571 2.00391 12.582C2.00391 12.2069 2.1529 11.8472 2.41812 11.582L8.00012 6.00002M12 10L14.6667 7.33335M14.3333 7.66666L13.0573 6.39066C12.8073 6.14067 12.6667 5.80159 12.6667 5.44799V4.66666L11.16 3.15999C10.4164 2.41678 9.41001 1.99623 8.35867 1.98933L6 1.97333L6.61333 2.51999C7.04897 2.90626 7.3978 3.38046 7.63681 3.91136C7.87583 4.44225 7.99961 5.01778 8 5.59999V6.66666L9.33333 7.99999H10.1147C10.4683 8.00007 10.8073 8.1406 11.0573 8.39066L12.3333 9.66666" stroke="white" stroke-linecap="round" stroke-linejoin="round"/>
</svg>
