<svg width="16" height="16" viewBox="0 0 16 16" fill="none" xmlns="http://www.w3.org/2000/svg">
<path d="M13.3335 10.6666V4.66665C13.3335 4.31302 13.193 3.97389 12.943 3.72384C12.6929 3.47379 12.3538 3.33331 12.0002 3.33331H4.00018C3.64655 3.33331 3.30742 3.47379 3.05737 3.72384C2.80732 3.97389 2.66684 4.31302 2.66684 4.66665V10.6666M13.3335 10.6666H2.66684M13.3335 10.6666L14.1868 12.3666C14.2382 12.4686 14.2626 12.5821 14.2575 12.6962C14.2524 12.8103 14.2182 12.9212 14.1579 13.0182C14.0977 13.1153 14.0135 13.1952 13.9135 13.2504C13.8135 13.3056 13.701 13.3341 13.5868 13.3333H2.41351C2.2993 13.3341 2.18681 13.3056 2.08681 13.2504C1.98681 13.1952 1.90266 13.1153 1.84243 13.0182C1.7822 12.9212 1.74791 12.8103 1.74284 12.6962C1.73778 12.5821 1.76211 12.4686 1.81351 12.3666L2.66684 10.6666" stroke="white" stroke-linecap="round" stroke-linejoin="round"/>
</svg>
