<svg width="16" height="16" viewBox="0 0 16 16" fill="none" xmlns="http://www.w3.org/2000/svg">
<g clip-path="url(#clip0_4297_59928)">
<path d="M3.86683 7.53335L1.3335 14.6667L8.46683 12.14M2.66683 1.99998H2.6735M14.6668 5.33331H14.6735M10.0002 1.33331H10.0068M14.6668 13.3333H14.6735M14.6668 1.33331L13.1735 1.83331C12.7484 1.97491 12.3857 2.25974 12.1474 2.63913C11.909 3.01852 11.8099 3.46891 11.8668 3.91331C11.9335 4.48665 11.4868 4.99998 10.9002 4.99998H10.6468C10.0735 4.99998 9.58016 5.39998 9.4735 5.95998L9.3335 6.66665M14.6668 8.6666L14.1202 8.4466C13.5468 8.21993 12.9068 8.57993 12.8002 9.1866C12.7268 9.65327 12.3202 9.99993 11.8468 9.99993H11.3335M7.3335 1.33331L7.5535 1.87998C7.78016 2.45331 7.42016 3.09331 6.8135 3.19998C6.34683 3.26665 6.00016 3.67998 6.00016 4.15331V4.66665M7.33351 8.66666C8.62017 9.95332 9.22017 11.4467 8.66684 12C8.11351 12.5533 6.62017 11.9533 5.33351 10.6667C4.04684 9.37999 3.44684 7.88666 4.00017 7.33332C4.55351 6.77999 6.04684 7.37999 7.33351 8.66666Z" stroke="white" stroke-linecap="round" stroke-linejoin="round"/>
</g>
<defs>
<clipPath id="clip0_4297_59928">
<rect width="16" height="16" fill="white"/>
</clipPath>
</defs>
</svg>
