<svg width="16" height="16" viewBox="0 0 16 16" fill="none" xmlns="http://www.w3.org/2000/svg">
<g clip-path="url(#clip0_4297_59893)">
<path d="M7.33366 3.99998C8.07004 3.99998 8.66699 3.40303 8.66699 2.66665C8.66699 1.93027 8.07004 1.33331 7.33366 1.33331C6.59728 1.33331 6.00033 1.93027 6.00033 2.66665C6.00033 3.40303 6.59728 3.99998 7.33366 3.99998Z" stroke="white" stroke-linecap="round" stroke-linejoin="round"/>
<path d="M12.0003 6.66665C12.7367 6.66665 13.3337 6.06969 13.3337 5.33331C13.3337 4.59693 12.7367 3.99998 12.0003 3.99998C11.2639 3.99998 10.667 4.59693 10.667 5.33331C10.667 6.06969 11.2639 6.66665 12.0003 6.66665Z" stroke="white" stroke-linecap="round" stroke-linejoin="round"/>
<path d="M13.3337 12C14.07 12 14.667 11.403 14.667 10.6666C14.667 9.93027 14.07 9.33331 13.3337 9.33331C12.5973 9.33331 12.0003 9.93027 12.0003 10.6666C12.0003 11.403 12.5973 12 13.3337 12Z" stroke="white" stroke-linecap="round" stroke-linejoin="round"/>
<path d="M6.00048 6.66665C6.43822 6.66665 6.87168 6.75287 7.2761 6.92038C7.68051 7.0879 8.04798 7.33343 8.35751 7.64296C8.66704 7.95249 8.91257 8.31995 9.08008 8.72437C9.2476 9.12879 9.33382 9.56224 9.33382 9.99998V12.3333C9.33364 12.891 9.13375 13.4301 8.77036 13.8531C8.40698 14.2761 7.90412 14.5549 7.35288 14.6391C6.80163 14.7233 6.23845 14.6074 5.76535 14.3122C5.29224 14.017 4.94049 13.5621 4.77382 13.03C4.48937 12.1122 3.88937 11.5111 2.97382 11.2266C2.44194 11.0601 1.98726 10.7086 1.69206 10.2358C1.39685 9.76307 1.28063 9.20025 1.36441 8.64923C1.44819 8.09821 1.72644 7.59538 2.14882 7.23172C2.5712 6.86807 3.1098 6.66762 3.66715 6.66665H6.00048Z" stroke="white" stroke-linecap="round" stroke-linejoin="round"/>
</g>
<defs>
<clipPath id="clip0_4297_59893">
<rect width="16" height="16" fill="white"/>
</clipPath>
</defs>
</svg>
