<svg width="16" height="16" viewBox="0 0 16 16" fill="none" xmlns="http://www.w3.org/2000/svg">
<g clip-path="url(#clip0_4294_2713)">
<path d="M5.66634 5.66665L10.333 10.3333M6.99968 13.6666L13.6663 6.99998C13.9779 6.6947 14.2258 6.33069 14.3957 5.929C14.5657 5.52731 14.6543 5.09591 14.6565 4.65975C14.6587 4.22358 14.5745 3.79131 14.4086 3.38793C14.2427 2.98454 13.9985 2.61804 13.69 2.30963C13.3816 2.00121 13.0151 1.75699 12.6117 1.5911C12.2083 1.4252 11.7761 1.34092 11.3399 1.34312C10.9038 1.34532 10.4724 1.43397 10.0707 1.60393C9.66897 1.77389 9.30496 2.0218 8.99968 2.33332L2.33301 8.99998C2.02149 9.30527 1.77359 9.66928 1.60363 10.071C1.43366 10.4727 1.34502 10.9041 1.34282 11.3402C1.34061 11.7764 1.4249 12.2087 1.59079 12.612C1.75669 13.0154 2.0009 13.3819 2.30932 13.6903C2.61774 13.9988 2.98424 14.243 3.38762 14.4089C3.79101 14.5748 4.22328 14.659 4.65944 14.6568C5.0956 14.6546 5.527 14.566 5.92869 14.396C6.33038 14.2261 6.69439 13.9782 6.99968 13.6666Z" stroke="white" stroke-linecap="round" stroke-linejoin="round"/>
</g>
<defs>
<clipPath id="clip0_4294_2713">
<rect width="16" height="16" fill="white"/>
</clipPath>
</defs>
</svg>
