<svg width="16" height="16" viewBox="0 0 16 16" fill="none" xmlns="http://www.w3.org/2000/svg">
<g clip-path="url(#clip0_4297_59937)">
<path d="M1.36621 1.3667H2.69954L4.47288 9.6467C4.53793 9.94994 4.70666 10.221 4.95002 10.4133C5.19338 10.6055 5.49615 10.7069 5.80621 10.7H12.3262C12.6297 10.6995 12.9239 10.5956 13.1602 10.4053C13.3966 10.215 13.561 9.94972 13.6262 9.65337L14.7262 4.70003H3.41288M5.99967 14C5.99967 14.3682 5.7012 14.6667 5.33301 14.6667C4.96482 14.6667 4.66634 14.3682 4.66634 14C4.66634 13.6318 4.96482 13.3333 5.33301 13.3333C5.7012 13.3333 5.99967 13.6318 5.99967 14ZM13.333 14C13.333 14.3682 13.0345 14.6667 12.6663 14.6667C12.2982 14.6667 11.9997 14.3682 11.9997 14C11.9997 13.6318 12.2982 13.3333 12.6663 13.3333C13.0345 13.3333 13.333 13.6318 13.333 14Z" stroke="white" stroke-linecap="round" stroke-linejoin="round"/>
</g>
<defs>
<clipPath id="clip0_4297_59937">
<rect width="16" height="16" fill="white"/>
</clipPath>
</defs>
</svg>
