<svg width="16" height="16" viewBox="0 0 16 16" fill="none" xmlns="http://www.w3.org/2000/svg">
<path d="M5.33366 2.06671V4.66671C5.33366 5.37396 5.61461 6.05223 6.11471 6.55233C6.6148 7.05243 7.29308 7.33338 8.00033 7.33338C8.70757 7.33338 9.38585 7.05243 9.88594 6.55233C10.386 6.05223 10.667 5.37396 10.667 4.66671V2.06671M6.00033 9.99998L5.33366 9.33331M10.0003 9.99998L10.667 9.33331M5.33366 12.6666L4.00033 14.6666M10.667 12.6666L12.0003 14.6666M6.00033 12.6666C4.13366 12.6666 2.66699 11.2 2.66699 9.33331V6.66665C2.66699 5.25216 3.2289 3.8956 4.22909 2.89541C5.22928 1.89522 6.58584 1.33331 8.00033 1.33331C9.41481 1.33331 10.7714 1.89522 11.7716 2.89541C12.7718 3.8956 13.3337 5.25216 13.3337 6.66665V9.33331C13.3337 11.2 11.867 12.6666 10.0003 12.6666H6.00033Z" stroke="white" stroke-linecap="round" stroke-linejoin="round"/>
</svg>
