<svg width="20" height="20" viewBox="0 0 20 20" fill="none" xmlns="http://www.w3.org/2000/svg">
<path d="M10.0001 9.99984H10.0084M13.3334 4.99984V3.33317C13.3334 2.89114 13.1578 2.46722 12.8453 2.15466C12.5327 1.8421 12.1088 1.6665 11.6667 1.6665H8.33341C7.89139 1.6665 7.46746 1.8421 7.1549 2.15466C6.84234 2.46722 6.66675 2.89114 6.66675 3.33317V4.99984M18.3334 10.8332C15.8607 12.4657 12.963 13.3359 10.0001 13.3359C7.03712 13.3359 4.13942 12.4657 1.66675 10.8332M3.33341 4.99984H16.6667C17.5872 4.99984 18.3334 5.74603 18.3334 6.6665V14.9998C18.3334 15.9203 17.5872 16.6665 16.6667 16.6665H3.33341C2.41294 16.6665 1.66675 15.9203 1.66675 14.9998V6.6665C1.66675 5.74603 2.41294 4.99984 3.33341 4.99984Z" stroke="#B3B6C3" stroke-width="1.5" stroke-linecap="round" stroke-linejoin="round"/>
</svg>
