<svg width="20" height="20" viewBox="0 0 20 20" fill="none" xmlns="http://www.w3.org/2000/svg">
<g clip-path="url(#clip0_26_19749)">
<path d="M7.57483 7.50009C7.77075 6.94314 8.15746 6.47351 8.66646 6.17437C9.17546 5.87522 9.77391 5.76587 10.3558 5.86568C10.9377 5.96549 11.4655 6.26802 11.8457 6.71969C12.2259 7.17136 12.434 7.74302 12.4332 8.33342C12.4332 10.0001 9.93316 10.8334 9.93316 10.8334M9.99996 14.1667H10.0083M18.3333 10C18.3333 14.6024 14.6023 18.3334 9.99996 18.3334C5.39759 18.3334 1.66663 14.6024 1.66663 10C1.66663 5.39765 5.39759 1.66669 9.99996 1.66669C14.6023 1.66669 18.3333 5.39765 18.3333 10Z" stroke="white" stroke-width="1.5" stroke-linecap="round" stroke-linejoin="round"/>
</g>
<defs>
<clipPath id="clip0_26_19749">
<rect width="20" height="20" fill="white"/>
</clipPath>
</defs>
</svg>
