<svg width="20" height="20" viewBox="0 0 20 20" fill="none" xmlns="http://www.w3.org/2000/svg">
<path d="M14.5831 15.8334H7.49981C6.41803 15.8331 5.35763 15.5321 4.43712 14.9638C3.51661 14.3956 2.77224 13.5825 2.2872 12.6156C1.80216 11.6486 1.59555 10.5659 1.69047 9.48827C1.78538 8.41066 2.17808 7.38067 2.82468 6.5134C3.47128 5.64613 4.3463 4.97574 5.35198 4.57715C6.35765 4.17857 7.45434 4.06748 8.51952 4.2563C9.58469 4.44513 10.5764 4.92643 11.3838 5.64642C12.1911 6.36641 12.7824 7.29673 13.0915 8.33342H14.5831C15.5777 8.33342 16.5315 8.72851 17.2348 9.43177C17.9381 10.135 18.3331 11.0889 18.3331 12.0834C18.3331 13.078 17.9381 14.0318 17.2348 14.7351C16.5315 15.4383 15.5777 15.8334 14.5831 15.8334Z" stroke="white" stroke-width="1.5" stroke-linecap="round" stroke-linejoin="round"/>
</svg>
