<svg width="20" height="20" viewBox="0 0 20 20" fill="none" xmlns="http://www.w3.org/2000/svg">
<path d="M4.16691 17.5H15.8336M9.63519 2.72156C9.67116 2.65623 9.724 2.60176 9.7882 2.56382C9.85241 2.52587 9.92562 2.50586 10.0002 2.50586C10.0748 2.50586 10.148 2.52587 10.2122 2.56382C10.2764 2.60176 10.3292 2.65623 10.3652 2.72156L12.8252 7.39156C12.8839 7.4997 12.9657 7.5935 13.0649 7.66625C13.1642 7.73899 13.2783 7.78886 13.399 7.81228C13.5198 7.8357 13.6443 7.83209 13.7635 7.80171C13.8827 7.77133 13.9937 7.71493 14.0885 7.63656L17.6527 4.58323C17.7211 4.52758 17.8054 4.49508 17.8935 4.4904C17.9816 4.48572 18.0688 4.5091 18.1428 4.55718C18.2167 4.60527 18.2735 4.67557 18.3049 4.75797C18.3363 4.84037 18.3408 4.93062 18.3177 5.01573L15.956 13.5541C15.9078 13.7288 15.804 13.883 15.6602 13.9934C15.5164 14.1038 15.3406 14.1643 15.1594 14.1657H4.84186C4.66047 14.1645 4.48445 14.104 4.34052 13.9937C4.19659 13.8833 4.0926 13.7289 4.04436 13.5541L1.68352 5.01656C1.6604 4.93146 1.66488 4.84121 1.69631 4.75881C1.72774 4.6764 1.78451 4.6061 1.85844 4.55802C1.93237 4.50993 2.01966 4.48655 2.10772 4.49123C2.19579 4.49591 2.2801 4.52841 2.34852 4.58406L5.91186 7.6374C6.00669 7.71576 6.1177 7.77216 6.23691 7.80254C6.35612 7.83292 6.48058 7.83653 6.60136 7.81311C6.72213 7.78969 6.83622 7.73982 6.93543 7.66708C7.03465 7.59434 7.11653 7.50053 7.17519 7.3924L9.63519 2.72156Z" stroke="#285DFF" stroke-width="1.5" stroke-linecap="round" stroke-linejoin="round"/>
</svg>
