<svg width="24" height="30" viewBox="0 0 24 30" fill="none" xmlns="http://www.w3.org/2000/svg">
<path d="M14.6668 1.66602V6.99935C14.6668 7.70659 14.9478 8.38487 15.4479 8.88497C15.948 9.38506 16.6263 9.66602 17.3335 9.66602H22.6668M8.00016 18.9993L10.6668 21.666L16.0002 16.3327M16.0002 1.66602H4.00016C3.29292 1.66602 2.61464 1.94697 2.11454 2.44706C1.61445 2.94716 1.3335 3.62544 1.3335 4.33268V25.666C1.3335 26.3733 1.61445 27.0515 2.11454 27.5516C2.61464 28.0517 3.29292 28.3327 4.00016 28.3327H20.0002C20.7074 28.3327 21.3857 28.0517 21.8858 27.5516C22.3859 27.0515 22.6668 26.3733 22.6668 25.666V8.33268L16.0002 1.66602Z" stroke="white" stroke-width="2.4" stroke-linecap="round" stroke-linejoin="round"/>
</svg>
