<svg width="20" height="20" viewBox="0 0 20 20" fill="none" xmlns="http://www.w3.org/2000/svg">
<g clip-path="url(#clip0_2135_11517)">
<path d="M9.16675 15.8332H3.33341C2.89139 15.8332 2.46746 15.6576 2.1549 15.345C1.84234 15.0325 1.66675 14.6085 1.66675 14.1665V5.83317C1.66675 5.39114 1.84234 4.96722 2.1549 4.65466C2.46746 4.3421 2.89139 4.1665 3.33341 4.1665H7.50008M7.50008 4.1665L5.00008 1.6665M7.50008 4.1665L5.00008 6.6665M10.8334 4.1665H16.6667C17.1088 4.1665 17.5327 4.3421 17.8453 4.65466C18.1578 4.96722 18.3334 5.39114 18.3334 5.83317V14.1665C18.3334 14.6085 18.1578 15.0325 17.8453 15.345C17.5327 15.6576 17.1088 15.8332 16.6667 15.8332H12.5001M12.5001 15.8332L15.0001 18.3332M12.5001 15.8332L15.0001 13.3332M12.5001 9.99984C12.5001 11.3805 11.3808 12.4998 10.0001 12.4998C8.61937 12.4998 7.50008 11.3805 7.50008 9.99984C7.50008 8.61913 8.61937 7.49984 10.0001 7.49984C11.3808 7.49984 12.5001 8.61913 12.5001 9.99984Z" stroke="#B3B6C3" stroke-width="1.5" stroke-linecap="round" stroke-linejoin="round"/>
</g>
<defs>
<clipPath id="clip0_2135_11517">
<rect width="20" height="20" fill="white"/>
</clipPath>
</defs>
</svg>
