<svg width="32" height="32" viewBox="0 0 32 32" fill="none" xmlns="http://www.w3.org/2000/svg">
<path d="M18.6668 2.66699V8.00033C18.6668 8.70757 18.9478 9.38585 19.4479 9.88594C19.948 10.386 20.6263 10.667 21.3335 10.667H26.6668M12.0002 20.0003L14.6668 22.667L20.0002 17.3337M20.0002 2.66699H8.00016C7.29292 2.66699 6.61464 2.94794 6.11454 3.44804C5.61445 3.94814 5.3335 4.62641 5.3335 5.33366V26.667C5.3335 27.3742 5.61445 28.0525 6.11454 28.5526C6.61464 29.0527 7.29292 29.3337 8.00016 29.3337H24.0002C24.7074 29.3337 25.3857 29.0527 25.8858 28.5526C26.3859 28.0525 26.6668 27.3742 26.6668 26.667V9.33366L20.0002 2.66699Z" stroke="#BABABA" stroke-width="2.4" stroke-linecap="round" stroke-linejoin="round"/>
</svg>
