<svg width="20" height="20" viewBox="0 0 20 20" fill="none" xmlns="http://www.w3.org/2000/svg">
<path d="M2.5 9.16699H5C5.44203 9.16699 5.86595 9.34259 6.17851 9.65515C6.49107 9.96771 6.66667 10.3916 6.66667 10.8337V13.3337C6.66667 13.7757 6.49107 14.1996 6.17851 14.5122C5.86595 14.8247 5.44203 15.0003 5 15.0003H4.16667C3.72464 15.0003 3.30072 14.8247 2.98816 14.5122C2.67559 14.1996 2.5 13.7757 2.5 13.3337V9.16699ZM2.5 9.16699C2.5 8.18208 2.69399 7.20681 3.0709 6.29687C3.44781 5.38692 4.00026 4.56013 4.6967 3.86369C5.39314 3.16725 6.21993 2.61481 7.12987 2.2379C8.03982 1.86099 9.01509 1.66699 10 1.66699C10.9849 1.66699 11.9602 1.86099 12.8701 2.2379C13.7801 2.61481 14.6069 3.16725 15.3033 3.86369C15.9997 4.56013 16.5522 5.38692 16.9291 6.29687C17.306 7.20681 17.5 8.18208 17.5 9.16699M17.5 9.16699V13.3337M17.5 9.16699H15C14.558 9.16699 14.134 9.34259 13.8215 9.65515C13.5089 9.96771 13.3333 10.3916 13.3333 10.8337V13.3337C13.3333 13.7757 13.5089 14.1996 13.8215 14.5122C14.134 14.8247 14.558 15.0003 15 15.0003H15.8333C16.2754 15.0003 16.6993 14.8247 17.0118 14.5122C17.3244 14.1996 17.5 13.7757 17.5 13.3337M17.5 13.3337V15.0003C17.5 15.8844 17.1488 16.7322 16.5237 17.3573C15.8986 17.9825 15.0507 18.3337 14.1667 18.3337H10" stroke="#DFE7FF" stroke-width="1.5" stroke-linecap="round" stroke-linejoin="round"/>
</svg>
