<svg width="20" height="20" viewBox="0 0 20 20" fill="none" xmlns="http://www.w3.org/2000/svg">
<path d="M13.3334 8.33335H15M13.3334 11.6667H15M5.14169 12.5C5.31347 12.0117 5.63261 11.5887 6.05504 11.2895C6.47747 10.9903 6.98236 10.8296 7.50002 10.8296C8.01768 10.8296 8.52257 10.9903 8.945 11.2895C9.36743 11.5887 9.68657 12.0117 9.85835 12.5M9.16669 9.16669C9.16669 10.0872 8.42049 10.8334 7.50002 10.8334C6.57955 10.8334 5.83335 10.0872 5.83335 9.16669C5.83335 8.24621 6.57955 7.50002 7.50002 7.50002C8.42049 7.50002 9.16669 8.24621 9.16669 9.16669ZM3.33335 4.16669H16.6667C17.5872 4.16669 18.3334 4.91288 18.3334 5.83335V14.1667C18.3334 15.0872 17.5872 15.8334 16.6667 15.8334H3.33335C2.41288 15.8334 1.66669 15.0872 1.66669 14.1667V5.83335C1.66669 4.91288 2.41288 4.16669 3.33335 4.16669Z" stroke="#285DFF" stroke-width="1.5" stroke-linecap="round" stroke-linejoin="round"/>
</svg>
