<svg width="17" height="16" viewBox="0 0 17 16" fill="none" xmlns="http://www.w3.org/2000/svg">
<path d="M6.31022 5.99989C6.46696 5.55434 6.77632 5.17863 7.18352 4.93931C7.59073 4.7 8.06949 4.61252 8.53501 4.69237C9.00053 4.77222 9.42277 5.01424 9.72694 5.37558C10.0311 5.73691 10.1976 6.19424 10.1969 6.66656C10.1969 7.99989 8.19689 8.66656 8.19689 8.66656M8.25016 11.3332H8.25683M5.51683 13.3332C6.78921 13.9859 8.25289 14.1627 9.64409 13.8317C11.0353 13.5007 12.2625 12.6838 13.1047 11.528C13.9468 10.3722 14.3484 8.95367 14.2372 7.52798C14.126 6.10228 13.5092 4.76318 12.498 3.752C11.4868 2.74081 10.1478 2.12404 8.72206 2.01281C7.29636 1.90159 5.87781 2.30323 4.72204 3.14537C3.56627 3.9875 2.74929 5.21474 2.41831 6.60594C2.08733 7.99714 2.26412 9.46082 2.91683 10.7332L1.5835 14.6665L5.51683 13.3332Z" stroke="white" stroke-linecap="round" stroke-linejoin="round"/>
</svg>
