<svg width="20" height="20" viewBox="0 0 20 20" fill="none" xmlns="http://www.w3.org/2000/svg">
<path d="M16.6667 5.83331H9.16666M11.6667 14.1666H4.16666M11.6667 14.1666C11.6667 15.5474 12.7859 16.6666 14.1667 16.6666C15.5474 16.6666 16.6667 15.5474 16.6667 14.1666C16.6667 12.7859 15.5474 11.6666 14.1667 11.6666C12.7859 11.6666 11.6667 12.7859 11.6667 14.1666ZM8.33333 5.83331C8.33333 7.21402 7.21404 8.33331 5.83333 8.33331C4.45262 8.33331 3.33333 7.21402 3.33333 5.83331C3.33333 4.4526 4.45262 3.33331 5.83333 3.33331C7.21404 3.33331 8.33333 4.4526 8.33333 5.83331Z" stroke="white" stroke-width="1.5" stroke-linecap="round" stroke-linejoin="round"/>
</svg>
