<svg width="32" height="32" viewBox="0 0 32 32" fill="none" xmlns="http://www.w3.org/2000/svg">
<path d="M16.4946 14.2688C16.4782 15.6061 17.6492 16.3524 18.5313 16.7961C19.4376 17.2513 19.7421 17.5433 19.7385 17.9504C19.7317 18.5734 19.0155 18.8484 18.3454 18.8591C17.1762 18.8778 16.4963 18.5332 15.9559 18.2726L15.5347 20.3071C16.0769 20.565 17.081 20.7899 18.1222 20.7998C20.5662 20.7998 22.1652 19.5545 22.1739 17.6236C22.1834 15.1731 18.8902 15.0375 18.9127 13.9421C18.9205 13.61 19.2275 13.2556 19.9002 13.1655C20.2332 13.12 21.1525 13.0851 22.1947 13.5805L22.6037 11.6122C22.0432 11.4015 21.3229 11.1998 20.4261 11.1998C18.1257 11.1998 16.5077 12.4621 16.4946 14.2688ZM26.5343 11.3694C26.088 11.3694 25.7119 11.6381 25.544 12.0504L22.0528 20.6552H24.4951L24.9811 19.2688H27.9655L28.2474 20.6552H30.4L28.5216 11.3694H26.5343ZM26.8759 13.8778L27.5807 17.3648H25.6504L26.8759 13.8778ZM13.5335 11.3695L11.6084 20.6551H13.9357L15.8599 11.3692L13.5335 11.3695ZM10.0907 11.3695L7.66834 17.6897L6.68846 12.3157C6.57349 11.7158 6.11944 11.3694 5.61521 11.3694H1.65544L1.59998 11.639C2.4129 11.8211 3.33653 12.1148 3.8961 12.429C4.23855 12.621 4.3362 12.7888 4.4487 13.2449L6.30461 20.6552H8.76398L12.5345 11.3694L10.0907 11.3695Z" fill="white"/>
</svg>
