<svg width="19" height="17" viewBox="0 0 19 17" fill="none" xmlns="http://www.w3.org/2000/svg">
<path d="M9.08346 9.08333H9.09179M12.4168 4.08333V2.41667C12.4168 1.97464 12.2412 1.55072 11.9286 1.23816C11.6161 0.925595 11.1921 0.75 10.7501 0.75H7.41679C6.97476 0.75 6.55084 0.925595 6.23828 1.23816C5.92572 1.55072 5.75012 1.97464 5.75012 2.41667V4.08333M17.4168 9.91667C14.9441 11.5491 12.0464 12.4194 9.08346 12.4194C6.1205 12.4194 3.2228 11.5491 0.750122 9.91667M2.41679 4.08333H15.7501C16.6706 4.08333 17.4168 4.82953 17.4168 5.75V14.0833C17.4168 15.0038 16.6706 15.75 15.7501 15.75H2.41679C1.49631 15.75 0.750122 15.0038 0.750122 14.0833V5.75C0.750122 4.82953 1.49631 4.08333 2.41679 4.08333Z" stroke="currentColor" stroke-width="1.5" stroke-linecap="round" stroke-linejoin="round"/>
</svg>
