<svg width="19" height="19" viewBox="0 0 19 19" fill="none" xmlns="http://www.w3.org/2000/svg">
<path d="M8.25 14.9167H2.41667C1.97464 14.9167 1.55072 14.7411 1.23816 14.4285C0.925595 14.116 0.75 13.692 0.75 13.25V4.91667C0.75 4.47464 0.925595 4.05072 1.23816 3.73816C1.55072 3.42559 1.97464 3.25 2.41667 3.25H6.58333M6.58333 3.25L4.08333 0.75M6.58333 3.25L4.08333 5.75M9.91667 3.25H15.75C16.192 3.25 16.6159 3.42559 16.9285 3.73816C17.2411 4.05072 17.4167 4.47464 17.4167 4.91667V13.25C17.4167 13.692 17.2411 14.116 16.9285 14.4285C16.6159 14.7411 16.192 14.9167 15.75 14.9167H11.5833M11.5833 14.9167L14.0833 17.4167M11.5833 14.9167L14.0833 12.4167M11.5833 9.08333C11.5833 10.464 10.464 11.5833 9.08333 11.5833C7.70262 11.5833 6.58333 10.464 6.58333 9.08333C6.58333 7.70262 7.70262 6.58333 9.08333 6.58333C10.464 6.58333 11.5833 7.70262 11.5833 9.08333Z" stroke="currentColor" stroke-width="1.5" stroke-linecap="round" stroke-linejoin="round"/>
</svg>
