<svg width="18" height="17" viewBox="0 0 18 17" fill="none" xmlns="http://www.w3.org/2000/svg">
<path d="M14.0833 4.08333V1.58333C14.0833 1.36232 13.9955 1.15036 13.8393 0.994078C13.683 0.837797 13.471 0.75 13.25 0.75H2.41667C1.97464 0.75 1.55072 0.925595 1.23816 1.23816C0.925595 1.55072 0.75 1.97464 0.75 2.41667M0.75 2.41667C0.75 2.85869 0.925595 3.28262 1.23816 3.59518C1.55072 3.90774 1.97464 4.08333 2.41667 4.08333H14.9167C15.1377 4.08333 15.3496 4.17113 15.5059 4.32741C15.6622 4.48369 15.75 4.69565 15.75 4.91667V8.25M0.75 2.41667V14.0833C0.75 14.5254 0.925595 14.9493 1.23816 15.2618C1.55072 15.5744 1.97464 15.75 2.41667 15.75H14.9167C15.1377 15.75 15.3496 15.6622 15.5059 15.5059C15.6622 15.3496 15.75 15.1377 15.75 14.9167V11.5833M15.75 8.25H13.25C12.808 8.25 12.384 8.42559 12.0715 8.73816C11.7589 9.05072 11.5833 9.47464 11.5833 9.91667C11.5833 10.3587 11.7589 10.7826 12.0715 11.0952C12.384 11.4077 12.808 11.5833 13.25 11.5833H15.75M15.75 8.25C15.971 8.25 16.183 8.3378 16.3393 8.49408C16.4955 8.65036 16.5833 8.86232 16.5833 9.08333V10.75C16.5833 10.971 16.4955 11.183 16.3393 11.3393C16.183 11.4955 15.971 11.5833 15.75 11.5833" stroke="currentColor" stroke-width="1.5" stroke-linecap="round" stroke-linejoin="round"/>
</svg>
