<svg width="17" height="19" viewBox="0 0 17 19" fill="none" xmlns="http://www.w3.org/2000/svg">
<path d="M8.44798 0.75H8.08132C7.63929 0.75 7.21537 0.925595 6.90281 1.23816C6.59024 1.55072 6.41465 1.97464 6.41465 2.41667V2.56667C6.41435 2.85894 6.3372 3.14599 6.19093 3.39903C6.04467 3.65207 5.83443 3.8622 5.58132 4.00833L5.22298 4.21667C4.96962 4.36295 4.68221 4.43996 4.38965 4.43996C4.09709 4.43996 3.80968 4.36295 3.55632 4.21667L3.43132 4.15C3.04887 3.92939 2.59451 3.86954 2.16798 3.98359C1.74146 4.09764 1.37761 4.37628 1.15632 4.75833L0.972983 5.075C0.752369 5.45745 0.69252 5.9118 0.806573 6.33833C0.920627 6.76486 1.19926 7.12871 1.58132 7.35L1.70632 7.43333C1.95821 7.57876 2.16767 7.78757 2.31386 8.03903C2.46005 8.29048 2.53789 8.57581 2.53965 8.86667V9.29167C2.54082 9.58535 2.46436 9.87413 2.31802 10.1288C2.17168 10.3834 1.96066 10.5948 1.70632 10.7417L1.58132 10.8167C1.19926 11.038 0.920627 11.4018 0.806573 11.8283C0.69252 12.2549 0.752369 12.7092 0.972983 13.0917L1.15632 13.4083C1.37761 13.7904 1.74146 14.069 2.16798 14.1831C2.59451 14.2971 3.04887 14.2373 3.43132 14.0167L3.55632 13.95C3.80968 13.8037 4.09709 13.7267 4.38965 13.7267C4.68221 13.7267 4.96962 13.8037 5.22298 13.95L5.58132 14.1583C5.83443 14.3045 6.04467 14.5146 6.19093 14.7676C6.3372 15.0207 6.41435 15.3077 6.41465 15.6V15.75C6.41465 16.192 6.59024 16.6159 6.90281 16.9285C7.21537 17.2411 7.63929 17.4167 8.08132 17.4167H8.44798C8.89001 17.4167 9.31393 17.2411 9.62649 16.9285C9.93905 16.6159 10.1147 16.192 10.1147 15.75V15.6C10.1149 15.3077 10.1921 15.0207 10.3384 14.7676C10.4846 14.5146 10.6949 14.3045 10.948 14.1583L11.3063 13.95C11.5597 13.8037 11.8471 13.7267 12.1396 13.7267C12.4322 13.7267 12.7196 13.8037 12.973 13.95L13.098 14.0167C13.4804 14.2373 13.9348 14.2971 14.3613 14.1831C14.7878 14.069 15.1517 13.7904 15.373 13.4083L15.5563 13.0833C15.7769 12.7009 15.8368 12.2465 15.7227 11.82C15.6087 11.3935 15.33 11.0296 14.948 10.8083L14.823 10.7417C14.5686 10.5948 14.3576 10.3834 14.2113 10.1288C14.0649 9.87413 13.9885 9.58535 13.9897 9.29167V8.875C13.9885 8.58132 14.0649 8.29254 14.2113 8.03791C14.3576 7.78328 14.5686 7.57184 14.823 7.425L14.948 7.35C15.33 7.12871 15.6087 6.76486 15.7227 6.33833C15.8368 5.9118 15.7769 5.45745 15.5563 5.075L15.373 4.75833C15.1517 4.37628 14.7878 4.09764 14.3613 3.98359C13.9348 3.86954 13.4804 3.92939 13.098 4.15L12.973 4.21667C12.7196 4.36295 12.4322 4.43996 12.1396 4.43996C11.8471 4.43996 11.5597 4.36295 11.3063 4.21667L10.948 4.00833C10.6949 3.8622 10.4846 3.65207 10.3384 3.39903C10.1921 3.14599 10.1149 2.85894 10.1147 2.56667V2.41667C10.1147 1.97464 9.93905 1.55072 9.62649 1.23816C9.31393 0.925595 8.89001 0.75 8.44798 0.75Z" stroke="currentColor" stroke-width="1.5" stroke-linecap="round" stroke-linejoin="round"/>
<path d="M8.26465 11.5833C9.64536 11.5833 10.7646 10.464 10.7646 9.08333C10.7646 7.70262 9.64536 6.58333 8.26465 6.58333C6.88394 6.58333 5.76465 7.70262 5.76465 9.08333C5.76465 10.464 6.88394 11.5833 8.26465 11.5833Z" stroke="currentColor" stroke-width="1.5" stroke-linecap="round" stroke-linejoin="round"/>
</svg>
