<?xml version="1.0" encoding="UTF-8"?>
<svg width="41" height="26" id="Layer_1" data-name="Layer 1" xmlns="http://www.w3.org/2000/svg" viewBox="0 0 1500 899.25">
  <defs>
    <style>
      .cls-1 {
        fill: #a58c2e;
      }

      .cls-2 {
        fill: #e6d285;
      }

      .cls-3 {
        fill: #cbb561;
      }

      .cls-4 {
        fill: #d1bc66;
      }

      .cls-5 {
        fill: #334553;
      }

      .cls-6 {
        fill: #bda54c;
      }

      .cls-7 {
        fill: #f0dc92;
      }

    </style>
  </defs>
  <path class="cls-5" d="M70.35,26.45l1100.81-.25c15.37,1.12,20.87,9.38,24.88,23.1,19.42,66.45,26.37,160.13,22.71,229.09-11.17,210.31-133.43,431.09-307.7,549.09-64.65,43.77-112.94,52.71-190.7,52.32-216.62-1.09-433.52-.83-650.25-.75-30.83-1.79-42.2-14.04-43.87-44.59V70.04c1.72-31.3,13.33-41.71,44.13-43.59ZM898.5,337.22c-31.76,8.92-55.59,32.18-62.25,65.2-1.43,7.07-2.27,15.29-2.25,22.48.05,17.53,3.03,31.98,9.75,47.96,12.16,28.91,31.02,45.55,62.25,51.71,12.48,2.46,22.36,3.12,35.25,1.5,44.86-5.65,74.1-42.31,80.25-85.43,2.02-14.15,1.47-22.95-.75-36.72-5.17-32.1-20.73-53.06-51.75-64.45-14.84-5.45-32.17-7.79-48-6.74-7.7.51-15.13,2.43-22.5,4.5ZM273.75,436.89c9.68-.2,19.3.64,28.84.78,15.88.24,31.79-.24,47.66-.03v71.57c0,4.01,5.04,9.35,8.78,10.71,4.25,1.54,21.59,1.57,25.72-.21,4.4-1.89,7.01-6.28,7.91-10.84-1.66-45.15,3.36-93.53.37-138.33-.73-10.86-4.47-21.8-13.58-28.39-11.14-8.06-29.52-6.38-35.2,7.06,5.13-.19,6.33,5.16,6.74,9.38,1.18,12,.03,28.34-.74,40.47-.2,3.1.12,6.26,0,9.36-18.73.18-37.52-.26-56.25,0-2.99.04-6.01-.08-9,0-2.72.07-5.29.68-8.25.75-1.99.05-4.01-.03-6,0-.11-1.98.17-4.03,0-6-1.25-15.25,3.01-39.8,7.5-54.7.66-2.21,1.69-4.33,1.49-6.74-12.69,2.38-23.33,7.64-30.3,18.8-5.81,9.29-9.11,21.41-10.94,32.16-2.82,16.6-2.67,30.79-.75,47.21.62,5.29,1.27,8.42,2.25,13.49.55,2.86.75,5.14,1.5,8.24.71,2.92,1.4,5.38,2.25,8.24,5.22,17.56,13.24,35.72,27.74,47.59,2.1,1.72,14.54,10.04,16.43,7.02-.19-5.52-3.95-10.62-5.93-16.01-6.73-18.34-12.1-48.38-11.24-67.83.06-1.25-.05-2.51,0-3.75,1-.02,2,.02,3,0ZM428.25,361.95c-.14,6.48.04,13,0,19.48-.14,20.44-.36,41.02,0,61.45.69,39.21,11.41,73.27,54.75,81.68,12.39,2.4,28.62,2.49,41.25,1.5,41.55-3.27,61.69-33.49,63.75-72.69.83-15.67.05-32.87,0-48.71-.05-17.33,1.16-37.24-.83-54.25-.85-7.25-7.47-12.44-14.54-13.2-11.49-1.24-25.41.6-26.66,14.59-2.68,30.03,1.25,64.79.03,95.58-.98,24.72-9.4,44.49-37.5,44.96-22.66.38-36.5-14.44-38.24-36.36-1.41-17.83.05-39.07-.01-57.32-.05-14.58,1.2-31.87-.01-46.07-.33-3.92-2.69-7.13-5.24-10.13-4.43-5.22-9.21-5.2-15.75-5.25s-13.5.38-17.99,6.37c-4.21,5.62-2.87,11.82-3.01,18.35ZM624,384.43c-.35,11.22-.41,22.5-.75,33.72-.2,6.5-.58,13-.75,19.48-.49,18.23-1.25,36.48-1.5,54.7-.15,11.07-2.43,24.42,10.52,28.83,11.75,4,21.4-3.97,22.47-15.73,1.47-16.17.33-36.14.76-52.82.07-2.58.75-6.12.75-7.87v-35.22c0-3.33.62-8.47.75-12.36.06-1.74-.61-4.07.75-5.25,3.56,11.11,9.64,21.2,15,31.47,7.3,13.99,17.17,35.53,26.08,47.76,3.16,4.34,5.43,5.86,10.67,6.95,8.02,1.66,12.52-.61,17.58-6.79,8.83-16.25,16.86-32.9,25.17-49.41,5.71-11.34,12.53-22.31,16.51-34.47,1.04-1.12,1.36.08,1.49,1.11.52,4.05-.08,9.58,0,13.88.21,11.97.42,24,.75,35.97.3,10.93,1.13,22.18,1.5,32.97.2,5.72-.24,11.52,0,17.24.3,7.07-.18,19.45,2.86,25.24,6.59,12.51,32.95,11.66,36.92-2.35,1.55-5.45.85-16.42.74-22.55-.26-15.77-1.74-31.79-2.28-47.55-.2-5.72-.54-11.49-.75-17.24-.39-10.72-.4-21.48-.75-32.22-.38-11.8-.27-24.35-1.5-35.97-.4-3.78.28-7.28-2.35-10.77-1.64-2.16-6.8-6.51-9.44-7.05-4.08-.83-21.6-.71-26.01-.1-5.94.81-9.78,5.97-12.33,10.91l-40.24,81.2c-6.53-12.39-12.75-24.98-19.12-37.47-5.25-10.29-10.59-20.45-15.75-30.72-2.06-4.1-3.92-6.88-6-10.49-.68-1.18-.97-4.14-2.38-6.24-3.19-4.77-8.59-6.8-14.12-7.24-5.23-.42-16.29-.62-21.31.07-17.16,2.36-12.8,26.5-13.16,38.56-.07,2.49-.69,5.02-.78,7.84ZM207.75,429.39c.03,15.23,2.32,27.49,6.75,41.96.93,3.05,1.86,6.01,3,8.99s2.48,5.47,3.75,8.24c1.55,3.39,2.67,5.71,4.5,8.99,5.31,9.53,11.27,18.56,19.49,25.86,1.03.91,11.03,7.37,9.75,8.61-14.51-3.12-26.69-15.67-34.5-27.72-1.4-2.16-3.25-5.24-4.5-7.49-1.1-1.98-2.72-5.34-3.75-7.49-1.36-2.83-3.43-6.97-4.5-9.74-2.65-6.86-4.62-14.54-6-21.74-2.33-2.21-6.47,6.69-7.11,8.26-4.23,10.44-3.31,17.46.36,27.71,1.29,3.6,2.02,4.97,3.75,8.24,1.87,3.54,3.11,5.13,5.25,8.24s2.84,3.92,5.25,6.74c13.84,16.27,33.6,26.52,55.84,26.26,3.97-.05,19.25-2.64,19.14-7.92-.06-2.73-8.31-4.26-10.98-5.47-18.42-8.33-29.66-26.24-37-44.34-.98-2.43-2.12-5.71-3-8.24-1.07-3.11-1.24-6.24-3-8.99l-1.86-8.3c.07-.83-1.05-1.79-1.14-2.19-3.02-13.36-4.26-30.44-3.75-44.21.34-9.11,1.45-19.13,3.96-27.89.62-2.18,2.49-4.99,2.8-6.95.48-3.08-5.3,2.25-6.04,2.97-13.88,13.54-16.52,28.98-16.48,47.61Z"/>
  <path class="cls-6" d="M1308.75,490.09l-2.63-2.25c-13.11-38.45-27.57-76.43-41.23-114.67-3.99-11.18-7.34-24.29-12.17-35.05-.58-1.3-.48-2.51-2.47-2.4,13.2-83.72,12.59-180.35-9.21-262.44-3.1-11.68-9.68-26.91-11.45-38.02-1.28-8.04.41-9.49,8.32-9.06,74.63,4.08,108.66,81.23,117.97,145.15,14.14,97.14-14.64,226.66-47.13,318.73Z"/>
  <path class="cls-6" d="M1322.25,537.3c44.22-95.53,69.65-198.97,73.53-304.59l-.03-35.62c9.38,2.24,17.21,9.59,23.23,16.88,84.92,102.88,36.48,290.83-24.13,395.5-8.95,15.45-18.8,29-29.1,43.24l-43.5-115.4Z"/>
  <path class="cls-1" d="M1119.75,879.02c-87.81,1.72-175.82-1.31-263.66.04l-2.53-1.24.29-2.57c41.47-17.6,81.19-39.54,117.64-66.06,33.47-24.35,65.93-53.71,93.51-84.54l54.75,154.37Z"/>
  <path class="cls-7" d="M1205.25,496.09c2.02-.27,2.99,4.27,3.56,5.81,13.48,36.37,24.94,74.71,39.36,110.54.56,1.39,1.64,5.34,3.57,5.05-16.97,30.2-35.84,57.86-57.75,84.68-6.32-16.11-11.58-32.63-17.42-48.92-6.15-17.18-12.01-35.21-19.1-52.1-.56-1.33-.53-2.5-2.48-2.4,18.57-32.38,36.25-68.05,50.25-102.66Z"/>
  <path class="cls-2" d="M1194,702.16c-5.3,6.49-12.17,13.18,1.5,5.25l27,74.94c-13.8,7.08-26.5,12.66-41.25,17.99l-55.5-153.62c10.11-15.1,20.14-32.08,29.25-47.96,1.95-.1,1.92,1.06,2.48,2.4,7.1,16.89,12.95,34.93,19.1,52.1,5.83,16.29,11.1,32.81,17.42,48.92Z"/>
  <path class="cls-7" d="M1300.5,727.64c-25.08,23.06-47.56,39.08-78,54.7l-27-74.94c26.97-15.64,53.57-43.42,71.25-68.94,1.95,3.11,3.61,7.66,4.88,11.24,8.37,23.68,15.97,48.14,25.1,71.59.86,2.2,1.53,5.26,3.78,6.34Z"/>
  <path class="cls-6" d="M1161,876.77c-4.2.43-10.93,1.5-14.62,1.5h-12c-4.5,0-9.85.66-14.62.75l-54.75-154.37c9.6-10.73,19.68-22.48,28.5-33.72,1.97-.12,1.88,1.13,2.49,2.39,2.34,4.91,4.59,12.12,6.53,17.46,18.78,51.83,39.73,105.57,56.58,157.79.85,2.63,1.8,5.43,1.9,8.21Z"/>
  <path class="cls-2" d="M1231.5,419.65c1.82-.36,2.63,2.77,3.13,3.99,17.06,41.68,29.46,86.61,45.98,128.66l2.64,2.24c-9.71,21.36-20,42.49-31.5,62.95-1.93.29-3.02-3.66-3.57-5.05-14.43-35.83-25.88-74.17-39.36-110.54-.57-1.54-1.54-6.08-3.56-5.81,9.88-24.43,19.05-51.08,26.25-76.44Z"/>
  <path class="cls-3" d="M1167,804.83c-.21.07-.71.86-1.47,1.13-6.97,2.45-14.7,3.62-20.27,9,8.55-.68,17.04-1.97,25.48-3.38l20.25,60.7c-9.93,1.71-19.97,3.47-30,4.5-.1-2.79-1.06-5.59-1.9-8.21-16.86-52.22-37.81-105.96-56.58-157.79-1.93-5.34-4.18-12.54-6.53-17.46-.6-1.26-.52-2.51-2.49-2.39,7.03-8.96,14.34-19.07,21-28.48l2.64,2.24,49.86,140.14Z"/>
  <path class="cls-7" d="M1309.5,753.87l23.25,67.44c-27.3,15.79-53.21,26.25-83.25,35.97l-21-59.95c26.27-9.36,58.53-26.79,81-43.46Z"/>
  <path class="cls-6" d="M1377,687.18c.18-.23.2-1.18.73-1.86,20.44-26.37,38.23-54.88,52.53-85.06,1.72-.36,1.2.19,1.68.95,2.03,3.24,4.97,11.43,6.37,15.35,20.18,56.41,3,101.33-33.56,144.81-1.92.38-2.32-2.3-2.81-3.56-9-23.24-16.52-47.18-24.94-70.63Z"/>
  <path class="cls-3" d="M1308.75,490.09c-5.65,16.02-11.31,31.43-18,47.21l-2.63-1.47c-15.39-43.34-30.52-86.79-46.11-130.06-.82-2.26-1.94-7.53-4.51-7.85,5.07-20.25,9.5-41.57,12.75-62.2,2-.11,1.89,1.1,2.47,2.4,4.83,10.77,8.17,23.88,12.17,35.05,13.67,38.24,28.12,76.22,41.23,114.67l2.63,2.25Z"/>
  <path class="cls-2" d="M1332.75,694.67c-10.37,11.76-20.58,22.24-32.25,32.97-2.24-1.08-2.92-4.14-3.78-6.34-9.13-23.46-16.73-47.91-25.1-71.59-1.27-3.58-2.92-8.13-4.88-11.24.29-.41.22-1.9.86-2.48l26.89-43.24,38.25,101.92Z"/>
  <path class="cls-3" d="M1365.75,652.71c-7.6,10.51-14.74,20.48-23.25,30.72l-39.75-105.66c6.61-12.56,13.44-27.38,19.5-40.47l43.5,115.4Z"/>
  <path class="cls-2" d="M1365.75,798.83c-10.87,8.52-20.64,15.33-33,22.48l-23.25-67.44c10.35-7.68,21.39-17.34,30.75-26.23l25.5,71.19Z"/>
  <path class="cls-2" d="M1228.5,797.33l21,59.95c-14.3,4.63-27.16,8.78-42,11.99l-20.25-60.7c13.51-2.91,28.26-6.61,41.25-11.24Z"/>
  <path class="cls-3" d="M1377,687.18c8.42,23.45,15.94,47.39,24.94,70.63.49,1.25.89,3.94,2.81,3.56-8.53,10.14-16.36,18.14-26.25,26.98l-26.25-72.69c8.12-8.52,17.5-19.23,24.75-28.48Z"/>
  <path class="cls-4" d="M1181.25,800.33c-4.71,1.7-9.69,2.9-14.25,4.5l-49.86-140.14-2.64-2.24c3.64-5.15,7.84-10.64,11.25-15.74l55.5,153.62Z"/>
  <path class="cls-4" d="M1237.5,397.92c2.58.32,3.7,5.59,4.51,7.85,15.59,43.27,30.72,86.71,46.11,130.06l2.63,1.47c-2.46,5.81-4.89,11.49-7.5,17.24l-2.64-2.24c-16.52-42.04-28.93-86.97-45.98-128.66-.5-1.22-1.31-4.35-3.13-3.99,2.03-7.15,4.2-14.55,6-21.73Z"/>
  <path class="cls-4" d="M1302.75,577.77l39.75,105.66c-3.23,3.89-6.45,7.49-9.75,11.24l-38.25-101.92c1.2-5.61,5.8-10.32,8.25-14.99Z"/>
  <path class="cls-4" d="M1378.5,788.34c-4.63,4.14-7.93,6.72-12.75,10.49l-25.5-71.19c3.79-3.6,8.39-8.2,12-11.99l26.25,72.69Z"/>
  <path class="cls-4" d="M1187.25,808.58l20.25,60.7c-5.5,1.19-10.96,2.04-16.5,3l-20.25-60.7c5.49-.92,11.06-1.82,16.5-3Z"/>
  <path class="cls-6" d="M294,408.41c18.73-.26,37.52.19,56.25,0,.12-3.1-.19-6.26,0-9.36.77-12.13,1.91-28.47.74-40.47-.41-4.22-1.62-9.57-6.74-9.38,5.68-13.44,24.06-15.12,35.2-7.06,9.11,6.59,12.86,17.53,13.58,28.39,2.99,44.8-2.03,93.18-.37,138.33-.9,4.56-3.51,8.95-7.91,10.84-4.13,1.78-21.48,1.74-25.72.21-3.74-1.36-8.78-6.69-8.78-10.71v-71.57c-15.87-.21-31.78.27-47.66.03-9.54-.14-19.17-.98-28.84-.78-.19-2.14,1.54-3.6,2.71-5.17,4.85-6.53,11.33-12.72,15.92-19.31.86-1.24,1.82-2.33,1.63-4Z"/>
  <path class="cls-7" d="M807,355.95c-1.69-.16-2.74,2.31-3.61,3.51-10.08,13.89-20.34,27.64-30.48,41.48l-3.41,1.46c-.07-4.3.52-9.83,0-13.88-.13-1.03-.45-2.24-1.49-1.11-3.98,12.16-10.8,23.13-16.51,34.47l-3.73,2.65-39.02,53.55c-5.24-1.08-7.51-2.61-10.67-6.95-8.91-12.22-18.78-33.77-26.08-47.76,1.6.02,2.05-.94,2.88-1.99,6.62-8.34,12.55-19.13,19.63-26.85.89-.97,1.5-1.86,2.99-1.88,6.37,12.48,12.59,25.08,19.12,37.47l40.24-81.2c2.56-4.93,6.4-10.1,12.33-10.91,4.41-.6,21.93-.73,26.01.1,2.64.54,7.81,4.89,9.44,7.05,2.63,3.48,1.95,6.99,2.35,10.77Z"/>
  <path class="cls-7" d="M470.25,398.67c.06,18.25-1.4,39.48.01,57.32,1.73,21.92,15.58,36.74,38.24,36.36l-25.5,32.22c-43.34-8.41-54.06-42.47-54.75-81.68,1.82-.16,3-1.75,4.13-2.99,10.92-11.97,21.08-25.91,32.23-37.49,1.53-1.59,3.15-3.98,5.63-3.74Z"/>
  <path class="cls-2" d="M969,339.47c-4.96,8.66-15.2,14.27-19.5,23.23-2.31-1.11-10.61-3.38-13.2-3.67-48.91-5.41-61.71,39.65-58.05,79.35l-3.4,1.47-31.1,33c-6.72-15.98-9.7-30.43-9.75-47.96,1.75-.14,2.94-1.05,4.16-2.22,28.1-26.92,53.28-59.32,81.37-86.56l1.47-3.4c15.83-1.04,33.16,1.3,48,6.74Z"/>
  <path class="cls-2" d="M588,404.66c.05,15.84.83,33.03,0,48.71-2.7-.1-5.05,3.01-6.77,4.85-19.32,20.71-36.48,43.38-55.82,64.13l-1.16,3.71c-12.63.99-28.86.91-41.25-1.5l25.5-32.22c28.1-.47,36.52-20.24,37.5-44.96,2.62.16,4.75-2.72,6.39-4.49,10.69-11.53,20.92-26.15,31.96-37.01,1.29-1.27,1.81-1.49,3.66-1.22Z"/>
  <path class="cls-7" d="M588,404.66c-1.85-.27-2.37-.06-3.66,1.22-11.03,10.86-21.26,25.49-31.96,37.01-1.64,1.76-3.77,4.65-6.39,4.49,1.22-30.78-2.71-65.55-.03-95.58,1.25-13.98,15.17-15.83,26.66-14.59,7.07.77,13.69,5.95,14.54,13.2,1.99,17,.78,36.92.83,54.25Z"/>
  <path class="cls-7" d="M969,339.47c31.02,11.39,46.58,32.35,51.75,64.45l-42.75,42.71c4.39-26.89-.62-70.59-28.5-83.93,4.3-8.96,14.54-14.57,19.5-23.23Z"/>
  <path class="cls-2" d="M1020.75,403.91c2.22,13.77,2.77,22.57.75,36.72-4.11,2.24-7.97,6.65-11.27,10.1-20.39,21.31-40.49,43.19-60.34,64.85-2.87,3.14-7.87,6.28-8.64,10.48-12.89,1.62-22.77.96-35.25-1.5l20.25-23.23c31.57.83,47.22-26.94,51.75-54.7l42.75-42.71Z"/>
  <path class="cls-7" d="M878.25,438.38c2.54,27.52,15.36,62.09,48,62.95l-20.25,23.23c-31.23-6.15-50.09-22.79-62.25-51.71l31.1-33,3.4-1.47Z"/>
  <path class="cls-2" d="M465,342.46c2.55,3,4.9,6.21,5.24,10.13,1.21,14.2-.04,31.49.01,46.07-2.49-.25-4.1,2.14-5.63,3.74-11.15,11.57-21.31,25.52-32.23,37.49-1.13,1.24-2.31,2.83-4.13,2.99-.36-20.43-.14-41.01,0-61.45l36.75-38.97Z"/>
  <path class="cls-6" d="M810,441.38c.54,15.76,2.02,31.79,2.28,47.55.1,6.13.8,17.1-.74,22.55-3.97,14-30.34,14.86-36.92,2.35-3.05-5.79-2.57-18.17-2.86-25.24,1.99.37,2.17-.57,3.19-1.68,11.5-12.6,20.61-31.08,32.07-43.64.89-.97,1.5-1.86,2.99-1.88Z"/>
  <path class="cls-2" d="M656.25,397.17c-.13,3.89-.75,9.04-.75,12.36v35.22c0,1.75-.68,5.29-.75,7.87-1.64-.22-2.32.44-3.41,1.46-9.17,8.64-17.72,27.07-27.01,36.71-1.08,1.12-1.53,1.81-3.33,1.55.25-18.23,1.01-36.48,1.5-54.7,1.79.26,2.25-.43,3.33-1.55,9.85-10.22,17.97-26.77,27.68-37.56.91-1.01.62-1.87,2.75-1.36Z"/>
  <path class="cls-4" d="M1021.5,440.63c-6.15,43.11-35.39,79.78-80.25,85.43.77-4.2,5.76-7.35,8.64-10.48,19.85-21.66,39.95-43.54,60.34-64.85,3.3-3.44,7.16-7.85,11.27-10.1Z"/>
  <path class="cls-7" d="M278.25,348.46c-4.49,14.91-8.75,39.46-7.5,54.7-1.81-.27-2.24.45-3.33,1.55-9.27,9.33-17.81,23.05-26.81,33.16-.86.97-1.16,2.08-2.86,2.01-1.92-16.42-2.07-30.61.75-47.21,2.07.43,2.17-.69,3.18-1.69,11.97-11.92,21.81-29.1,33.84-41.14.85-.85.53-1.96,2.73-1.38Z"/>
  <path class="cls-6" d="M209.25,517.07c4.63-3.37,7.53-8.49,11.25-12.74,7.81,12.06,19.98,24.6,34.5,27.72,1.27-1.23-8.72-7.69-9.75-8.61-8.23-7.31-14.18-16.33-19.49-25.86l10.5-11.99c7.34,18.1,18.57,36.01,37,44.34,2.67,1.21,10.93,2.75,10.98,5.47.11,5.28-15.17,7.87-19.14,7.92-22.24.26-42-9.99-55.84-26.26Z"/>
  <path class="cls-6" d="M270.75,440.63c-.87,19.46,4.51,49.49,11.24,67.83,1.98,5.39,5.74,10.49,5.93,16.01-1.89,3.02-14.33-5.3-16.43-7.02-14.5-11.88-22.52-30.03-27.74-47.59,1.58-.07,2.44-1.2,3.39-2.24,6.78-7.43,12.7-16.61,19.48-24,1.14-1.24,2.31-2.83,4.13-2.99Z"/>
  <path class="cls-7" d="M654.75,452.62c-.43,16.68.71,36.65-.76,52.82-1.07,11.76-10.72,19.73-22.47,15.73-12.95-4.41-10.67-17.76-10.52-28.83,1.79.26,2.25-.43,3.33-1.55,9.29-9.64,17.84-28.06,27.01-36.71,1.08-1.02,1.77-1.68,3.41-1.46Z"/>
  <path class="cls-4" d="M921,332.72l-1.47,3.4c-28.09,27.24-53.27,59.64-81.37,86.56-1.22,1.17-2.41,2.08-4.16,2.22-.02-7.2.82-15.41,2.25-22.48,1.71.29,2.29-.57,3.4-1.47,3.15-2.54,7.16-7.08,10.12-10.13,15.98-16.49,30.96-34.01,47.23-50.23l1.5-3.37c7.37-2.07,14.8-3.99,22.5-4.5Z"/>
  <path class="cls-3" d="M675.75,351.46c-1.61-.02-2.04.94-2.88,1.99-15.99,19.88-30.02,43.87-46.42,63.03-1.01,1.19-1.25,2.01-3.2,1.68.34-11.22.4-22.5.75-33.72,1.78-.11,2.69-1.47,3.73-2.65,8.69-9.91,18.24-24.36,26.14-35.33,1.9-2.63,4.23-5.46,5.39-8.48,5.54.45,10.94,2.48,14.12,7.24,1.41,2.11,1.7,5.06,2.38,6.24Z"/>
  <path class="cls-4" d="M588,453.37c-2.06,39.2-22.2,69.42-63.75,72.69l1.16-3.71c19.34-20.75,36.5-43.41,55.82-64.13,1.72-1.85,4.07-4.95,6.77-4.85Z"/>
  <path class="cls-2" d="M807,355.95c1.23,11.62,1.12,24.17,1.5,35.97-1.9.16-2.97,1.74-4.06,3.06-9.71,11.84-17.87,25.77-27.45,37.76-1.59,1.98-4.09,5.83-6.74,5.63-.33-11.97-.54-24-.75-35.97l3.41-1.46c10.14-13.84,20.4-27.59,30.48-41.48.87-1.2,1.92-3.67,3.61-3.51Z"/>
  <path class="cls-4" d="M808.5,391.92c.35,10.74.36,21.5.75,32.22-1.68-.06-2.01,1.02-2.87,2.01-11.16,12.91-20.34,30.64-31.65,43.32-.88.98-1.51,1.86-2.99,1.88-.37-10.79-1.2-22.05-1.5-32.97,2.64.19,5.15-3.65,6.74-5.63,9.59-11.99,17.75-25.93,27.45-37.76,1.09-1.33,2.15-2.91,4.06-3.06Z"/>
  <path class="cls-2" d="M681.75,361.95c5.16,10.27,10.5,20.43,15.75,30.72-1.49.02-2.1.92-2.99,1.88-7.07,7.72-13.01,18.51-19.63,26.85-.84,1.05-1.28,2.01-2.88,1.99-5.36-10.28-11.44-20.36-15-31.47,8.58-7.47,13.96-19.54,21.76-28.09.89-.97,1.5-1.86,2.99-1.88Z"/>
  <path class="cls-4" d="M675.75,351.46c2.08,3.61,3.94,6.39,6,10.49-1.49.02-2.1.91-2.99,1.88-7.8,8.55-13.18,20.62-21.76,28.09-1.36,1.18-.69,3.5-.75,5.25-2.12-.5-1.84.36-2.75,1.36-9.71,10.78-17.82,27.34-27.68,37.56-1.08,1.12-1.53,1.81-3.33,1.55.17-6.48.55-12.98.75-19.48,1.95.34,2.18-.49,3.2-1.68,16.4-19.16,30.43-43.15,46.42-63.03.84-1.05,1.27-2.01,2.88-1.99Z"/>
  <path class="cls-3" d="M898.5,337.22l-1.5,3.37c-16.28,16.22-31.25,33.74-47.23,50.23-2.95,3.05-6.97,7.58-10.12,10.13-1.11.9-1.69,1.76-3.4,1.47,6.66-33.02,30.49-56.27,62.25-65.2Z"/>
  <path class="cls-6" d="M659.25,337.97c-1.15,3.02-3.49,5.85-5.39,8.48-7.9,10.97-17.45,25.43-26.14,35.33-1.03,1.18-1.95,2.54-3.73,2.65.09-2.82.71-5.35.78-7.84.36-12.06-4-36.2,13.16-38.56,5.02-.69,16.07-.49,21.31-.07Z"/>
  <path class="cls-7" d="M223.5,413.65c-.51,13.78.73,30.85,3.75,44.21-5.06,3.35-7.37,10.69-12.75,13.49-4.43-14.48-6.72-26.73-6.75-41.96,6.39-3.28,9.06-12.7,15.75-15.74Z"/>
  <path class="cls-3" d="M809.25,424.15c.21,5.75.55,11.52.75,17.24-1.49.02-2.1.91-2.99,1.88-11.46,12.56-20.57,31.04-32.07,43.64-1.02,1.12-1.2,2.05-3.19,1.68-.24-5.72.2-11.51,0-17.24,1.48-.03,2.11-.9,2.99-1.88,11.31-12.68,20.48-30.41,31.65-43.32.86-.99,1.19-2.06,2.87-2.01Z"/>
  <path class="cls-2" d="M238.5,392.67c1.83-10.75,5.13-22.87,10.94-32.16,6.98-11.16,17.62-16.41,30.3-18.8.2,2.41-.83,4.53-1.49,6.74-2.21-.58-1.88.52-2.73,1.38-12.03,12.04-21.86,29.22-33.84,41.14-1.01,1-1.11,2.12-3.18,1.69Z"/>
  <path class="cls-4" d="M465,342.46l-36.75,38.97c.04-6.48-.14-13.01,0-19.48,1.38-.04,2.17-.92,3.03-1.84,4.68-4.99,13.21-13.86,16.89-19.1.93-1.33,1.38-2.07,1.08-3.79,6.54.05,11.32.02,15.75,5.25Z"/>
  <path class="cls-2" d="M270.75,403.16c.16,1.97-.12,4.02,0,6,1.99-.04,4.01.04,6,0-.39,1.77-1.9,3.44-3.02,4.85-8.61,10.78-17.39,21.65-26.25,32.23-2.07,2.47-4.47,6.18-7.48,7.14-.98-5.07-1.63-8.2-2.25-13.49,1.7.07,2-1.05,2.86-2.01,9-10.11,17.54-23.83,26.81-33.16,1.09-1.09,1.51-1.82,3.33-1.55Z"/>
  <path class="cls-3" d="M294,408.41c.19,1.66-.76,2.76-1.63,4-4.59,6.59-11.07,12.78-15.92,19.31-1.16,1.57-2.89,3.03-2.71,5.17-1,.02-2.01-.03-3,0-.05,1.24.06,2.51,0,3.75-1.83.16-3,1.75-4.13,2.99-6.78,7.39-12.7,16.57-19.48,24-.95,1.04-1.81,2.17-3.39,2.24-.85-2.86-1.54-5.32-2.25-8.24,1.58-.06,2.43-1.2,3.39-2.24,12.38-13.43,26.54-31.52,37.84-46.12,1.11-1.44,2.4-2.84,2.27-4.85,2.99-.08,6.01.04,9,0Z"/>
  <path class="cls-2" d="M207.75,429.39c-.04-18.63,2.6-34.07,16.48-47.61.73-.72,6.52-6.05,6.04-2.97-.31,1.96-2.17,4.78-2.8,6.95-2.51,8.75-3.62,18.78-3.96,27.89-6.69,3.04-9.36,12.46-15.75,15.74Z"/>
  <path class="cls-2" d="M751.5,421.9c-8.31,16.51-16.35,33.16-25.17,49.41-5.06,6.18-9.56,8.45-17.58,6.79l39.02-53.55,3.73-2.65Z"/>
  <path class="cls-4" d="M285,408.41c.13,2.01-1.16,3.42-2.27,4.85-11.3,14.59-25.46,32.69-37.84,46.12-.95,1.03-1.81,2.17-3.39,2.24-.75-3.11-.95-5.38-1.5-8.24,3.01-.96,5.41-4.66,7.48-7.14,8.86-10.57,17.64-21.45,26.25-32.23,1.12-1.41,2.63-3.08,3.02-4.85,2.96-.07,5.53-.68,8.25-.75Z"/>
  <path class="cls-7" d="M195,493.84c-3.67-10.26-4.59-17.27-.36-27.71.63-1.57,4.78-10.47,7.11-8.26,1.38,7.19,3.36,14.87,6,21.74-4.28,4.38-7.4,11.31-12.75,14.24Z"/>
  <path class="cls-3" d="M449.25,337.22c.3,1.72-.15,2.46-1.08,3.79-3.67,5.24-12.21,14.11-16.89,19.1-.86.92-1.65,1.8-3.03,1.84.14-6.54-1.21-12.74,3.01-18.35,4.49-5.99,11.14-6.43,17.99-6.37Z"/>
  <path class="cls-2" d="M230.25,468.36c-4.92,2.87-6.78,10.98-12.75,11.99-1.14-2.98-2.07-5.95-3-8.99,5.38-2.8,7.69-10.14,12.75-13.49.09.4,1.21,1.37,1.14,2.19l1.86,8.3Z"/>
  <path class="cls-2" d="M207.75,479.6c1.07,2.78,3.14,6.92,4.5,9.74-4.4,2-6.85,7.59-10.32,11.05-1.01,1-1.11,2.12-3.18,1.69-1.73-3.27-2.46-4.65-3.75-8.24,5.35-2.93,8.47-9.86,12.75-14.24Z"/>
  <path class="cls-4" d="M212.25,489.34c1.03,2.15,2.65,5.51,3.75,7.49-3.21,3.66-5.91,7.85-9.14,11.48-.86.97-1.16,2.08-2.86,2.01-2.14-3.11-3.38-4.7-5.25-8.24,2.07.43,2.17-.69,3.18-1.69,3.47-3.45,5.92-9.05,10.32-11.05Z"/>
  <path class="cls-3" d="M220.5,504.33c-3.72,4.25-6.62,9.37-11.25,12.74-2.41-2.83-3.09-3.6-5.25-6.74,1.7.07,2-1.05,2.86-2.01,3.23-3.63,5.93-7.82,9.14-11.48,1.25,2.25,3.1,5.33,4.5,7.49Z"/>
  <path class="cls-4" d="M233.25,477.35c-4.84,2.01-6.65,10.21-12,11.24-1.27-2.77-2.65-5.36-3.75-8.24,5.97-1.01,7.83-9.12,12.75-11.99,1.76,2.75,1.93,5.89,3,8.99Z"/>
  <path class="cls-3" d="M233.25,477.35c.88,2.53,2.02,5.81,3,8.24l-10.5,11.99c-1.83-3.28-2.95-5.6-4.5-8.99,5.35-1.03,7.16-9.23,12-11.24Z"/>
  <path class="cls-5" d="M949.5,362.7c27.88,13.34,32.89,57.04,28.5,83.93-4.53,27.76-20.18,55.54-51.75,54.7s-45.46-35.43-48-62.95c-3.66-39.71,9.14-84.77,58.05-79.35,2.6.29,10.89,2.56,13.2,3.67Z"/>
</svg>