<svg width="41" height="26" viewBox="0 0 41 26" fill="none" xmlns="http://www.w3.org/2000/svg">
<g clip-path="url(#clip0_2066_21837)">
<path d="M25.7054 3.12628H14.9619V22.428H25.7054V3.12628Z" fill="#FF5A00"/>
<path d="M15.6775 12.7771C15.6775 8.8556 17.5211 5.37509 20.35 3.12627C18.2681 1.48932 15.6418 0.5 12.7771 0.5C5.99093 0.5 0.5 5.99093 0.5 12.7771C0.5 19.5633 5.99093 25.0542 12.7771 25.0542C15.6418 25.0542 18.2681 24.0649 20.35 22.428C17.5171 20.2109 15.6775 16.6987 15.6775 12.7771Z" fill="#EB001B"/>
<path d="M40.1996 12.7771C40.1996 19.5633 34.7087 25.0542 27.9225 25.0542C25.0578 25.0542 22.4316 24.0649 20.3496 22.428C23.2143 20.1752 25.0221 16.6987 25.0221 12.7771C25.0221 8.8556 23.1785 5.37509 20.3496 3.12627C22.4276 1.48932 25.0539 0.5 27.9185 0.5C34.7087 0.5 40.1996 6.02669 40.1996 12.7771Z" fill="#F79E1B"/>
</g>
<defs>
<clipPath id="clip0_2066_21837">
<rect width="40" height="25" fill="white" transform="translate(0.5 0.5)"/>
</clipPath>
</defs>
</svg>
