<svg width="40" height="26" viewBox="0 0 40 26" fill="none" xmlns="http://www.w3.org/2000/svg">
<g clip-path="url(#clip0_2066_21706)">
<path d="M7.83394 0.5H17.8152C19.215 0.5 20.078 1.63877 19.7528 3.0355L15.1028 22.9722C14.7765 24.3645 13.3801 25.5 11.988 25.5H2.00456C0.608109 25.5 -0.255993 24.3645 0.0680451 22.9722L4.7159 3.0355C5.04214 1.63877 6.43749 0.5 7.83394 0.5Z" fill="#ED171F"/>
<path d="M16.9886 0.5H28.4666C29.8609 0.5 29.2326 1.63877 28.9042 3.0355L24.2552 22.9722C23.9312 24.3645 24.0326 25.5 22.6361 25.5H11.1581C9.75836 25.5 8.89426 24.3645 9.2216 22.9722L13.8684 3.0355C14.1979 1.63877 15.5899 0.5 16.9886 0.5Z" fill="#082F67"/>
<path d="M28.0124 0.5H37.9925C39.389 0.5 40.2575 1.63877 39.9301 3.0355L35.2801 22.9722C34.9538 24.3645 33.5563 25.5 32.1609 25.5H22.1819C20.7865 25.5 19.9202 24.3645 20.2465 22.9722L24.8965 3.0355C25.2217 1.63877 26.617 0.5 28.0124 0.5Z" fill="#006A65"/>
<path d="M9.6867 8.2333C8.61318 8.24432 8.30017 8.2333 8.19766 8.21015C8.15578 8.39204 7.43165 11.7301 7.43165 11.7301C7.27515 12.4069 7.15942 12.8898 6.77697 13.1952C6.55653 13.3782 6.30193 13.4685 6.00545 13.4685C5.53151 13.4685 5.25487 13.2315 5.20527 12.7807L5.20086 12.6307C5.20086 12.6307 5.34304 11.7257 5.34635 11.7202C5.34635 11.7202 6.10244 8.67977 6.23911 8.2785C6.24241 8.25424 6.24682 8.24653 6.25233 8.2355C4.77101 8.24873 4.50759 8.2355 4.49106 8.21235C4.48445 8.24212 4.44146 8.43173 4.44146 8.43173L3.66774 11.8546L3.59941 12.149L3.47266 13.0981C3.47266 13.3793 3.52776 13.6074 3.63798 13.8048C3.99619 14.4254 5.00247 14.5136 5.57339 14.5136C6.30744 14.5136 6.99189 14.3593 7.45811 14.0727C8.2671 13.5964 8.48092 12.8512 8.66609 12.1887L8.75646 11.8469C8.75646 11.8469 9.54011 8.68969 9.67567 8.2785C9.67567 8.25424 9.68008 8.24653 9.6867 8.2355M12.3506 10.7787C12.1622 10.7787 11.8172 10.825 11.5075 10.9771C11.3929 11.0367 11.2848 11.0995 11.1746 11.1679L11.2738 10.7997L11.2198 10.7379C10.564 10.8702 10.4152 10.8923 9.81124 10.976L9.76275 11.0102C9.6867 11.5923 9.63049 12.031 9.36486 13.1808C9.26457 13.5975 9.15986 14.0242 9.05736 14.4486L9.08381 14.5015C9.71315 14.4717 9.89721 14.4717 10.4362 14.4772L10.4825 14.4309C10.5475 14.0793 10.5585 13.9988 10.7128 13.2856C10.7812 12.946 10.9288 12.2052 11.0027 11.9395C11.1405 11.8789 11.2694 11.8216 11.3995 11.8216C11.7026 11.8216 11.664 12.0817 11.6552 12.1898C11.6442 12.3651 11.5295 12.9416 11.416 13.4377L11.3433 13.753C11.2904 13.9922 11.2319 14.2215 11.179 14.4585L11.2033 14.5015C11.815 14.4717 11.9979 14.4717 12.5237 14.4772L12.5843 14.4309C12.6791 13.883 12.7088 13.7353 12.8764 12.9372L12.9612 12.5701C13.1255 11.8502 13.207 11.4876 13.0825 11.191C12.9513 10.8581 12.6361 10.7776 12.3495 10.7776M15.321 11.5305C14.997 11.5934 14.7897 11.6309 14.5858 11.665C14.3808 11.6959 14.1814 11.7246 13.8639 11.7676L13.8397 11.7907L13.8187 11.8083C13.7857 12.0443 13.7636 12.2449 13.7195 12.4841C13.6766 12.7299 13.6225 13.0111 13.5311 13.4112C13.4594 13.7188 13.4231 13.8257 13.3823 13.9338C13.3437 14.0429 13.2996 14.1498 13.2214 14.4497L13.239 14.4761L13.2566 14.5026C13.5498 14.4883 13.7394 14.4783 13.9378 14.4761C14.1362 14.4728 14.3401 14.4761 14.6564 14.4783L14.685 14.4596L14.7137 14.4309C14.7611 14.1575 14.7655 14.0859 14.7942 13.9503C14.8217 13.8081 14.8691 13.6119 14.987 13.086C15.041 12.8336 15.1061 12.5899 15.1634 12.3375C15.2251 12.0817 15.2846 11.8348 15.343 11.5857L15.3331 11.5603L15.3199 11.5294L15.321 11.5305ZM17.975 10.8008C17.6741 10.8008 16.9577 10.8316 16.3956 11.3509C15.9977 11.718 15.8115 12.2251 15.6957 12.7068C15.5844 13.2029 15.4511 14.0903 16.2689 14.4232C16.5246 14.529 16.8861 14.5588 17.1186 14.5588C17.7204 14.5588 18.3343 14.3935 18.7928 13.904C19.1521 13.5082 19.3131 12.9218 19.3671 12.6748C19.5533 11.8668 19.4134 11.4931 19.2326 11.2627C18.9549 10.9154 18.4765 10.8008 17.975 10.8008ZM17.9949 12.6186C17.9706 12.7498 17.8516 13.2569 17.6896 13.4719C17.5793 13.6317 17.4449 13.7276 17.295 13.7276C17.2542 13.7276 16.9952 13.7276 16.9908 13.344C16.9853 13.1544 17.025 12.9581 17.0768 12.7454C17.2101 12.1347 17.3787 11.622 17.7943 11.622C18.1194 11.622 18.1403 12.0068 17.996 12.6186M32.2559 14.4883C32.3473 13.947 32.4366 13.42 32.6758 12.3783C32.7882 11.8822 32.9094 11.385 33.0307 10.8934L33.0086 10.8382C32.3539 10.9573 32.1809 10.9838 31.5538 11.0764L31.5031 11.1127C31.4965 11.1623 31.4898 11.2109 31.4843 11.2583C31.3862 11.0995 31.2419 10.9639 31.0214 10.879C30.7459 10.7732 30.0857 10.9176 29.5236 11.4302C29.1301 11.7951 28.9372 12.2989 28.8259 12.7796C28.7135 13.2657 28.579 14.1542 29.3979 14.4728C29.6558 14.5809 29.8906 14.6128 30.1221 14.604C30.37 14.5908 30.6015 14.4662 30.8153 14.2865C30.7955 14.3604 30.7767 14.4331 30.7569 14.507L30.7955 14.5522C31.3829 14.529 31.5626 14.529 32.1974 14.5301L32.2559 14.4883ZM31.2937 12.3706C31.2716 12.472 31.2474 12.5789 31.2198 12.7002C31.179 12.8777 31.1327 13.054 31.0887 13.2304C31.0446 13.3506 30.9928 13.463 30.9355 13.538C30.8241 13.6901 30.5717 13.7838 30.4229 13.7838C30.3822 13.7838 30.1276 13.7838 30.1176 13.4046C30.1154 13.2205 30.1551 13.0254 30.2003 12.8104C30.3403 12.2151 30.5023 11.7036 30.92 11.7036C31.1845 11.7036 31.3223 11.9495 31.2926 12.3706M22.7783 10.7787C22.5898 10.7787 22.2437 10.825 21.9351 10.9771C21.8249 11.0367 21.7125 11.0995 21.6045 11.1679L21.7037 10.7997L21.6497 10.7379C20.9917 10.8702 20.8484 10.8923 20.24 10.976L20.1926 11.0102C20.1187 11.5923 20.0581 12.031 19.7958 13.1808C19.6966 13.5975 19.5963 14.0242 19.4894 14.4486L19.5203 14.5015C20.1397 14.4717 20.3282 14.4717 20.8649 14.4772L20.9145 14.4309C20.9795 14.0793 20.9906 13.9988 21.1383 13.2856C21.211 12.946 21.3631 12.2052 21.4369 11.9395C21.5703 11.8789 21.7026 11.8216 21.8359 11.8216C22.1313 11.8216 22.0982 12.0817 22.0872 12.1898C22.0729 12.3651 21.9649 12.9416 21.8492 13.4377L21.7764 13.753C21.7191 13.9922 21.6607 14.2215 21.6089 14.4585L21.6309 14.5015C22.2481 14.4717 22.4311 14.4717 22.9535 14.4772L23.0186 14.4309C23.1111 13.883 23.1354 13.7353 23.3073 12.9372L23.3867 12.5701C23.5564 11.8502 23.638 11.4876 23.5145 11.191C23.379 10.8581 23.0615 10.7776 22.7783 10.7776M29.6702 10.0467C29.7131 9.87917 29.7418 9.67743 29.7418 9.479C29.7418 9.21222 29.6911 8.95977 29.539 8.75473C29.1499 8.21566 28.3883 8.20904 27.4978 8.20464L27.0635 8.20904C25.9283 8.22227 25.4775 8.21566 25.2868 8.19141C25.2714 8.27519 25.2372 8.42401 25.2372 8.42401L24.8338 10.3091C24.8338 10.3091 23.8639 14.3097 23.8176 14.4971C24.8052 14.4861 25.2141 14.4861 25.3794 14.5037C25.4224 14.3152 25.6516 13.1952 25.6516 13.1952C25.6516 13.1952 25.8467 12.3783 25.8578 12.3485C25.8578 12.3485 25.9239 12.2647 25.9856 12.2284H26.076C26.928 12.2284 27.8935 12.2284 28.6518 11.6772C29.1621 11.2946 29.5126 10.7313 29.6691 10.0478M28.0676 10.1636C27.9739 10.5803 27.705 10.9342 27.3578 11.1006C27.0657 11.2461 26.7163 11.2583 26.3537 11.2583H26.1179L26.1355 11.1668C26.1355 11.1668 26.5698 9.28718 26.5676 9.29049L26.5808 9.19679L26.5896 9.12182L26.7615 9.13836C26.7615 9.13836 27.6477 9.21332 27.6708 9.21332C28.0213 9.35112 28.1668 9.70499 28.0665 10.1636M37.3821 10.8316L37.3325 10.7743C36.6833 10.9066 36.5653 10.9275 35.9702 11.0047L35.9272 11.0466C35.925 11.0532 35.925 11.0642 35.9206 11.0742L35.9184 11.0631C35.4731 12.0884 35.4896 11.8646 35.1281 12.6693C35.1215 12.634 35.1215 12.6087 35.1215 12.5723L35.0322 10.8305L34.976 10.7732C34.2982 10.9055 34.2794 10.9264 33.6545 11.0036L33.6016 11.0455C33.6016 11.0686 33.5972 11.0929 33.595 11.1138L33.6005 11.1249C33.6743 11.5239 33.66 11.4346 33.735 12.0663C33.7735 12.375 33.8231 12.6892 33.8595 12.9923C33.9201 13.506 33.9554 13.7574 34.0315 14.5401C33.6071 15.2335 33.5068 15.5003 33.1045 16.1121V16.1165L32.8169 16.5718C32.7816 16.6192 32.7529 16.65 32.7099 16.6622C32.6648 16.6853 32.6041 16.6941 32.5237 16.6941H32.3628L32.1269 17.4768L32.9392 17.489C33.4164 17.4868 33.7151 17.2652 33.876 16.9664L34.3852 16.0944H34.3786L34.4304 16.0327C34.7721 15.2952 37.381 10.8283 37.381 10.8283M15.3298 10.5197C15.0322 10.3422 14.5208 10.3973 14.1703 10.6398C13.8198 10.8779 13.7769 11.2086 14.0722 11.385C14.3654 11.5592 14.8867 11.5085 15.2339 11.2649C15.5789 11.0212 15.6263 10.6872 15.3309 10.5186" fill="white"/>
</g>
<defs>
<clipPath id="clip0_2066_21706">
<rect width="40" height="25" fill="white" transform="translate(0 0.5)"/>
</clipPath>
</defs>
</svg>
