<svg width="40" height="26" viewBox="0 0 40 26" fill="none" xmlns="http://www.w3.org/2000/svg">
<path d="M25.7309 6.33334C22.926 6.33334 20.4193 7.78738 20.4193 10.4732C20.4193 13.5537 24.8649 13.7664 24.8649 15.3142C24.8649 15.9659 24.1183 16.5491 22.8426 16.5491C21.0327 16.5491 19.6799 15.7341 19.6799 15.7341L19.1009 18.4449C19.1009 18.4449 20.6594 19.1333 22.7283 19.1333C25.795 19.1333 28.2083 17.6081 28.2083 14.876C28.2083 11.6208 23.7442 11.4144 23.7442 9.97811C23.7442 9.4676 24.3571 8.90845 25.6289 8.90845C27.0639 8.90845 28.2344 9.50121 28.2344 9.50121L28.8011 6.8834C28.8011 6.8834 27.527 6.33334 25.7305 6.33334H25.7309ZM0.0680157 6.53106L0 6.92611C0 6.92611 1.17999 7.14202 2.24294 7.57305C3.61155 8.06695 3.70883 8.35483 3.93937 9.24774L6.45081 18.9293H9.81759L15.0042 6.53106H11.6453L8.31255 14.9607L6.95263 7.81506C6.82806 6.99729 6.19615 6.53067 5.42307 6.53067H0.0684111L0.0680157 6.53106ZM16.355 6.53106L13.7202 18.9293H16.9233L19.5486 6.53106H16.355ZM34.2194 6.53106C33.4471 6.53106 33.0378 6.94469 32.7377 7.66716L28.045 18.9293H31.4039L32.0536 17.0521H36.1456L36.5406 18.9293H39.5045L36.9191 6.53106H34.2194ZM34.6564 9.88084L35.6521 14.5332H32.9848L34.6568 9.88084H34.6564Z" fill="white"/>
</svg>
